<?xml version="1.0" encoding="utf-8"?>
<!-- Generator: Adobe Illustrator 25.1.0, SVG Export Plug-In . SVG Version: 6.00 Build 0)  -->
<svg version="1.1" id="Layer_1" xmlns="http://www.w3.org/2000/svg" xmlns:xlink="http://www.w3.org/1999/xlink" x="0px" y="0px"
	 width="241px" height="121px" viewBox="0 0 241 121" enable-background="new 0 0 241 121" xml:space="preserve">
<g>
	<path fill="#FFFFFF" d="M147.798,76.486h0.165c0.136,0,0.247-0.111,0.247-0.247V44.762c0-0.136-0.111-0.247-0.247-0.247h-0.165
		c-0.136,0-0.247,0.111-0.247,0.247v31.477C147.551,76.375,147.662,76.486,147.798,76.486z"/>
	<path fill-rule="evenodd" clip-rule="evenodd" fill="#FFFFFF" d="M47.55,67.347c0.078,0.064-0.113,0.287-0.203,0.35
		c-0.012,0.188-0.191,0.213-0.203,0.4c-0.223,0.181-0.299,0.507-0.508,0.7c-0.297,0.525-0.65,0.994-0.966,1.5
		c-0.331,0.492-0.663,0.981-0.966,1.5c-0.19,0.214-0.321,0.484-0.509,0.7c-0.156,0.247-0.38,0.426-0.508,0.7
		c-1.617,1.66-3.32,3.235-6.051,3.799c-4.801-0.012-9.486-0.139-14.239-0.2c-0.194,0.01-0.018-0.04-0.051-0.15
		c0.063-0.022,0.105-0.064,0.102-0.149c0.117-0.069,0.119-0.249,0.254-0.299c0.101-0.251,0.248-0.457,0.407-0.651
		c0.278-0.443,0.53-0.912,0.864-1.299c0.494-0.93,1.149-1.703,1.627-2.649c0.346-0.376,0.545-0.897,0.865-1.3
		c0.228-0.492,0.563-0.879,0.762-1.399c0.581-0.846,0.98-1.87,1.475-2.8c0.835-2.029,1.513-4.211,1.831-6.748
		c0.346-2.492,0.315-5.354,0.305-8.197c0.212-2.807,1.306-4.748,2.492-6.598c0.202-0.185,0.32-0.452,0.508-0.65
		c0.126-0.244,0.35-0.39,0.458-0.65c0.368-0.388,0.707-0.805,1.018-1.25c0.377-0.378,0.692-0.819,1.017-1.25
		c0.291-0.464,0.676-0.833,0.661-1.599c-0.117-0.569-0.607-0.769-1.067-1c-0.533-0.143-1.076-0.276-1.628-0.4
		c-2.271-0.001-4.486-0.055-6.712-0.1c-0.215,0.008,0-0.077,0-0.15c0.026-0.074,0.075-0.126,0.102-0.2
		c0.096-0.123,0.209-0.226,0.254-0.4c0.197-0.223,0.34-0.498,0.508-0.749c0.316-0.522,0.692-0.986,0.966-1.55
		c0.246-0.19,0.317-0.555,0.56-0.749c0.102-0.316,0.345-0.493,0.457-0.8c0.362-0.478,0.674-1.004,1.068-1.45
		c0.393-0.464,0.809-0.905,1.272-1.299c0.207-0.213,0.46-0.38,0.66-0.599c0.293-0.13,0.458-0.384,0.763-0.5
		c0.477-0.364,1.002-0.682,1.627-0.9c0.527-0.315,1.238-0.45,1.984-0.55h13.476c-2.617,0.377-5.987,0.014-8.391,0.6
		c-2.498,0.477-4.268,1.67-5.848,3.05c2.802-0.443,5.853,0.273,8.696-0.051c1.316-0.207,2.471-0.57,3.459-1.1
		c0.473-0.284,0.928-0.587,1.373-0.899c0.186-0.184,0.394-0.346,0.61-0.5c0.053-0.132,0.202-0.169,0.255-0.3
		c0.073-0.028,0.123-0.078,0.152-0.15c0.062-0.056,0.104-0.044,0.102,0.05c-0.334,0.388-0.604,0.84-0.865,1.3
		c-0.319,0.402-0.601,0.843-0.865,1.299c-0.606,0.821-1.119,1.732-1.729,2.549c-0.543,1.265-0.914,2.701-0.813,4.599
		c0.238,2.114,0.911,3.802,1.831,5.249c0.403,0.771,0.872,1.475,1.424,2.1c0.201,0.385,0.502,0.673,0.763,0.998
		c0.247,0.34,0.604,0.573,0.966,0.8c0.184,0.019,0.339,0.067,0.458,0.151c0.38-0.009,0.813,0.032,1.118-0.05
		c0.201-0.069,0.381-0.159,0.559-0.249c0.532-0.245,0.777-0.77,1.221-1.101c0.314-0.44,0.742-0.769,1.067-1.199
		c0.769-0.761,1.479-1.579,2.237-2.349c0.745-0.785,1.449-1.608,2.237-2.35c0.313-0.442,0.732-0.781,1.067-1.2
		c0.216-0.171,0.369-0.404,0.561-0.599c0.204-0.164,0.381-0.358,0.508-0.6c-3.449-0.009-6.82-0.092-10.22-0.149
		c0.564-1.012,1.245-1.909,1.831-2.9c0.65-0.909,1.196-1.923,1.881-2.799c1.396-1.743,3.096-3.189,5.44-3.999
		c0.382-0.092,0.796-0.15,1.22-0.201H78.36c-2.62,0.44-6.086,0.049-8.594,0.6c-2.604,0.455-4.452,1.652-6.046,3.099
		c2.146-0.339,4.604-0.015,6.809,0.05c1.826-0.039,3.426-0.298,4.678-0.899c0.623-0.304,1.249-0.607,1.729-1.05
		c0.329-0.144,0.539-0.403,0.815-0.6c0.092-0.142,0.288-0.182,0.355-0.349c0.105-0.015,0.1-0.136,0.204-0.15
		c-0.026-0.104,0.198-0.107,0.05-0.05c-0.164,0.421-0.453,0.72-0.609,1.149c-0.245,0.328-0.368,0.772-0.611,1.099
		c-0.126,0.443-0.35,0.79-0.509,1.2c-0.143,0.427-0.336,0.803-0.457,1.25c-0.623,1.655-1.073,3.478-1.425,5.399
		c-0.726,3.817-0.951,8.129-1.372,12.247c0.04,0.092,0.054-0.03,0.051-0.1c0.047-0.037,0.077-0.091,0.101-0.15
		c0.046-0.106,0.155-0.148,0.154-0.3c0.159-0.16,0.194-0.44,0.355-0.6c0.211-0.425,0.468-0.804,0.711-1.2
		c0.482-0.776,1.014-1.503,1.578-2.2c1.128-1.406,2.391-2.68,3.814-3.798c2.781-2.297,6.156-4.011,9.966-5.298
		c0.42,0.087,0.589,0.422,0.966,0.55c0.228,0.26,0.591,0.384,0.815,0.65c0.335,0.153,0.539,0.437,0.864,0.6
		c0.098,0.152,0.277,0.226,0.406,0.35c0.157,0.08,0.205,0.265,0.406,0.3c1.008,0.941,2.038,1.862,2.949,2.9
		c1.841,2.073,3.366,4.456,4.578,7.148c-2.601,0.109-5.012,0.406-7.221,0.9c-1.045,0.306-2.122,0.582-3.103,0.949
		c-1.03,0.322-1.927,0.772-2.899,1.15c-1.277-2.81-2.81-5.368-5.95-6.348c-0.728,1.284-1.283,2.737-1.577,4.449
		c-0.368,1.682-0.2,3.895,0.254,5.348c0.985,3.015,2.97,5.046,5.595,6.449c2.638,1.405,5.89,2.207,9.814,2.349
		c4.038,0.219,7.837-0.228,11.239-0.8c0.214-0.009-0.001,0.078,0,0.149c-0.128-0.008-0.16,0.078-0.204,0.15
		c-0.14,0.096-0.266,0.205-0.407,0.301c-0.24,0.23-0.504,0.437-0.762,0.649c-0.46,0.465-1.005,0.847-1.425,1.351
		c-0.983,0.864-1.844,1.852-2.744,2.798c-0.16,0.311-0.431,0.511-0.611,0.8c-0.232,0.222-0.394,0.513-0.611,0.75
		c-0.408,0.516-0.754,1.09-1.169,1.599c-0.307,0.614-0.747,1.099-1.016,1.749c-0.215,0.258-0.367,0.574-0.509,0.9
		c-0.18,0.273-0.334,0.573-0.458,0.9c-4.544,0.455-9.637,0.154-13.273-0.9c-0.966-0.25-1.882-0.55-2.746-0.9
		c-0.863-0.335-1.715-0.68-2.442-1.149c-0.829-0.386-1.557-0.869-2.238-1.399c-0.744-0.451-1.321-1.067-1.983-1.6
		c-1.012,1.489-1.928,3.071-3.307,4.199c-1.313,1.174-2.765,2.213-4.877,2.599c-4.784-0.012-9.449-0.141-14.186-0.2
		c-0.168,0.037-0.078-0.099,0-0.099c-0.037-0.136,0.101-0.101,0.102-0.2c0.055-0.13,0.184-0.187,0.203-0.351
		c0.173-0.196,0.302-0.435,0.458-0.649c0.318-0.437,0.578-0.931,0.915-1.351c0.283-0.471,0.568-0.941,0.915-1.349
		c0.086-0.283,0.282-0.457,0.408-0.7c0.167-0.202,0.269-0.469,0.458-0.651c0.027-0.143,0.127-0.276,0.203-0.398
		c0.035-0.057,0.06-0.138,0.101-0.2c0.013-0.018,0.095-0.033,0.101-0.05c0.012-0.026-0.015-0.075,0-0.101
		c0.036-0.057,0.12-0.091,0.154-0.149c0.037-0.064,0.011-0.134,0.051-0.2c0.034-0.058,0.118-0.092,0.153-0.151
		c0.036-0.064,0.011-0.134,0.051-0.201c0.038-0.064,0.114-0.076,0.152-0.148c0.035-0.067,0.012-0.134,0.051-0.201
		c0.027-0.047,0.125-0.096,0.152-0.149c0.139-0.264,0.29-0.597,0.458-0.9c0.549-0.943,0.976-2.007,1.424-3.048
		c0.381-1.126,0.692-2.32,0.915-3.6c0.143-1.38,0.113-2.866-0.101-4.149c-0.235-1.252-0.595-2.381-1.017-3.45
		c-0.222-0.532-0.489-1.02-0.713-1.55c-0.296-0.442-0.471-1.003-1.118-1.099c-0.388,0.036-0.579,0.266-0.764,0.5
		c-0.253,0.167-0.273,0.564-0.508,0.75c-0.249,0.571-0.544,1.097-0.865,1.599c-0.541,1.101-1.144,2.141-1.728,3.198
		c-1.163,2.14-2.312,4.293-3.509,6.398c0.006,0.124-0.062,0.086-0.05,0c0.626-1.183,1.176-2.443,1.626-3.799
		c0.524-1.285,0.925-2.69,1.17-4.249c0.054-1.82-0.548-2.993-1.068-4.249c-0.571-1.204-1.195-2.357-1.831-3.498
		c-1.193-2.345-2.546-4.529-3.102-7.498c-0.064-0.123-0.148,0.149-0.254,0.149c-0.033,0.134-0.146,0.19-0.203,0.3
		c-0.179,0.157-0.279,0.392-0.458,0.549c-0.235,0.42-0.532,0.778-0.712,1.25c-0.454,0.853-0.737,1.875-0.763,3.149
		c0.062,2.557,0.987,4.262,1.73,6.149c0.881,1.75,1.722,3.538,2.441,5.447c0.697,1.856,1.213,4.13,0.966,6.749
		c-0.397-0.776-0.622-1.721-1.018-2.499c-0.268-0.886-0.688-1.623-0.966-2.5c-0.414-0.742-0.685-1.626-1.119-2.349
		c-0.31-0.845-0.772-1.541-1.118-2.35c-1.643-2.984-3.388-5.867-5.9-7.997c0.665,1.863,1.289,3.765,1.729,5.848
		c0.399,2.025,0.485,4.972-0.152,6.798c-0.568,1.956-1.554,3.503-2.848,4.749c-0.228,0.409-0.649,0.628-0.966,0.949
		c-0.315,0.307-0.69,0.554-1.018,0.85c-0.409,0.231-0.721,0.555-1.169,0.75c-0.311,0.311-0.786,0.461-1.119,0.75
		c1.596-0.697,3.491-1.101,5.746-1.15c2.36-0.069,4.338,0.236,6.51,0.35c-0.427,0.247-1.375-0.019-1.882,0.151
		c-0.632,0.027-1.383-0.06-1.932,0.05c-1.338,0-2.47,0.204-3.561,0.449c-2.062,0.605-3.714,1.614-5.085,2.9
		c2.743-0.419,5.736,0.301,8.544-0.051C44.248,70.001,46.047,68.821,47.55,67.347 M73.58,35.458
		c-0.377,0.144-0.611,0.432-0.966,0.599c-0.295,0.227-0.605,0.437-0.916,0.651c-0.122,0.082-0.231,0.194-0.304,0.249
		c-0.043,0.032-0.106,0.016-0.153,0.05c-0.143,0.104-0.253,0.304-0.457,0.349c-0.253,0.268-0.574,0.471-0.864,0.701
		c-0.284,0.238-0.541,0.502-0.867,0.699c-0.533,0.526-1.079,1.038-1.626,1.55c-1.987,2.21-3.854,4.539-3.962,8.598
		c0.058,2.892,0.894,5.019,1.271,7.597c0.604,2.603,0.057,5.633-1.067,7.298c-0.037,0.165,0.101,0.078,0.102,0
		c0.075-0.026,0.128-0.075,0.203-0.099c0.084-0.135,0.258-0.18,0.355-0.3c0.265-0.157,0.464-0.378,0.711-0.55
		c0.441-0.4,0.871-0.809,1.271-1.25c0.781-0.914,1.462-1.925,1.929-3.149c1.024-2.343,0.965-5.811,0.813-9.048
		c-0.205-3.328,0.064-6.596,1.068-8.898c0.529-1.164,1.13-2.257,1.933-3.15c0.326-0.513,0.777-0.901,1.171-1.349
		c0.249-0.17,0.409-0.43,0.66-0.6c0.129-0.087,0.219-0.217,0.355-0.3c0.033-0.121,0.371-0.198,0.255-0.3
		C74.25,35.084,73.827,35.183,73.58,35.458 M90.565,40.206c0.199,0.272,0.366,0.573,0.56,0.85c0.348,0.591,0.719,1.16,1.017,1.8
		c0.656,1.219,1.2,2.552,1.423,4.198c0.048,0.601-0.047,1.148,0,1.65c0.912-0.356,2.071-0.465,3.255-0.55
		c0.369,0.087,0.892,0.023,1.271,0.1c0.406,0.002,0.839,0.24,1.169,0.15c-1.087-1.947-2.257-3.812-3.815-5.298
		c-1.492-1.565-3.29-2.83-5.44-3.749C90.165,39.668,90.389,39.914,90.565,40.206 M97.584,66.899
		c-3.372-0.052-6.358-0.482-9.001-1.251c-1.259-0.445-2.513-0.894-3.61-1.499c-0.584-0.276-1.085-0.633-1.627-0.949
		c-0.514-0.344-0.965-0.751-1.475-1.1c-1.759-1.636-3.251-3.536-3.915-6.248c-0.569-1.956-0.427-4.924,0.151-6.749
		c0.046-0.371,0.2-0.637,0.254-1c0.119-0.099,0.086-0.349,0.205-0.449c-0.044-0.142,0.071-0.13,0.05-0.25
		c0.096-0.051,0.005-0.262,0-0.051c-1.096,1.823-1.847,3.983-1.933,6.799c0.11,3.04,1.006,5.309,2.29,7.198
		c0.196,0.386,0.483,0.749,0.711,1.048c0.092,0.12,0.164,0.239,0.255,0.35c0.168,0.208,0.383,0.401,0.56,0.601
		c0.19,0.214,0.358,0.445,0.559,0.649c0.823,0.775,1.659,1.536,2.594,2.199c3.714,2.648,8.309,4.429,14.341,4.799
		c0.975-0.708,1.842-1.521,2.797-2.25c0.438-0.401,0.926-0.755,1.373-1.149c0.247-0.172,0.445-0.394,0.711-0.55
		c0.045-0.155,0.24-0.163,0.306-0.299c0.073-0.028,0.124-0.078,0.153-0.15c0.111,0.038,0.235-0.138,0.051-0.101
		C101.559,66.742,99.591,66.84,97.584,66.899 M69.615,63.2c-0.281,0.523-0.695,0.917-1.018,1.399c-0.415,0.392-0.774,0.84-1.219,1.2
		c-0.146,0.256-0.455,0.352-0.609,0.6c-0.13,0.069-0.235,0.169-0.356,0.25c-0.005,0.095-0.167,0.034-0.151,0.149
		c-0.078,0.001-0.168,0.137,0,0.101c1.944-0.034,4.03,0.066,5.895-0.05c-0.445-0.662-0.75-1.462-1.017-2.299
		c-0.301-0.821-0.467-1.775-0.559-2.8c-0.003-0.03-0.007-0.059-0.051-0.049C70.265,62.24,69.965,62.743,69.615,63.2 M73.226,68.498
		c-0.157-0.113-0.223-0.315-0.358-0.45c-0.131-0.154-0.163-0.406-0.509-0.351c-0.064,0.004-0.069,0.066-0.152,0.051h-1.78
		c-2.157,0.064-4.15,0.284-5.744,0.9c-0.748,0.346-1.511,0.678-2.134,1.149c-0.352,0.204-0.691,0.419-0.967,0.7
		c-0.205,0.064-0.306,0.231-0.456,0.349c-0.12,0.015-0.095,0.174-0.254,0.15c-0.011,0.056-0.057,0.078-0.102,0.1
		c-0.011,0.064-0.079,0.103,0.051,0.099c2.131-0.351,4.615-0.004,6.809,0.051c2.686-0.025,4.679-0.732,6.255-1.851
		C73.712,69.052,73.395,68.849,73.226,68.498"/>
	<polygon fill="#FFFFFF" points="0,93.063 0,82.998 3.042,82.998 4.868,89.863 6.674,82.998 9.722,82.998 9.722,93.063 
		7.834,93.063 7.834,85.14 5.836,93.063 3.88,93.063 1.888,85.14 1.888,93.063 	"/>
	<path fill="#FFFFFF" d="M18.085,87.927l-1.901,0.343c-0.064-0.38-0.21-0.666-0.436-0.858c-0.226-0.193-0.521-0.29-0.883-0.29
		c-0.48,0-0.864,0.166-1.149,0.499c-0.287,0.331-0.43,0.887-0.43,1.664c0,0.865,0.145,1.477,0.435,1.834
		c0.291,0.357,0.681,0.536,1.171,0.536c0.366,0,0.666-0.104,0.899-0.313c0.233-0.208,0.398-0.566,0.494-1.074l1.895,0.321
		c-0.197,0.871-0.574,1.527-1.132,1.972c-0.559,0.444-1.307,0.666-2.245,0.666c-1.067,0-1.917-0.337-2.551-1.009
		c-0.634-0.673-0.951-1.604-0.951-2.795c0-1.203,0.318-2.142,0.954-2.812c0.636-0.67,1.496-1.005,2.581-1.005
		c0.888,0,1.594,0.191,2.118,0.571C17.48,86.562,17.856,87.144,18.085,87.927"/>
	<polygon fill="#FFFFFF" points="19.616,93.063 19.616,83.079 21.648,83.079 21.648,91.366 26.702,91.366 26.702,93.063 	"/>
	<path fill="#FFFFFF" d="M37.227,93.063h-2.211l-0.879-2.286h-4.024l-0.83,2.286h-2.156l3.92-10.065h2.149L37.227,93.063z
		 M33.485,89.081l-1.387-3.735l-1.359,3.735H33.485z"/>
	<path fill="#FFFFFF" d="M38.312,93.063V82.998h4.277c1.076,0,1.857,0.09,2.344,0.27c0.488,0.182,0.878,0.503,1.171,0.965
		c0.293,0.463,0.439,0.991,0.439,1.587c0,0.755-0.222,1.379-0.666,1.871c-0.444,0.492-1.108,0.802-1.991,0.93
		c0.439,0.256,0.802,0.538,1.089,0.844c0.285,0.307,0.671,0.851,1.157,1.634l1.229,1.964h-2.431l-1.469-2.19
		c-0.522-0.783-0.879-1.276-1.071-1.48c-0.192-0.204-0.396-0.343-0.611-0.419c-0.215-0.075-0.556-0.113-1.024-0.113h-0.412v4.202
		L38.312,93.063L38.312,93.063z M40.344,87.255h1.504c0.975,0,1.583-0.041,1.826-0.124c0.243-0.083,0.433-0.224,0.57-0.426
		c0.137-0.2,0.206-0.453,0.206-0.754c0-0.338-0.091-0.612-0.272-0.822c-0.181-0.207-0.436-0.34-0.766-0.394
		c-0.165-0.023-0.659-0.035-1.483-0.035h-1.586L40.344,87.255L40.344,87.255z"/>
	<polygon fill="#FFFFFF" points="48.459,93.063 48.459,82.998 55.923,82.998 55.923,84.7 50.492,84.7 50.492,86.931 55.546,86.931 
		55.546,88.627 50.492,88.627 50.492,91.366 56.115,91.366 56.115,93.063 	"/>
	<polygon fill="#FFFFFF" points="57.86,93.063 57.86,82.998 59.837,82.998 63.956,89.719 63.956,82.998 65.843,82.998 
		65.843,93.063 63.804,93.063 59.748,86.5 59.748,93.063 	"/>
	<path fill="#FFFFFF" d="M67.474,89.787l1.976-0.192c0.119,0.664,0.36,1.152,0.725,1.463c0.363,0.312,0.854,0.468,1.473,0.468
		c0.654,0,1.147-0.138,1.48-0.416c0.332-0.277,0.497-0.6,0.497-0.971c0-0.239-0.069-0.441-0.209-0.608
		c-0.14-0.168-0.383-0.312-0.732-0.436c-0.238-0.081-0.779-0.229-1.627-0.439c-1.09-0.271-1.854-0.602-2.294-0.996
		c-0.618-0.553-0.926-1.229-0.926-2.025c0-0.513,0.145-0.992,0.435-1.439c0.291-0.446,0.709-0.785,1.257-1.019
		c0.547-0.234,1.209-0.35,1.981-0.35c1.263,0,2.215,0.277,2.853,0.83c0.638,0.555,0.974,1.293,1.007,2.218l-2.033,0.089
		c-0.087-0.517-0.273-0.889-0.561-1.116c-0.285-0.226-0.714-0.34-1.286-0.34c-0.591,0-1.053,0.122-1.387,0.364
		c-0.216,0.157-0.324,0.364-0.324,0.625c0,0.239,0.102,0.442,0.303,0.611c0.257,0.216,0.879,0.439,1.868,0.672
		c0.989,0.234,1.72,0.476,2.194,0.725c0.474,0.249,0.845,0.591,1.112,1.024c0.269,0.432,0.402,0.966,0.402,1.603
		c0,0.576-0.16,1.117-0.48,1.619c-0.321,0.505-0.774,0.878-1.36,1.123c-0.586,0.245-1.315,0.367-2.19,0.367
		c-1.272,0-2.25-0.293-2.932-0.882C68.013,91.771,67.605,90.915,67.474,89.787"/>
	<path fill="#FFFFFF" d="M85.956,89.362v-1.696h4.381v4.009c-0.426,0.412-1.042,0.776-1.849,1.089
		c-0.809,0.313-1.627,0.47-2.455,0.47c-1.053,0-1.972-0.22-2.755-0.663c-0.782-0.441-1.37-1.073-1.763-1.895
		c-0.394-0.821-0.59-1.715-0.59-2.68c0-1.049,0.22-1.98,0.658-2.795c0.44-0.814,1.083-1.439,1.93-1.875
		c0.644-0.332,1.449-0.5,2.41-0.5c1.249,0,2.226,0.262,2.928,0.785c0.703,0.525,1.155,1.249,1.356,2.173l-2.018,0.378
		c-0.141-0.495-0.409-0.885-0.799-1.17c-0.393-0.287-0.881-0.43-1.466-0.43c-0.889,0-1.593,0.281-2.119,0.844
		c-0.524,0.564-0.786,1.399-0.786,2.507c0,1.195,0.265,2.091,0.797,2.688c0.531,0.598,1.226,0.896,2.087,0.896
		c0.426,0,0.853-0.084,1.279-0.251c0.429-0.167,0.796-0.369,1.103-0.608v-1.277H85.956L85.956,89.362z"/>
	<path fill="#FFFFFF" d="M92.217,93.063V82.998h4.279c1.076,0,1.857,0.09,2.344,0.27c0.488,0.182,0.878,0.503,1.17,0.965
		c0.293,0.463,0.44,0.991,0.44,1.587c0,0.755-0.222,1.379-0.667,1.871c-0.443,0.492-1.106,0.802-1.991,0.93
		c0.44,0.256,0.803,0.538,1.088,0.844c0.287,0.307,0.672,0.851,1.157,1.634l1.229,1.964h-2.43l-1.469-2.19
		c-0.521-0.783-0.878-1.276-1.07-1.48c-0.193-0.204-0.395-0.343-0.612-0.419c-0.215-0.075-0.556-0.113-1.023-0.113H94.25v4.202
		L92.217,93.063L92.217,93.063z M94.25,87.255h1.505c0.974,0,1.582-0.041,1.825-0.124c0.244-0.083,0.434-0.224,0.571-0.426
		c0.137-0.2,0.205-0.453,0.205-0.754c0-0.338-0.089-0.612-0.27-0.822c-0.181-0.207-0.437-0.34-0.765-0.394
		c-0.165-0.023-0.66-0.035-1.484-0.035H94.25V87.255z"/>
	<path fill="#FFFFFF" d="M101.955,88.092c0-1.025,0.154-1.887,0.459-2.582c0.23-0.513,0.542-0.973,0.937-1.381
		c0.397-0.407,0.831-0.709,1.302-0.906c0.627-0.265,1.351-0.398,2.171-0.398c1.483,0,2.669,0.46,3.559,1.38
		c0.89,0.92,1.336,2.199,1.336,3.838c0,1.625-0.44,2.896-1.325,3.814c-0.884,0.918-2.066,1.376-3.542,1.376
		c-1.496,0-2.688-0.456-3.57-1.37C102.395,90.951,101.955,89.695,101.955,88.092 M104.048,88.023c0,1.14,0.264,2.003,0.789,2.592
		c0.527,0.588,1.195,0.882,2.006,0.882c0.811,0,1.475-0.292,1.993-0.875c0.521-0.584,0.779-1.459,0.779-2.625
		c0-1.155-0.252-2.014-0.758-2.583c-0.506-0.567-1.178-0.851-2.015-0.851c-0.838,0-1.513,0.288-2.025,0.861
		C104.304,85.999,104.048,86.865,104.048,88.023"/>
	<path fill="#FFFFFF" d="M113.29,82.998h2.034v5.451c0,0.866,0.024,1.427,0.075,1.683c0.086,0.412,0.294,0.742,0.621,0.991
		c0.328,0.25,0.775,0.375,1.342,0.375c0.579,0,1.012-0.118,1.305-0.354c0.293-0.235,0.471-0.525,0.53-0.869
		c0.058-0.343,0.088-0.912,0.088-1.71v-5.567h2.032v5.286c0,1.209-0.055,2.063-0.164,2.561c-0.111,0.499-0.313,0.92-0.609,1.263
		c-0.295,0.343-0.69,0.616-1.184,0.821c-0.494,0.202-1.138,0.305-1.935,0.305c-0.961,0-1.691-0.111-2.187-0.333
		c-0.497-0.222-0.889-0.51-1.177-0.865c-0.29-0.355-0.479-0.726-0.571-1.116c-0.133-0.576-0.199-1.427-0.199-2.553V82.998z"/>
	<path fill="#FFFFFF" d="M123.459,93.063V82.998h3.262c1.236,0,2.041,0.049,2.416,0.151c0.578,0.15,1.06,0.479,1.449,0.986
		c0.389,0.506,0.584,1.158,0.584,1.96c0,0.618-0.112,1.138-0.335,1.558c-0.224,0.421-0.51,0.751-0.854,0.993
		c-0.346,0.24-0.699,0.399-1.055,0.477c-0.485,0.096-1.189,0.143-2.108,0.143h-1.326v3.797L123.459,93.063L123.459,93.063z
		 M125.49,84.7v2.855h1.113c0.802,0,1.336-0.051,1.607-0.158c0.27-0.104,0.482-0.268,0.636-0.493
		c0.152-0.224,0.229-0.485,0.229-0.782c0-0.366-0.108-0.668-0.322-0.906c-0.216-0.238-0.488-0.387-0.818-0.447
		c-0.243-0.047-0.73-0.069-1.463-0.069H125.49L125.49,84.7z"/>
	<g>
		<g>
			<path fill="#FFFFFF" d="M211.03,82.825c-0.098,0.028-0.195,0.055-0.293,0.08c-0.098,0.025-0.187,0.053-0.267,0.085
				c-0.08,0.031-0.138,0.084-0.174,0.16c-0.035,0.075-0.063,0.193-0.084,0.353c-0.02,0.16-0.04,0.326-0.058,0.499
				c-0.018,0.172-0.038,0.336-0.062,0.49c-0.024,0.154-0.057,0.262-0.098,0.325c-0.178,0.276-0.331,0.582-0.458,0.918
				c-0.128,0.336-0.209,0.678-0.245,1.026c-0.035,0.348-0.019,0.691,0.049,1.026c0.068,0.336,0.209,0.642,0.422,0.918l0.258,0.104
				l-0.053,0.273c-0.072,0.026-0.128,0.036-0.169,0.033c-0.042-0.003-0.078-0.013-0.111-0.028c-0.033-0.015-0.065-0.03-0.098-0.043
				c-0.033-0.012-0.07-0.015-0.111-0.009c-0.065,0.013-0.123,0.037-0.173,0.071c-0.051,0.034-0.108,0.052-0.173,0.052
				c-0.113-0.119-0.239-0.184-0.378-0.193c-0.14-0.009-0.282,0.006-0.426,0.047c-0.145,0.041-0.288,0.089-0.427,0.146
				s-0.265,0.091-0.378,0.104c-0.113,0.012-0.206-0.011-0.28-0.071c-0.074-0.059-0.117-0.186-0.129-0.381
				c-0.006-0.094,0.013-0.16,0.058-0.197c0.044-0.038,0.1-0.066,0.169-0.085c0.068-0.019,0.138-0.036,0.209-0.052
				c0.071-0.015,0.13-0.048,0.177-0.099c0.119-0.119,0.186-0.275,0.205-0.466c0.018-0.191,0.027-0.365,0.027-0.522
				c-0.006-0.22-0.021-0.436-0.045-0.65c-0.023-0.214-0.05-0.426-0.08-0.64c-0.006-0.051-0.042-0.154-0.106-0.311
				c-0.065-0.157-0.145-0.338-0.24-0.541c-0.095-0.204-0.197-0.419-0.306-0.645c-0.11-0.226-0.216-0.436-0.32-0.631
				s-0.197-0.361-0.28-0.499c-0.083-0.138-0.139-0.22-0.169-0.245c-0.083-0.069-0.16-0.099-0.231-0.089
				c-0.071,0.009-0.148,0.017-0.231,0.023c-0.083,0.006-0.175-0.015-0.276-0.066c-0.101-0.05-0.222-0.172-0.364-0.367
				c-0.071-0.094-0.088-0.163-0.049-0.207c0.038-0.044,0.102-0.075,0.191-0.094c0.089-0.019,0.188-0.033,0.298-0.042
				c0.11-0.009,0.2-0.027,0.271-0.052c0.154-0.056,0.297-0.089,0.431-0.099c0.133-0.009,0.263-0.008,0.391,0.005
				c0.127,0.012,0.261,0.029,0.4,0.052c0.139,0.022,0.289,0.036,0.449,0.042c0.201,0.007,0.379,0.018,0.533,0.033
				c0.154,0.015,0.317,0.017,0.489,0.005c0.148-0.006,0.299-0.033,0.454-0.08c0.154-0.047,0.308-0.088,0.462-0.123
				c0.154-0.034,0.305-0.048,0.453-0.042c0.148,0.006,0.293,0.06,0.435,0.16c0.053-0.019,0.129-0.024,0.227-0.014
				c0.098,0.009,0.189,0.033,0.275,0.07c0.086,0.038,0.157,0.086,0.214,0.146c0.056,0.06,0.073,0.13,0.049,0.212
				C211.212,82.755,211.128,82.798,211.03,82.825z M209.706,83.758c-0.068-0.191-0.179-0.359-0.333-0.504
				c-0.018-0.013-0.047-0.032-0.089-0.057c-0.042-0.025-0.086-0.052-0.133-0.08c-0.048-0.028-0.094-0.055-0.138-0.08
				c-0.044-0.025-0.075-0.044-0.093-0.056c-0.018-0.013-0.026-0.047-0.022-0.104c0.003-0.057,0.006-0.115,0.009-0.174
				c0.003-0.06,0.003-0.113,0-0.16c-0.003-0.047-0.017-0.07-0.04-0.07c-0.03,0-0.053,0.034-0.071,0.104
				c-0.018,0.069-0.034,0.146-0.049,0.231c-0.015,0.084-0.032,0.161-0.049,0.23c-0.018,0.069-0.041,0.107-0.071,0.113
				c-0.124,0.019-0.23,0.038-0.316,0.057c-0.085,0.019-0.154,0.051-0.204,0.094c-0.051,0.044-0.083,0.11-0.098,0.197
				c-0.015,0.088-0.013,0.214,0.005,0.377c0.018,0.163,0.049,0.297,0.093,0.4c0.044,0.104,0.093,0.2,0.146,0.287
				c0.053,0.088,0.108,0.177,0.165,0.268c0.056,0.091,0.102,0.206,0.138,0.343c0.018,0.063,0.058,0.159,0.12,0.287
				c0.063,0.129,0.134,0.24,0.214,0.334c0.08,0.094,0.16,0.149,0.24,0.165c0.08,0.015,0.146-0.055,0.2-0.212
				c0.029-0.088,0.044-0.179,0.044-0.273c0-0.1,0.018-0.194,0.053-0.282c0.053-0.138,0.111-0.275,0.174-0.409
				s0.108-0.275,0.138-0.419C209.784,84.151,209.774,83.949,209.706,83.758z"/>
			<path fill="#FFFFFF" d="M217.357,84.774c-0.02,0.009-0.044,0.009-0.071,0c-0.027-0.009-0.052-0.022-0.075-0.038
				c-0.024-0.015-0.042-0.03-0.053-0.042c-0.048-0.057-0.084-0.119-0.111-0.189c-0.027-0.069-0.05-0.138-0.071-0.207
				c-0.02-0.069-0.042-0.138-0.062-0.207c-0.02-0.069-0.049-0.128-0.084-0.179c-0.119-0.163-0.245-0.32-0.378-0.471
				c-0.133-0.15-0.259-0.307-0.378-0.47c-0.533-0.1-0.95-0.134-1.248-0.099c-0.3,0.035-0.513,0.138-0.64,0.311
				c-0.128,0.173-0.185,0.416-0.173,0.73c0.012,0.314,0.059,0.697,0.142,1.149c0.018,0.113,0.074,0.174,0.169,0.184
				c0.094,0.009,0.198-0.008,0.311-0.052c0.113-0.044,0.222-0.1,0.329-0.169c0.107-0.069,0.187-0.123,0.24-0.16
				c0.041-0.031,0.075-0.116,0.102-0.254s0.056-0.278,0.089-0.419c0.033-0.142,0.074-0.257,0.125-0.348
				c0.05-0.091,0.117-0.105,0.2-0.043c0.089,0.063,0.139,0.16,0.151,0.292c0.012,0.132,0.009,0.273-0.009,0.424
				c-0.018,0.151-0.042,0.3-0.072,0.447c-0.029,0.148-0.047,0.268-0.053,0.363c0,0.106,0.006,0.21,0.018,0.311
				c0.012,0.1,0.026,0.201,0.04,0.301c0.015,0.1,0.027,0.204,0.035,0.311c0.009,0.107,0.011,0.217,0.005,0.329l-0.231,0.038
				c-0.03-0.019-0.08-0.061-0.151-0.127c-0.071-0.066-0.149-0.14-0.235-0.221c-0.086-0.082-0.166-0.16-0.24-0.235
				c-0.074-0.075-0.123-0.129-0.146-0.16h-0.24c-0.16-0.113-0.287-0.138-0.382-0.075c-0.095,0.063-0.161,0.18-0.2,0.353
				c-0.039,0.172-0.053,0.378-0.044,0.617c0.009,0.239,0.035,0.477,0.08,0.716c0.044,0.239,0.1,0.458,0.169,0.659
				c0.068,0.201,0.144,0.342,0.227,0.424c0.042,0.044,0.104,0.07,0.186,0.08c0.083,0.009,0.17,0.011,0.262,0.005
				c0.092-0.006,0.184-0.012,0.276-0.019c0.092-0.006,0.167-0.003,0.226,0.009c0.048-0.037,0.105-0.075,0.174-0.113
				c0.068-0.038,0.139-0.072,0.213-0.104c0.074-0.031,0.148-0.058,0.222-0.08c0.074-0.022,0.14-0.043,0.2-0.062
				c0.113-0.131,0.214-0.262,0.302-0.39c0.089-0.129,0.17-0.257,0.245-0.386c0.074-0.129,0.146-0.263,0.217-0.405
				c0.071-0.141,0.148-0.293,0.231-0.456c0.172-0.044,0.298-0.02,0.378,0.07c0.08,0.092,0.126,0.223,0.138,0.396
				c0.012,0.173-0.002,0.371-0.04,0.593c-0.039,0.222-0.084,0.439-0.138,0.65c-0.053,0.21-0.108,0.398-0.165,0.565
				c-0.056,0.166-0.096,0.281-0.12,0.344c-0.095,0.025-0.17,0.027-0.227,0.005c-0.056-0.022-0.104-0.052-0.142-0.089
				c-0.039-0.038-0.075-0.075-0.111-0.113c-0.035-0.038-0.08-0.059-0.134-0.066c-0.083-0.006-0.191-0.011-0.324-0.014
				c-0.134-0.003-0.271-0.005-0.413-0.005c-0.136,0-0.268,0.003-0.395,0.009c-0.128,0.007-0.23,0.016-0.307,0.028l-0.205-0.084
				c-0.095,0.075-0.23,0.122-0.404,0.141c-0.175,0.019-0.361,0.02-0.56,0.005c-0.199-0.015-0.39-0.039-0.573-0.071
				c-0.184-0.031-0.332-0.063-0.444-0.094c-0.065,0.057-0.169,0.105-0.311,0.146c-0.143,0.041-0.283,0.064-0.423,0.07
				c-0.139,0.006-0.261-0.015-0.364-0.066c-0.104-0.05-0.15-0.141-0.138-0.273c0.071-0.088,0.144-0.149,0.218-0.184
				c0.074-0.034,0.148-0.059,0.222-0.075c0.074-0.015,0.145-0.031,0.214-0.047c0.068-0.015,0.131-0.052,0.191-0.108
				s0.108-0.215,0.147-0.475c0.038-0.26,0.067-0.574,0.084-0.941c0.018-0.367,0.025-0.761,0.022-1.181
				c-0.003-0.42-0.019-0.819-0.049-1.196c-0.03-0.377-0.07-0.706-0.12-0.988c-0.051-0.282-0.111-0.468-0.182-0.556
				c-0.071-0.082-0.154-0.12-0.249-0.118c-0.095,0.003-0.184,0.005-0.266,0.005c-0.077,0-0.144-0.02-0.2-0.062
				c-0.056-0.04-0.084-0.152-0.084-0.334c0-0.106,0.043-0.19,0.129-0.25c0.086-0.059,0.196-0.104,0.329-0.132
				c0.134-0.028,0.281-0.045,0.444-0.052c0.163-0.006,0.322-0.009,0.476-0.009c0.154,0,0.296,0,0.426,0
				c0.13,0,0.231-0.006,0.302-0.019c0.136,0.094,0.274,0.159,0.413,0.193s0.279,0.051,0.418,0.047s0.282-0.022,0.427-0.057
				c0.145-0.034,0.294-0.074,0.449-0.118c0.065-0.019,0.127-0.022,0.186-0.009c0.059,0.013,0.119,0.032,0.178,0.057
				c0.059,0.025,0.118,0.049,0.177,0.07c0.059,0.022,0.119,0.033,0.177,0.033c0.107,0.006,0.199-0.007,0.276-0.038
				c0.077-0.032,0.152-0.057,0.227-0.075c0.074-0.019,0.151-0.015,0.231,0.009c0.08,0.025,0.176,0.094,0.289,0.207
				c0.012,0.019,0.027,0.083,0.044,0.193c0.018,0.11,0.033,0.246,0.044,0.41c0.012,0.163,0.022,0.339,0.031,0.527
				c0.009,0.188,0.017,0.365,0.022,0.532c0.006,0.166,0.008,0.311,0.005,0.433c-0.003,0.122-0.007,0.199-0.013,0.231
				C217.394,84.744,217.378,84.765,217.357,84.774z"/>
			<path fill="#FFFFFF" d="M225.19,88.733c-0.03,0.088-0.08,0.165-0.151,0.231c-0.071,0.066-0.15,0.117-0.235,0.151
				c-0.086,0.034-0.156,0.036-0.209,0.005c-0.071-0.044-0.138-0.061-0.2-0.052s-0.12,0.023-0.174,0.042
				c-0.053,0.019-0.106,0.034-0.16,0.047c-0.053,0.013-0.106,0.003-0.16-0.028l-1.093-0.169c-0.065,0-0.145,0.017-0.24,0.052
				c-0.095,0.034-0.191,0.066-0.289,0.094c-0.098,0.028-0.191,0.045-0.28,0.052c-0.089,0.006-0.157-0.019-0.205-0.075
				c-0.095-0.006-0.181-0.017-0.257-0.033c-0.077-0.015-0.16-0.033-0.249-0.052c-0.065-0.012-0.16-0.014-0.285-0.005
				c-0.124,0.009-0.257,0.022-0.4,0.038c-0.142,0.015-0.283,0.032-0.422,0.047c-0.139,0.015-0.256,0.023-0.351,0.023
				c-0.248,0-0.499,0.016-0.751,0.047c-0.252,0.032-0.508,0.053-0.769,0.066c-0.118,0.006-0.221-0.002-0.306-0.024
				c-0.086-0.022-0.147-0.052-0.182-0.089c-0.035-0.038-0.044-0.085-0.027-0.141c0.018-0.057,0.074-0.117,0.169-0.179
				c0.065-0.044,0.155-0.094,0.271-0.151c0.115-0.056,0.227-0.109,0.333-0.16c0.106-0.05,0.194-0.089,0.262-0.118
				c0.068-0.028,0.09-0.036,0.067-0.024c0.083-0.044,0.172-0.161,0.267-0.353c0.094-0.191,0.195-0.425,0.302-0.702
				c0.107-0.276,0.215-0.574,0.325-0.894c0.11-0.32,0.219-0.631,0.329-0.932c0.109-0.302,0.216-0.575,0.32-0.819
				c0.104-0.245,0.2-0.427,0.288-0.546c0.018-0.138,0.04-0.288,0.067-0.451c0.027-0.163,0.059-0.327,0.098-0.49
				c0.038-0.163,0.084-0.32,0.138-0.471c0.053-0.15,0.116-0.285,0.187-0.404c0.065-0.107,0.14-0.176,0.226-0.207
				c0.086-0.031,0.172-0.033,0.258-0.005c0.086,0.028,0.164,0.08,0.236,0.155c0.071,0.075,0.124,0.166,0.16,0.273
				c0.029,0.094,0.068,0.184,0.115,0.268c0.048,0.084,0.095,0.168,0.143,0.249c0.047,0.082,0.09,0.165,0.129,0.25
				c0.038,0.085,0.064,0.171,0.075,0.259c0.024,0.151,0.042,0.305,0.053,0.462c0.012,0.157,0.027,0.314,0.044,0.47
				c0.018,0.157,0.044,0.311,0.08,0.462c0.035,0.151,0.091,0.295,0.169,0.433c0.042,0.082,0.089,0.209,0.142,0.381
				c0.053,0.173,0.111,0.367,0.174,0.584c0.062,0.216,0.126,0.439,0.191,0.668c0.065,0.229,0.132,0.442,0.2,0.64
				c0.068,0.197,0.139,0.362,0.213,0.494c0.074,0.132,0.147,0.207,0.218,0.226c0.071,0.019,0.16,0.026,0.267,0.019
				c0.106-0.006,0.213-0.009,0.319-0.009c0.107,0,0.206,0.009,0.298,0.028c0.092,0.019,0.164,0.06,0.218,0.123
				C225.205,88.563,225.22,88.645,225.19,88.733z M222.347,87.203c-0.048-0.116-0.117-0.205-0.209-0.268
				c-0.092-0.063-0.203-0.102-0.333-0.118c-0.13-0.015-0.279-0.023-0.444-0.023c-0.077,0-0.129,0.022-0.155,0.066
				c-0.027,0.044-0.07,0.065-0.129,0.065c-0.042,0-0.077-0.009-0.106-0.028c-0.029-0.019-0.065-0.028-0.106-0.028
				c-0.124-0.006-0.237,0.032-0.338,0.113c-0.101,0.082-0.182,0.184-0.245,0.306c-0.062,0.122-0.1,0.254-0.115,0.396
				c-0.015,0.141-0.005,0.268,0.031,0.381c0.024,0.057,0.088,0.121,0.191,0.193c0.103,0.072,0.217,0.148,0.342,0.226
				c0.125,0.079,0.242,0.162,0.351,0.25c0.11,0.088,0.179,0.176,0.209,0.263c0.023,0.075,0.041,0.092,0.053,0.047
				c0.012-0.044,0.025-0.108,0.04-0.193c0.015-0.084,0.035-0.169,0.062-0.254c0.027-0.085,0.064-0.13,0.111-0.136
				c0.16-0.019,0.296-0.027,0.409-0.023c0.112,0.003,0.201-0.011,0.266-0.043c0.065-0.031,0.113-0.097,0.143-0.197
				c0.029-0.1,0.044-0.27,0.044-0.509C222.418,87.481,222.394,87.319,222.347,87.203z M221.702,85.725
				c0.02-0.103,0.018-0.213-0.009-0.329c-0.027-0.116-0.064-0.232-0.111-0.348c-0.048-0.116-0.077-0.227-0.089-0.334
				c-0.106-0.138-0.191-0.21-0.253-0.217c-0.062-0.006-0.116,0.02-0.16,0.08c-0.044,0.059-0.083,0.135-0.115,0.226
				s-0.073,0.165-0.12,0.221c0,0.006-0.006,0.04-0.018,0.103c-0.012,0.063-0.027,0.132-0.044,0.207
				c-0.018,0.076-0.039,0.176-0.063,0.301c-0.029,0.063-0.053,0.119-0.071,0.17c-0.018,0.05-0.025,0.094-0.022,0.131
				s0.022,0.07,0.058,0.099c0.035,0.028,0.095,0.052,0.178,0.071c0.018,0,0.059,0.006,0.124,0.019
				c0.065,0.012,0.104,0.019,0.115,0.019c0.054-0.007,0.12-0.026,0.2-0.057c0.08-0.032,0.144-0.063,0.191-0.094
				C221.612,85.918,221.681,85.829,221.702,85.725z"/>
			<path fill="#FFFFFF" d="M231.993,88.257c0.003,0.085-0.021,0.171-0.071,0.259c-0.051,0.088-0.113,0.172-0.187,0.254
				c-0.074,0.082-0.129,0.151-0.164,0.207c-0.19,0.056-0.338,0.103-0.444,0.141c-0.106,0.038-0.192,0.066-0.258,0.085
				c-0.065,0.019-0.117,0.027-0.155,0.023c-0.039-0.003-0.084-0.015-0.138-0.038c-0.053-0.022-0.124-0.053-0.213-0.094
				c-0.089-0.041-0.216-0.09-0.382-0.146c-0.106-0.145-0.19-0.311-0.249-0.499c-0.059-0.188-0.105-0.383-0.138-0.583
				c-0.033-0.201-0.055-0.402-0.066-0.603c-0.012-0.201-0.018-0.392-0.018-0.574c-0.006-0.226-0.042-0.388-0.107-0.485
				c-0.065-0.097-0.146-0.163-0.244-0.198c-0.098-0.034-0.209-0.052-0.333-0.052c-0.124,0-0.246-0.019-0.364-0.057
				c-0.065-0.019-0.139-0.036-0.222-0.052c-0.083-0.015-0.151-0.027-0.205-0.033c-0.053-0.006-0.083-0.009-0.089-0.009
				c-0.018,0.131-0.04,0.304-0.067,0.517c-0.027,0.214-0.048,0.437-0.063,0.668c-0.014,0.232-0.022,0.455-0.022,0.668
				c0,0.207,0.015,0.371,0.045,0.49c0.029,0.113,0.083,0.202,0.16,0.268c0.077,0.065,0.154,0.121,0.231,0.165
				c0.077,0.044,0.145,0.086,0.204,0.127c0.059,0.04,0.089,0.095,0.089,0.165l-0.142,0.207c-0.13,0.051-0.3,0.068-0.506,0.052
				c-0.207-0.016-0.419-0.033-0.636-0.052c-0.216-0.019-0.424-0.027-0.622-0.023c-0.199,0.003-0.357,0.049-0.475,0.136
				c-0.035,0.025-0.082,0.023-0.138-0.005c-0.057-0.028-0.114-0.067-0.174-0.118c-0.059-0.05-0.111-0.103-0.155-0.16
				c-0.044-0.057-0.07-0.104-0.075-0.142l0.071-0.179c0.113,0.006,0.222-0.014,0.329-0.062c0.106-0.047,0.203-0.113,0.289-0.197
				c0.085-0.085,0.156-0.184,0.213-0.297c0.057-0.113,0.084-0.229,0.084-0.348c0-0.169,0.005-0.378,0.013-0.626
				c0.009-0.247,0.015-0.513,0.018-0.795c0.003-0.282,0.003-0.572,0-0.871c-0.003-0.298-0.012-0.583-0.027-0.856
				c-0.014-0.273-0.038-0.524-0.071-0.753c-0.033-0.229-0.079-0.416-0.138-0.56c-0.053-0.138-0.115-0.239-0.187-0.301
				c-0.071-0.063-0.145-0.105-0.222-0.127c-0.077-0.022-0.152-0.035-0.227-0.038c-0.074-0.003-0.141-0.014-0.2-0.033
				c-0.059-0.019-0.11-0.053-0.151-0.103c-0.042-0.051-0.065-0.135-0.071-0.255c-0.006-0.069,0.044-0.124,0.151-0.165
				c0.106-0.04,0.241-0.07,0.404-0.089c0.163-0.019,0.343-0.03,0.542-0.033c0.199-0.003,0.388-0.002,0.568,0.005
				c0.181,0.006,0.342,0.017,0.485,0.033c0.142,0.016,0.237,0.03,0.284,0.043c0.048-0.032,0.111-0.053,0.191-0.066
				c0.08-0.012,0.146-0.003,0.2,0.028c0.089-0.044,0.175-0.067,0.258-0.07c0.083-0.003,0.166,0.005,0.249,0.023
				c0.083,0.019,0.167,0.044,0.253,0.075c0.086,0.032,0.179,0.057,0.28,0.075c0.113,0.025,0.212,0.052,0.298,0.08
				c0.085,0.028,0.17,0.06,0.253,0.094c0.083,0.034,0.169,0.069,0.258,0.103c0.089,0.035,0.186,0.071,0.293,0.109
				c0.083,0.031,0.16,0.053,0.231,0.065c0.071,0.013,0.143,0.035,0.214,0.066c0.1,0.038,0.185,0.135,0.253,0.292
				c0.068,0.157,0.117,0.329,0.147,0.518c0.029,0.188,0.037,0.372,0.022,0.551c-0.015,0.179-0.055,0.309-0.12,0.39
				c-0.03,0.038-0.113,0.117-0.249,0.236s-0.282,0.243-0.435,0.372c-0.154,0.129-0.292,0.248-0.413,0.358
				c-0.122,0.11-0.182,0.177-0.182,0.202l0.08,0.104c0.219,0.213,0.392,0.453,0.52,0.72c0.127,0.267,0.241,0.524,0.342,0.772
				c0.1,0.248,0.202,0.466,0.307,0.654c0.103,0.188,0.241,0.305,0.413,0.348l0.4-0.236C231.932,88.096,231.99,88.172,231.993,88.257
				z M229.758,84.623c0.089-0.179,0.139-0.359,0.151-0.541c0.012-0.182-0.021-0.359-0.098-0.532c-0.077-0.172-0.21-0.337-0.4-0.494
				c-0.053-0.044-0.113-0.08-0.177-0.108c-0.065-0.028-0.129-0.052-0.191-0.07c-0.063-0.019-0.125-0.038-0.187-0.057
				c-0.062-0.019-0.12-0.044-0.173-0.075c-0.048-0.031-0.094-0.057-0.138-0.075c-0.044-0.019-0.093-0.028-0.146-0.028
				c-0.101,0-0.187,0.037-0.258,0.109c-0.071,0.072-0.136,0.149-0.195,0.231c-0.136,0.182-0.218,0.332-0.245,0.451
				s-0.028,0.226-0.005,0.32c0.024,0.094,0.055,0.185,0.093,0.273c0.039,0.088,0.058,0.194,0.058,0.32c0,0.05-0.005,0.1-0.013,0.15
				c-0.009,0.051-0.014,0.1-0.014,0.151c0,0.044,0.011,0.097,0.032,0.16c0.02,0.063,0.043,0.127,0.067,0.193
				c0.023,0.066,0.044,0.127,0.062,0.184c0.018,0.057,0.023,0.094,0.018,0.113c0.095-0.006,0.186-0.008,0.276-0.005
				c0.089,0.003,0.189-0.001,0.302-0.014c0.083-0.006,0.16-0.019,0.231-0.038c0.071-0.019,0.139-0.038,0.204-0.057
				c0.065-0.019,0.13-0.033,0.196-0.042c0.065-0.009,0.133-0.011,0.204-0.005C229.554,84.973,229.669,84.803,229.758,84.623z"/>
			<path fill="#FFFFFF" d="M236.947,87.085c-0.042,0.188-0.098,0.371-0.169,0.546c-0.072,0.176-0.144,0.338-0.218,0.485
				c-0.074,0.148-0.117,0.262-0.129,0.344c-0.077,0.075-0.176,0.161-0.298,0.259c-0.121,0.097-0.253,0.188-0.395,0.273
				c-0.142,0.085-0.29,0.157-0.444,0.216c-0.154,0.06-0.305,0.091-0.453,0.094c-0.148,0.003-0.286-0.028-0.413-0.094
				c-0.128-0.065-0.236-0.184-0.325-0.353c-0.19-0.075-0.354-0.097-0.493-0.066c-0.139,0.032-0.261,0.082-0.364,0.151
				c-0.104,0.069-0.196,0.14-0.276,0.212c-0.08,0.072-0.152,0.108-0.218,0.108c-0.023,0-0.047-0.008-0.071-0.024
				c-0.024-0.015-0.038-0.036-0.044-0.061l-0.044-0.16c-0.018-0.056-0.031-0.165-0.04-0.325c-0.009-0.16-0.012-0.342-0.009-0.546
				c0.003-0.203,0.012-0.419,0.027-0.645c0.015-0.226,0.035-0.435,0.062-0.626c0.027-0.191,0.059-0.354,0.098-0.49
				c0.039-0.135,0.085-0.215,0.138-0.24c0.083-0.038,0.152-0.033,0.209,0.014c0.057,0.047,0.103,0.111,0.138,0.193
				c0.035,0.082,0.065,0.169,0.089,0.263c0.023,0.094,0.044,0.17,0.062,0.226c0.113,0.358,0.255,0.67,0.426,0.936
				c0.172,0.267,0.369,0.463,0.591,0.588c0.222,0.126,0.471,0.17,0.746,0.132c0.276-0.038,0.579-0.182,0.911-0.433
				c0.13-0.269,0.192-0.505,0.186-0.706c-0.006-0.201-0.058-0.375-0.155-0.522c-0.098-0.148-0.232-0.273-0.404-0.377
				s-0.359-0.194-0.56-0.273c-0.201-0.078-0.407-0.149-0.617-0.212c-0.21-0.063-0.408-0.125-0.591-0.188
				c-0.142,0.056-0.277,0.064-0.404,0.023c-0.127-0.04-0.246-0.113-0.356-0.216c-0.109-0.104-0.209-0.229-0.297-0.377
				c-0.089-0.148-0.163-0.301-0.222-0.462s-0.105-0.316-0.138-0.466c-0.033-0.151-0.046-0.282-0.04-0.396
				c0-0.013,0.013-0.059,0.04-0.142c0.027-0.082,0.056-0.171,0.089-0.268c0.033-0.098,0.062-0.189,0.089-0.273
				c0.027-0.084,0.046-0.143,0.058-0.174c0.054-0.163,0.172-0.318,0.355-0.466c0.184-0.148,0.388-0.271,0.613-0.372
				c0.225-0.1,0.453-0.171,0.684-0.212c0.231-0.041,0.418-0.036,0.56,0.014c0.047,0.019,0.084,0.051,0.111,0.094
				c0.027,0.044,0.052,0.091,0.075,0.142c0.024,0.05,0.049,0.099,0.076,0.146c0.027,0.047,0.066,0.08,0.12,0.099
				c0.113,0.044,0.215,0.053,0.307,0.028c0.091-0.025,0.179-0.063,0.262-0.113c0.083-0.05,0.165-0.1,0.245-0.15
				c0.08-0.051,0.168-0.075,0.262-0.075c0.053,0.044,0.091,0.138,0.115,0.282c0.023,0.144,0.037,0.312,0.04,0.504
				c0.003,0.191-0.005,0.394-0.022,0.607c-0.018,0.214-0.046,0.408-0.084,0.583c-0.039,0.176-0.086,0.322-0.143,0.438
				c-0.056,0.117-0.117,0.174-0.182,0.174c-0.083,0-0.126-0.015-0.129-0.047c-0.003-0.032-0.011-0.082-0.022-0.151
				c-0.048-0.282-0.098-0.5-0.151-0.654c-0.053-0.154-0.121-0.282-0.204-0.386c-0.083-0.103-0.187-0.201-0.311-0.292
				c-0.124-0.091-0.282-0.218-0.471-0.381c-0.196,0-0.393,0.008-0.591,0.023c-0.199,0.016-0.367,0.065-0.506,0.146
				c-0.139,0.082-0.228,0.206-0.267,0.372c-0.038,0.166,0.011,0.394,0.147,0.682c0.047,0.113,0.098,0.185,0.151,0.217
				c0.053,0.032,0.108,0.049,0.164,0.052c0.057,0.003,0.113,0.003,0.169,0c0.056-0.003,0.117,0.011,0.182,0.043
				c0.059,0.031,0.101,0.075,0.125,0.131c0.023,0.057,0.059,0.104,0.106,0.142c0.029,0.025,0.068,0.044,0.115,0.057
				c0.048,0.012,0.099,0.025,0.156,0.038c0.056,0.012,0.112,0.025,0.169,0.037c0.056,0.013,0.105,0.032,0.146,0.057
				c0.101,0.057,0.194,0.093,0.28,0.108c0.086,0.016,0.164,0.024,0.236,0.024c0.077,0,0.142,0,0.195,0
				c0.059,0,0.11,0.013,0.151,0.038l0.648,0.64c0.024,0.163,0.074,0.314,0.151,0.452c0.077,0.138,0.139,0.286,0.186,0.442
				C236.985,86.718,236.989,86.897,236.947,87.085z"/>
		</g>
		<path fill-rule="evenodd" clip-rule="evenodd" fill="#FFFFFF" d="M205.687,40.257c-0.035,0.088-0.097,0.149-0.186,0.184
			c-0.065,0.16-0.247,0.205-0.312,0.367c-0.264,0.189-0.519,0.387-0.747,0.612c-0.545,0.383-1.102,0.753-1.681,1.101
			c-1.209,0.649-2.624,1.093-4.235,1.347c-3.33,0.379-6.895-0.408-10.203,0c-0.131,0.016-0.205-0.145-0.104-0.23
			c1.85-1.564,3.94-2.891,6.82-3.442c2.943-0.717,7.07-0.272,10.274-0.734h-28.417c-0.913,0.122-1.784,0.287-2.429,0.674
			c-0.766,0.268-1.408,0.657-1.992,1.102c-0.373,0.142-0.575,0.453-0.934,0.612c-0.246,0.268-0.555,0.473-0.809,0.734
			c-0.566,0.484-1.077,1.023-1.557,1.591c-0.483,0.546-0.865,1.19-1.308,1.776c-0.137,0.375-0.434,0.592-0.559,0.979
			c-0.297,0.238-0.384,0.685-0.685,0.918c-0.336,0.69-0.796,1.258-1.183,1.897c-0.206,0.309-0.381,0.645-0.622,0.918
			c-0.055,0.213-0.194,0.34-0.311,0.49c-0.033,0.09-0.093,0.155-0.125,0.245c0,0.089-0.263,0.194,0,0.184
			c2.61,0.052,21.43,0.116,25.422,0.122c0.298,0.001,2.331-0.03,1.219,1.701c-3.571,6.126-3.284,6.151-3.05,10.774
			c0.016,0.312,0.069,0.822,0.104,1.133c1.228,10.764-7.7,20.024-8.189,20.944c-0.331,0.383-1.861,2.882-1.665,2.873
			c4.335,0.056,16.473,0.294,18.681,0.105c0.225-0.019,0.399-0.204,0.408-0.429c0.939-22.735,5.967-6.404,4.874-42.598
			c-0.005-0.178,0.017-0.354,0.05-0.527c0.483-0.728,0.944-1.478,1.459-2.176c0.323-0.559,0.668-1.099,1.059-1.591
			c0.32-0.563,0.65-1.116,1.059-1.591C205.815,40.204,205.763,40.189,205.687,40.257z M187.624,77.484
			c8.037-8.289-0.959-16.638,7.283-23.434C191.689,61.107,202.01,66.389,187.624,77.484z"/>
		<path fill-rule="evenodd" clip-rule="evenodd" fill="#FFFFFF" d="M240.886,43.294c-0.031-0.088-0.09-0.15-0.121-0.238
			c-0.114-0.146-0.249-0.269-0.302-0.476c-0.234-0.265-0.404-0.592-0.605-0.892c-0.376-0.621-0.823-1.173-1.149-1.843
			c-0.293-0.226-0.377-0.66-0.666-0.892c-0.122-0.376-0.41-0.587-0.543-0.951c-0.43-0.569-0.802-1.194-1.271-1.725
			c-0.467-0.552-0.963-1.076-1.513-1.546c-0.247-0.253-0.547-0.452-0.786-0.713c-0.349-0.155-0.545-0.457-0.908-0.595
			c-0.568-0.433-1.192-0.811-1.936-1.071c-0.626-0.375-1.472-0.536-2.36-0.654h-25.123c3.113,0.449,7.122,0.017,9.982,0.714
			c2.725,0.521,4.722,1.757,6.485,3.225c0.141,0.117,0.039,0.342-0.143,0.322c-3.161-0.346-6.555,0.383-9.728,0.022
			c-1.565-0.246-2.94-0.678-4.115-1.309c-0.562-0.338-1.104-0.698-1.633-1.07c-0.221-0.218-0.469-0.411-0.725-0.595
			c-0.063-0.157-0.24-0.201-0.303-0.356c-0.087-0.033-0.147-0.093-0.181-0.178c-0.073-0.066-0.124-0.052-0.121,0.059
			c0.397,0.462,0.718,0.999,1.029,1.546c0.38,0.479,0.714,1.002,1.029,1.546c0.721,0.977,1.331,2.061,2.057,3.032
			c0.646,1.505,1.087,3.214,0.968,5.472c-0.034,0.296-0.097,0.563-0.144,0.846l-0.012,0.004c-0.351,2.617-1.196,5.074-0.232,7.475
			c0.109,0.271-0.216,0.519-0.447,0.34c-0.886-0.686-1.531-1.427-2.002-2.21c-0.116-0.193-0.413-0.095-0.401,0.13
			c0.148,2.647,0.316,4.955,0.423,6.121c0.161,1.766,0.612,1.419,0.984,1.367c24.968-3.442,21.201,5.687,20.532,6.91
			c-0.619,1.265-1.247,2.282-2.277,2.982c-2.164,1.432-4.067,1.949-6.463,1.514c-2.405-0.441-4.898-1.58-7.486-3.484
			c-2.7-1.913-4.908-4.131-6.798-6.227c-0.133-0.115-0.039,0.05-0.076,0.096c0.086,0.06,0.063,0.131,0.054,0.2
			c0.041,0.132,0.066,0.267,0.108,0.4c0.037,0.269,0.101,0.537,0.159,0.803c0.059,0.532,0.214,1.054,0.227,1.59
			c0.159,0.878,0.22,1.769,0.291,2.657c0.021,0.265,0.021,0.531,0.023,0.797c0.002,0.186,0.028,0.37,0.007,0.558
			c0.036,0.26-0.009,0.529,0.01,0.791c-0.001,0.458-0.052,0.921-0.062,1.38c-0.004,0.16-0.02,0.319-0.043,0.478
			c-0.067,0.467-0.061,0.926-0.196,1.4c0.007,0.275-0.057,0.555-0.131,0.836c-0.014,0.159-0.039,0.318-0.075,0.479
			c-0.046,0.207-0.007,0.428,0.137,0.584c4.306,4.7,12.925,6.012,15.218,6.087c18.774,0.612,24.323-22.693,9.028-27.694
			c-0.006-0.002-0.013-0.003-0.019-0.005c-3.225-0.759-3.717-1.079-9.615-0.987c-0.323,0.005-0.606-0.218-0.67-0.535
			c-0.204-1.021-0.433-2.18-0.565-3.229c-0.2-1.588,1.021-2.994,2.622-2.998c6.57-0.02,18.526-0.068,20.573-0.109
			C241.142,43.482,240.886,43.381,240.886,43.294z M230.159,65.129c0.159-0.261,0.196-0.51,0.346-0.77
			c-0.026-0.124,0.123-0.268,0.097-0.392c0.1-0.069,0.021-0.119,0.095-0.186c-0.035-0.082,0.13-0.17,0.026-0.032
			c-0.223,1.715-0.834,3.471-2.193,5.308c-0.017,0.022-0.036,0.045-0.053,0.067c-1.608,1.871-3.326,2.862-5.099,3.417
			c-0.322,0.147-0.691,0.235-0.988,0.311c-0.12,0.031-0.226,0.07-0.341,0.095c-0.214,0.047-0.45,0.062-0.664,0.1
			c-0.231,0.04-0.456,0.103-0.689,0.132c-0.922,0.078-1.844,0.141-2.781,0.091c-3.655-0.188-7.43-1.34-11.399-4.054
			c-0.149-0.102-0.262-0.258-0.306-0.433c-0.221-0.861-0.358-1.73-0.576-2.592c-0.077-0.48-0.21-0.955-0.296-1.435
			c-0.071-0.236-0.085-0.479-0.176-0.714c0.05-0.122-0.071-0.227-0.044-0.347c-0.033-0.055-0.04-0.113-0.022-0.174
			c-0.09-0.032-0.081-0.208,0.019-0.091c1.044,1.083,2.256,2.147,3.513,3.205c2.181,1.676,4.307,2.916,6.387,3.767
			c0.014,0.005,0.029,0.011,0.043,0.016c1.025,0.352,2.049,0.698,3.052,0.866c0.506,0.118,1,0.145,1.499,0.215
			c0.016,0.002,0.033,0.004,0.049,0.005c0.085,0.006,0.169,0.011,0.253,0.014c1.014,0.039,2.033-0.012,3.026-0.219
			c1.335-0.279,2.641-0.797,3.889-1.767C228.184,68.568,229.602,66.593,230.159,65.129z"/>
	</g>
</g>
</svg>
