<?xml version="1.0" encoding="utf-8"?>
<!-- Generator: Adobe Illustrator 25.1.0, SVG Export Plug-In . SVG Version: 6.00 Build 0)  -->
<svg version="1.1" id="Layer_1" xmlns="http://www.w3.org/2000/svg" xmlns:xlink="http://www.w3.org/1999/xlink" x="0px" y="0px"
	 width="1388px" height="388px" viewBox="0 0 1388 388" enable-background="new 0 0 1388 388" xml:space="preserve">
<path fill="#FFFFFF" d="M851.22,291.066h0.951c0.786,0,1.423-0.637,1.423-1.423V108.357c0-0.786-0.637-1.423-1.423-1.423h-0.951
	c-0.786,0-1.423,0.637-1.423,1.423v181.286C849.797,290.429,850.434,291.066,851.22,291.066z"/>
<path fill-rule="evenodd" clip-rule="evenodd" fill="#FFFFFF" d="M273.854,238.436c0.449,0.366-0.649,1.651-1.172,2.017
	c-0.07,1.081-1.102,1.226-1.172,2.306c-1.285,1.043-1.721,2.919-2.927,4.029c-1.713,3.021-3.746,5.727-5.563,8.637
	c-1.904,2.833-3.817,5.65-5.565,8.641c-1.094,1.234-1.851,2.787-2.932,4.029c-0.898,1.421-2.187,2.455-2.927,4.029
	c-9.312,9.56-19.119,18.631-34.851,21.878c-27.653-0.068-54.635-0.799-82.01-1.153c-1.119,0.055-0.104-0.23-0.291-0.864
	c0.362-0.124,0.602-0.366,0.585-0.86c0.674-0.4,0.687-1.434,1.463-1.723c0.583-1.446,1.429-2.634,2.344-3.749
	c1.602-2.553,3.053-5.254,4.978-7.484c2.846-5.357,6.618-9.807,9.373-15.258c1.995-2.166,3.136-5.169,4.98-7.488
	c1.311-2.834,3.244-5.064,4.391-8.055c3.346-4.871,5.642-10.769,8.497-16.125c4.81-11.684,8.714-24.252,10.543-38.865
	c1.992-14.355,1.817-30.836,1.759-47.21c1.221-16.168,7.52-27.343,14.351-37.999c1.164-1.064,1.844-2.606,2.923-3.744
	c0.723-1.406,2.015-2.247,2.636-3.746c2.119-2.236,4.07-4.636,5.861-7.197c2.174-2.178,3.987-4.718,5.856-7.199
	c1.677-2.67,3.893-4.799,3.806-9.21c-0.671-3.276-3.498-4.427-6.146-5.759c-3.068-0.825-6.195-1.591-9.377-2.302
	c-13.079-0.004-25.835-0.317-38.657-0.574c-1.238,0.047,0-0.445,0-0.864c0.151-0.425,0.434-0.727,0.587-1.153
	c0.553-0.706,1.206-1.304,1.463-2.306c1.134-1.285,1.957-2.866,2.927-4.316c1.821-3.006,3.987-5.678,5.565-8.925
	c1.419-1.093,1.826-3.197,3.223-4.316c0.589-1.821,1.987-2.842,2.632-4.606c2.083-2.753,3.882-5.782,6.152-8.352
	c2.261-2.674,4.661-5.21,7.324-7.484c1.194-1.225,2.649-2.189,3.804-3.451c1.689-0.751,2.64-2.21,4.395-2.88
	c2.748-2.096,5.769-3.925,9.371-5.184c3.033-1.817,7.129-2.594,11.424-3.168h77.613c-15.07,2.174-34.481,0.083-48.325,3.455
	c-14.387,2.748-24.582,9.616-33.683,17.566c16.138-2.553,33.712,1.57,50.081-0.291c7.577-1.193,14.234-3.285,19.92-6.335
	c2.723-1.638,5.346-3.38,7.908-5.18c1.072-1.057,2.27-1.991,3.512-2.878c0.305-0.759,1.164-0.972,1.468-1.725
	c0.419-0.162,0.711-0.449,0.877-0.864c0.355-0.322,0.6-0.253,0.587,0.287c-1.921,2.236-3.476,4.837-4.98,7.486
	c-1.838,2.317-3.459,4.853-4.98,7.484c-3.489,4.727-6.444,9.978-9.958,14.679c-3.125,7.288-5.263,15.557-4.684,26.49
	c1.372,12.177,5.246,21.897,10.543,30.228c2.319,4.44,5.023,8.495,8.199,12.094c1.159,2.217,2.889,3.874,4.397,5.75
	c1.421,1.961,3.481,3.3,5.563,4.606c1.06,0.112,1.953,0.387,2.636,0.868c2.187-0.053,4.68,0.187,6.439-0.289
	c1.155-0.4,2.195-0.915,3.221-1.436c3.065-1.412,4.474-4.436,7.035-6.34c1.808-2.536,4.274-4.431,6.148-6.906
	c4.431-4.38,8.518-9.092,12.884-13.528c4.291-4.519,8.348-9.263,12.883-13.537c1.804-2.544,4.217-4.497,6.146-6.912
	c1.243-0.983,2.124-2.325,3.23-3.451c1.176-0.945,2.195-2.063,2.923-3.455c-19.863-0.051-39.28-0.532-58.86-0.861
	c3.246-5.829,7.171-10.992,10.543-16.7c3.746-5.238,6.889-11.075,10.835-16.121c8.039-10.041,17.83-18.368,31.33-23.029
	c2.198-0.528,4.585-0.864,7.029-1.155h79.347c-15.087,2.536-35.05,0.283-49.495,3.455c-14.998,2.623-25.639,9.516-34.823,17.85
	c12.358-1.953,26.514-0.087,39.218,0.288c10.514-0.224,19.734-1.717,26.945-5.18c3.587-1.753,7.194-3.496,9.956-6.048
	c1.893-0.827,3.102-2.319,4.693-3.455c0.528-0.819,1.659-1.051,2.042-2.012c0.604-0.087,0.574-0.781,1.174-0.864
	c-0.149-0.6,1.141-0.615,0.289-0.287c-0.945,2.427-2.608,4.148-3.506,6.618c-1.409,1.887-2.119,4.448-3.519,6.331
	c-0.723,2.553-2.017,4.549-2.931,6.91c-0.826,2.457-1.936,4.623-2.634,7.197c-3.587,9.533-6.178,20.029-8.207,31.096
	c-4.183,21.984-5.48,46.815-7.901,70.533c0.23,0.528,0.311-0.174,0.294-0.574c0.272-0.215,0.443-0.524,0.583-0.864
	c0.264-0.61,0.894-0.853,0.885-1.73c0.915-0.919,1.119-2.536,2.047-3.455c1.217-2.449,2.697-4.631,4.093-6.91
	c2.774-4.469,5.842-8.658,9.088-12.671c6.497-8.095,13.769-15.436,21.967-21.876c16.019-13.232,35.455-23.103,57.397-30.515
	c2.421,0.5,3.391,2.428,5.565,3.168c1.315,1.497,3.404,2.212,4.693,3.742c1.931,0.881,3.102,2.514,4.978,3.455
	c0.562,0.877,1.595,1.302,2.34,2.013c0.902,0.461,1.179,1.529,2.341,1.729c5.808,5.421,11.739,10.724,16.985,16.7
	c10.603,11.939,19.385,25.663,26.366,41.165c-14.981,0.627-28.868,2.336-41.586,5.184c-6.016,1.764-12.22,3.351-17.87,5.467
	c-5.931,1.853-11.096,4.448-16.696,6.622c-7.356-16.185-16.185-30.915-34.268-36.563c-4.195,7.395-7.391,15.764-9.084,25.624
	c-2.119,9.688-1.153,22.433,1.464,30.802c5.671,17.366,17.104,29.06,32.225,37.14c15.194,8.092,33.923,12.713,56.524,13.53
	c23.256,1.259,45.138-1.315,64.727-4.608c1.234-0.051-0.004,0.447,0,0.859c-0.736-0.047-0.919,0.447-1.174,0.864
	c-0.804,0.553-1.532,1.183-2.344,1.736c-1.383,1.323-2.902,2.519-4.386,3.736c-2.651,2.676-5.786,4.876-8.207,7.778
	c-5.663,4.978-10.62,10.666-15.806,16.117c-0.923,1.791-2.481,2.944-3.519,4.608c-1.336,1.277-2.268,2.957-3.519,4.319
	c-2.348,2.97-4.344,6.28-6.731,9.212c-1.77,3.536-4.302,6.331-5.854,10.071c-1.238,1.485-2.115,3.306-2.932,5.182
	c-1.038,1.574-1.923,3.302-2.638,5.182c-26.171,2.621-55.503,0.889-76.441-5.182c-5.565-1.438-10.837-3.17-15.815-5.182
	c-4.969-1.927-9.879-3.914-14.062-6.616c-4.774-2.225-8.969-5.004-12.888-8.058c-4.285-2.595-7.608-6.148-11.42-9.216
	c-5.829,8.578-11.105,17.687-19.044,24.184c-7.561,6.761-15.926,12.743-28.09,14.968c-27.554-0.068-54.422-0.813-81.702-1.153
	c-0.966,0.213-0.449-0.57,0-0.57c-0.213-0.782,0.581-0.582,0.585-1.153c0.317-0.749,1.061-1.077,1.172-2.021
	c0.998-1.128,1.738-2.506,2.636-3.736c1.834-2.519,3.331-5.361,5.272-7.778c1.629-2.714,3.272-5.42,5.267-7.769
	c0.496-1.629,1.626-2.633,2.349-4.033c0.962-1.166,1.547-2.702,2.636-3.749c0.155-0.821,0.732-1.587,1.172-2.293
	c0.2-0.328,0.347-0.796,0.583-1.153c0.075-0.106,0.545-0.191,0.583-0.289c0.07-0.149-0.087-0.434,0-0.579
	c0.207-0.328,0.689-0.523,0.885-0.86c0.213-0.37,0.066-0.77,0.291-1.149c0.198-0.336,0.681-0.532,0.881-0.868
	c0.208-0.37,0.066-0.77,0.291-1.157c0.219-0.37,0.659-0.438,0.876-0.855c0.2-0.387,0.071-0.77,0.296-1.157
	c0.157-0.272,0.719-0.553,0.877-0.86c0.798-1.523,1.672-3.438,2.636-5.182c3.163-5.433,5.62-11.56,8.199-17.555
	c2.195-6.484,3.987-13.364,5.272-20.733c0.823-7.946,0.653-16.509-0.583-23.893c-1.355-7.21-3.425-13.715-5.857-19.868
	c-1.276-3.063-2.815-5.873-4.104-8.926c-1.704-2.544-2.714-5.774-6.439-6.331c-2.234,0.208-3.333,1.53-4.4,2.88
	c-1.459,0.962-1.574,3.251-2.925,4.321c-1.432,3.291-3.132,6.318-4.983,9.212c-3.113,6.339-6.588,12.33-9.952,18.421
	c-6.697,12.326-13.315,24.724-20.212,36.85c0.036,0.715-0.358,0.494-0.288,0c3.608-6.812,6.771-14.07,9.367-21.88
	c3.017-7.399,5.325-15.493,6.737-24.469c0.313-10.481-3.155-17.24-6.152-24.471c-3.289-6.937-6.884-13.572-10.543-20.146
	c-6.871-13.507-14.662-26.086-17.864-43.186c-0.366-0.706-0.855,0.857-1.463,0.861c-0.192,0.772-0.843,1.094-1.172,1.73
	c-1.03,0.906-1.608,2.257-2.636,3.164c-1.351,2.419-3.063,4.48-4.099,7.199c-2.615,4.915-4.244,10.801-4.397,18.136
	c0.358,14.724,5.687,24.544,9.961,35.414c5.076,10.077,9.92,20.376,14.06,31.372c4.012,10.692,6.984,23.784,5.563,38.867
	c-2.287-4.471-3.585-9.909-5.861-14.394c-1.542-5.101-3.963-9.345-5.563-14.396c-2.387-4.274-3.946-9.362-6.444-13.528
	c-1.787-4.865-4.444-8.875-6.439-13.532c-9.463-17.183-19.514-33.791-33.978-46.06c3.829,10.73,7.425,21.682,9.956,33.683
	c2.296,11.662,2.795,28.636-0.877,39.154c-3.272,11.266-8.95,20.176-16.4,27.349c-1.311,2.357-3.738,3.617-5.563,5.467
	c-1.812,1.77-3.974,3.191-5.861,4.893c-2.353,1.331-4.155,3.199-6.731,4.319c-1.791,1.791-4.527,2.655-6.444,4.319
	c9.194-4.012,20.103-6.34,33.091-6.625c13.594-0.4,24.982,1.362,37.491,2.017c-2.462,1.421-7.92-0.107-10.837,0.868
	c-3.642,0.157-7.963-0.345-11.126,0.289c-7.708,0-14.226,1.174-20.508,2.587c-11.877,3.485-21.393,9.297-29.287,16.7
	c15.798-2.412,33.034,1.732,49.206-0.293C254.838,253.719,265.198,246.924,273.854,238.436 M423.772,54.774
	c-2.174,0.832-3.519,2.489-5.561,3.451c-1.697,1.308-3.485,2.519-5.276,3.748c-0.702,0.474-1.328,1.115-1.753,1.436
	c-0.247,0.187-0.613,0.091-0.881,0.289c-0.821,0.6-1.455,1.751-2.634,2.008c-1.459,1.542-3.306,2.715-4.974,4.038
	c-1.638,1.372-3.114,2.893-4.991,4.027c-3.072,3.027-6.216,5.976-9.365,8.926c-11.445,12.73-22.197,26.141-22.82,49.521
	c0.332,16.655,5.146,28.907,7.32,43.752c3.476,14.992,0.33,32.445-6.148,42.031c-0.213,0.949,0.583,0.447,0.587,0
	c0.432-0.149,0.736-0.43,1.172-0.57c0.485-0.775,1.487-1.038,2.044-1.727c1.525-0.902,2.67-2.178,4.095-3.17
	c2.538-2.302,5.019-4.659,7.32-7.199c4.497-5.263,8.42-11.088,11.109-18.134c5.897-13.492,5.557-33.468,4.685-52.108
	c-1.183-19.165,0.366-37.986,6.152-51.244c3.046-6.701,6.51-12.998,11.135-18.142c1.876-2.955,4.476-5.189,6.744-7.769
	c1.434-0.981,2.358-2.474,3.804-3.455c0.745-0.5,1.259-1.247,2.042-1.725c0.192-0.698,2.136-1.142,1.468-1.73
	C427.632,52.619,425.194,53.189,423.772,54.774 M521.597,82.119c1.145,1.568,2.106,3.302,3.225,4.895
	c2.004,3.404,4.14,6.68,5.859,10.367c3.778,7.022,6.914,14.696,8.195,24.18c0.276,3.463-0.268,6.614,0,9.503
	c5.25-2.049,11.93-2.68,18.746-3.167c2.128,0.5,5.135,0.134,7.323,0.574c2.336,0.013,4.833,1.385,6.735,0.864
	c-6.259-11.211-12.998-21.954-21.972-30.515c-8.595-9.011-18.947-16.3-31.328-21.593C519.291,79.019,520.58,80.436,521.597,82.119
	 M562.018,235.854c-19.419-0.302-36.616-2.774-51.84-7.204c-7.25-2.561-14.474-5.148-20.793-8.633
	c-3.366-1.591-6.25-3.646-9.373-5.467c-2.961-1.983-5.557-4.323-8.497-6.335c-10.131-9.42-18.725-20.365-22.546-35.985
	c-3.276-11.266-2.459-28.357,0.872-38.867c0.264-2.134,1.149-3.668,1.463-5.758c0.685-0.573,0.494-2.012,1.179-2.585
	c-0.251-0.819,0.408-0.749,0.289-1.442c0.553-0.296,0.03-1.507,0-0.291c-6.314,10.5-10.637,22.939-11.135,39.16
	c0.634,17.508,5.791,30.579,13.186,41.454c1.131,2.221,2.782,4.314,4.093,6.037c0.528,0.694,0.945,1.375,1.468,2.017
	c0.97,1.196,2.208,2.31,3.225,3.459c1.097,1.234,2.063,2.561,3.221,3.74c4.74,4.463,9.552,8.845,14.938,12.666
	c21.393,15.249,47.853,25.507,82.593,27.639c5.616-4.076,10.607-8.76,16.108-12.956c2.523-2.31,5.331-4.348,7.91-6.62
	c1.425-0.992,2.565-2.268,4.093-3.17c0.26-0.893,1.383-0.94,1.761-1.723c0.421-0.162,0.715-0.451,0.881-0.864
	c0.638,0.217,1.353-0.792,0.293-0.583C584.912,234.951,573.578,235.513,562.018,235.854 M400.937,214.55
	c-1.621,3.012-4.004,5.28-5.863,8.058c-2.391,2.259-4.455,4.838-7.02,6.914c-0.843,1.477-2.621,2.026-3.51,3.455
	c-0.749,0.396-1.353,0.974-2.051,1.438c-0.026,0.545-0.962,0.196-0.868,0.86c-0.451,0.008-0.97,0.791,0,0.579
	c11.198-0.196,23.209,0.383,33.953-0.289c-2.565-3.812-4.322-8.421-5.859-13.241c-1.731-4.731-2.689-10.22-3.221-16.126
	c-0.017-0.17-0.043-0.34-0.294-0.285C404.681,209.023,402.95,211.92,400.937,214.55 M421.734,245.065
	c-0.906-0.651-1.285-1.817-2.059-2.591c-0.753-0.885-0.936-2.34-2.932-2.021c-0.37,0.021-0.4,0.379-0.876,0.294h-10.25
	c-12.42,0.366-23.899,1.634-33.081,5.182c-4.308,1.995-8.705,3.906-12.29,6.62c-2.025,1.174-3.978,2.412-5.567,4.034
	c-1.181,0.366-1.761,1.328-2.627,2.012c-0.689,0.089-0.545,1-1.46,0.864c-0.066,0.324-0.328,0.451-0.589,0.575
	c-0.066,0.366-0.457,0.591,0.291,0.57c12.273-2.021,26.581-0.025,39.218,0.294c15.47-0.145,26.95-4.217,36.025-10.658
	C424.534,248.256,422.709,247.086,421.734,245.065"/>
<polygon fill="#FFFFFF" points="0,386.539 0,328.573 17.519,328.573 28.036,368.112 38.437,328.573 55.994,328.573 55.994,386.539 
	45.121,386.539 45.121,340.907 33.61,386.539 22.344,386.539 10.875,340.907 10.875,386.539 "/>
<path fill="#FFFFFF" d="M104.156,356.96l-10.951,1.978c-0.37-2.191-1.209-3.833-2.51-4.939c-1.302-1.111-2.998-1.668-5.084-1.668
	c-2.766,0-4.976,0.958-6.618,2.872c-1.651,1.906-2.474,5.106-2.474,9.586c0,4.982,0.836,8.505,2.508,10.56
	c1.678,2.055,3.923,3.085,6.746,3.085c2.108,0,3.838-0.6,5.18-1.8c1.342-1.2,2.295-3.259,2.844-6.187l10.913,1.851
	c-1.132,5.016-3.306,8.794-6.52,11.356c-3.221,2.557-7.529,3.834-12.932,3.834c-6.144,0-11.041-1.94-14.691-5.812
	c-3.651-3.876-5.476-9.237-5.476-16.096c0-6.931,1.834-12.335,5.497-16.194c3.661-3.859,8.618-5.787,14.866-5.787
	c5.116,0,9.179,1.098,12.201,3.289C100.671,349.098,102.837,352.451,104.156,356.96"/>
<polygon fill="#FFFFFF" points="112.976,386.539 112.976,329.041 124.681,329.041 124.681,376.77 153.785,376.77 153.785,386.539 
	"/>
<path fill="#FFFFFF" d="M214.403,386.539h-12.732l-5.061-13.164h-23.175l-4.778,13.164h-12.417l22.578-57.967h12.377
	L214.403,386.539z M192.852,363.606l-7.986-21.512l-7.828,21.512H192.852z"/>
<path fill="#FFFFFF" d="M220.653,386.539v-57.967h24.635c6.195,0,10.697,0.519,13.502,1.557c2.808,1.047,5.057,2.898,6.744,5.557
	c1.689,2.664,2.531,5.71,2.531,9.139c0,4.348-1.28,7.94-3.835,10.773c-2.557,2.834-6.382,4.617-11.467,5.357
	c2.527,1.477,4.619,3.098,6.27,4.863c1.642,1.77,3.865,4.901,6.663,9.412l7.076,11.309h-14l-8.461-12.615
	c-3.006-4.51-5.063-7.348-6.169-8.522c-1.106-1.174-2.283-1.974-3.521-2.412c-1.236-0.434-3.202-0.651-5.895-0.651h-2.37v24.201
	H220.653z M232.356,353.089h8.663c5.616,0,9.118-0.238,10.518-0.715c1.398-0.477,2.491-1.289,3.285-2.455
	c0.787-1.153,1.185-2.608,1.185-4.344c0-1.949-0.524-3.527-1.564-4.732c-1.043-1.191-2.51-1.957-4.41-2.268
	c-0.949-0.132-3.795-0.2-8.539-0.2h-9.137V353.089z"/>
<polygon fill="#FFFFFF" points="279.094,386.539 279.094,328.573 322.08,328.573 322.08,338.376 290.801,338.376 290.801,351.225 
	319.906,351.225 319.906,360.994 290.801,360.994 290.801,376.77 323.186,376.77 323.186,386.539 "/>
<polygon fill="#FFFFFF" points="333.233,386.539 333.233,328.573 344.619,328.573 368.342,367.283 368.342,328.573 379.213,328.573 
	379.213,386.539 367.47,386.539 344.109,348.74 344.109,386.539 "/>
<path fill="#FFFFFF" d="M388.607,367.674l11.381-1.106c0.685,3.825,2.076,6.633,4.174,8.424c2.093,1.795,4.918,2.693,8.484,2.693
	c3.766,0,6.608-0.796,8.522-2.395c1.91-1.595,2.863-3.455,2.863-5.595c0-1.379-0.4-2.54-1.204-3.502
	c-0.804-0.966-2.204-1.795-4.217-2.51c-1.37-0.468-4.488-1.319-9.369-2.527c-6.28-1.561-10.679-3.468-13.211-5.739
	c-3.561-3.187-5.335-7.076-5.335-11.662c0-2.953,0.834-5.714,2.506-8.288c1.677-2.566,4.085-4.523,7.237-5.867
	c3.149-1.345,6.961-2.017,11.411-2.017c7.276,0,12.756,1.595,16.432,4.782c3.676,3.195,5.612,7.446,5.799,12.777l-11.709,0.51
	c-0.502-2.978-1.57-5.118-3.229-6.425c-1.642-1.302-4.114-1.961-7.408-1.961c-3.404,0-6.067,0.702-7.986,2.098
	c-1.243,0.902-1.868,2.097-1.868,3.6c0,1.374,0.587,2.544,1.745,3.519c1.48,1.242,5.063,2.531,10.756,3.871
	c5.697,1.349,9.905,2.74,12.637,4.174c2.732,1.434,4.867,3.404,6.404,5.897c1.548,2.489,2.314,5.565,2.314,9.233
	c0,3.319-0.923,6.433-2.766,9.326c-1.851,2.906-4.459,5.059-7.833,6.467c-3.374,1.412-7.574,2.115-12.615,2.115
	c-7.327,0-12.956-1.689-16.887-5.081C391.708,379.102,389.36,374.167,388.607,367.674"/>
<path fill="#FFFFFF" d="M495.048,365.227v-9.769h25.231v23.09c-2.451,2.374-5.999,4.468-10.649,6.272
	c-4.659,1.804-9.369,2.706-14.139,2.706c-6.067,0-11.356-1.268-15.866-3.817c-4.505-2.54-7.888-6.178-10.156-10.913
	c-2.272-4.731-3.4-9.88-3.4-15.436c0-6.042,1.268-11.402,3.791-16.1c2.532-4.688,6.238-8.288,11.118-10.798
	c3.71-1.914,8.343-2.88,13.879-2.88c7.191,0,12.82,1.511,16.862,4.523c4.046,3.021,6.654,7.194,7.807,12.517l-11.624,2.178
	c-0.813-2.851-2.353-5.097-4.6-6.74c-2.263-1.651-5.076-2.476-8.446-2.476c-5.122,0-9.177,1.621-12.202,4.859
	c-3.017,3.251-4.527,8.058-4.527,14.441c0,6.88,1.528,12.041,4.591,15.479c3.059,3.442,7.059,5.161,12.02,5.161
	c2.451,0,4.914-0.481,7.369-1.443c2.472-0.962,4.583-2.127,6.352-3.502v-7.352H495.048z"/>
<path fill="#FFFFFF" d="M531.111,386.539v-57.967h24.644c6.195,0,10.696,0.519,13.5,1.557c2.808,1.047,5.059,2.898,6.74,5.557
	c1.689,2.664,2.536,5.71,2.536,9.139c0,4.348-1.281,7.94-3.842,10.773c-2.553,2.834-6.369,4.617-11.467,5.357
	c2.536,1.477,4.625,3.098,6.267,4.863c1.651,1.77,3.872,4.901,6.663,9.412l7.08,11.309h-13.998l-8.463-12.615
	c-2.999-4.51-5.059-7.348-6.165-8.522c-1.111-1.174-2.276-1.974-3.523-2.412c-1.238-0.434-3.204-0.651-5.889-0.651h-2.374v24.201
	H531.111z M542.82,353.089h8.667c5.608,0,9.114-0.238,10.509-0.715c1.404-0.477,2.502-1.289,3.289-2.455
	c0.787-1.153,1.179-2.608,1.179-4.344c0-1.949-0.515-3.527-1.557-4.732c-1.043-1.191-2.515-1.957-4.404-2.268
	c-0.953-0.132-3.799-0.2-8.548-0.2h-9.135V353.089z"/>
<path fill="#FFFFFF" d="M587.193,357.914c0-5.906,0.885-10.866,2.642-14.87c1.324-2.953,3.123-5.603,5.395-7.952
	c2.289-2.344,4.787-4.085,7.497-5.216c3.612-1.527,7.778-2.293,12.501-2.293c8.539,0,15.372,2.651,20.495,7.948
	c5.127,5.297,7.692,12.666,7.692,22.103c0,9.361-2.532,16.679-7.629,21.967c-5.089,5.289-11.896,7.927-20.401,7.927
	c-8.616,0-15.479-2.629-20.563-7.889C589.729,374.379,587.193,367.142,587.193,357.914 M599.247,357.514
	c0,6.565,1.519,11.535,4.544,14.93c3.038,3.387,6.884,5.08,11.556,5.08c4.668,0,8.497-1.681,11.479-5.042
	c3-3.361,4.489-8.403,4.489-15.121c0-6.65-1.451-11.602-4.366-14.874c-2.914-3.263-6.782-4.901-11.603-4.901
	c-4.829,0-8.714,1.659-11.662,4.957C600.723,345.856,599.247,350.846,599.247,357.514"/>
<path fill="#FFFFFF" d="M652.473,328.573h11.713v31.392c0,4.986,0.136,8.216,0.43,9.692c0.498,2.374,1.694,4.276,3.574,5.71
	c1.889,1.438,4.463,2.157,7.731,2.157c3.332,0,5.829-0.677,7.514-2.038c1.685-1.353,2.71-3.021,3.055-5.003
	c0.336-1.975,0.506-5.255,0.506-9.85v-32.06h11.705v30.443c0,6.965-0.319,11.884-0.944,14.751c-0.638,2.876-1.804,5.301-3.506,7.276
	c-1.698,1.978-3.974,3.548-6.821,4.727c-2.846,1.166-6.556,1.758-11.147,1.758c-5.535,0-9.739-0.638-12.598-1.915
	c-2.863-1.277-5.122-2.94-6.778-4.982c-1.668-2.047-2.761-4.183-3.289-6.429c-0.766-3.319-1.145-8.22-1.145-14.704V328.573z"/>
<path fill="#FFFFFF" d="M711.04,386.539v-57.967h18.785c7.118,0,11.756,0.281,13.913,0.868c3.327,0.864,6.105,2.757,8.343,5.676
	c2.238,2.914,3.361,6.671,3.361,11.288c0,3.561-0.643,6.552-1.932,8.973c-1.289,2.425-2.94,4.327-4.918,5.718
	c-1.995,1.382-4.025,2.297-6.076,2.748c-2.795,0.553-6.85,0.826-12.139,0.826h-7.638v21.869H711.04z M722.74,338.376v16.445h6.408
	c4.617,0,7.697-0.293,9.254-0.911c1.553-0.6,2.774-1.544,3.663-2.842c0.876-1.289,1.319-2.795,1.319-4.506
	c0-2.11-0.621-3.846-1.855-5.216c-1.242-1.37-2.808-2.23-4.71-2.574c-1.4-0.268-4.204-0.396-8.424-0.396H722.74z"/>
<g>
	<g>
		<path fill="#FFFFFF" d="M1215.392,327.578c-0.562,0.163-1.124,0.319-1.687,0.463c-0.565,0.144-1.077,0.307-1.536,0.489
			c-0.46,0.179-0.792,0.486-1,0.92c-0.204,0.434-0.364,1.112-0.486,2.035c-0.118,0.92-0.23,1.878-0.332,2.872
			c-0.102,0.993-0.22,1.936-0.358,2.821c-0.137,0.885-0.326,1.508-0.562,1.869c-1.025,1.591-1.904,3.354-2.635,5.287
			c-0.735,1.936-1.204,3.903-1.409,5.909c-0.204,2.006-0.112,3.977,0.281,5.909c0.393,1.936,1.204,3.696,2.431,5.287l1.485,0.597
			l-0.307,1.572c-0.412,0.147-0.735,0.208-0.974,0.192c-0.24-0.019-0.45-0.073-0.639-0.163c-0.188-0.089-0.377-0.173-0.562-0.246
			c-0.188-0.07-0.402-0.089-0.642-0.054c-0.374,0.073-0.706,0.211-0.997,0.409c-0.291,0.198-0.623,0.297-0.997,0.297
			c-0.648-0.687-1.377-1.057-2.175-1.112c-0.805-0.054-1.623,0.035-2.456,0.272c-0.837,0.236-1.658,0.514-2.46,0.84
			c-0.802,0.326-1.527,0.524-2.175,0.597c-0.648,0.07-1.185-0.064-1.61-0.409c-0.428-0.342-0.674-1.073-0.744-2.194
			c-0.032-0.543,0.077-0.923,0.335-1.137c0.256-0.217,0.578-0.38,0.971-0.489c0.393-0.109,0.792-0.208,1.204-0.3
			c0.409-0.089,0.747-0.278,1.022-0.569c0.684-0.687,1.073-1.581,1.179-2.683c0.102-1.102,0.153-2.105,0.153-3.009
			c-0.035-1.265-0.121-2.511-0.259-3.741c-0.134-1.23-0.287-2.456-0.46-3.686c-0.032-0.291-0.24-0.885-0.613-1.789
			c-0.377-0.904-0.837-1.945-1.383-3.118c-0.546-1.176-1.134-2.415-1.763-3.715c-0.632-1.3-1.246-2.511-1.843-3.632
			s-1.134-2.079-1.613-2.875c-0.479-0.795-0.802-1.265-0.971-1.409c-0.479-0.399-0.923-0.569-1.332-0.514
			c-0.409,0.054-0.853,0.099-1.329,0.134c-0.479,0.035-1.009-0.089-1.588-0.38c-0.581-0.288-1.281-0.993-2.099-2.115
			c-0.409-0.54-0.505-0.939-0.281-1.191c0.22-0.252,0.588-0.434,1.099-0.543c0.511-0.109,1.083-0.188,1.715-0.243
			c0.633-0.054,1.153-0.153,1.562-0.3c0.885-0.323,1.712-0.514,2.482-0.569c0.767-0.054,1.517-0.045,2.252,0.029
			c0.731,0.07,1.501,0.169,2.303,0.297s1.664,0.208,2.584,0.243c1.16,0.038,2.182,0.102,3.07,0.192
			c0.888,0.089,1.827,0.099,2.814,0.026c0.853-0.035,1.725-0.188,2.613-0.46c0.885-0.272,1.773-0.505,2.661-0.706
			c0.885-0.198,1.757-0.278,2.61-0.243c0.853,0.035,1.69,0.345,2.508,0.923c0.307-0.109,0.741-0.137,1.306-0.083
			c0.562,0.054,1.089,0.188,1.584,0.406c0.495,0.217,0.904,0.498,1.23,0.84c0.323,0.345,0.418,0.751,0.281,1.22
			C1216.443,327.173,1215.957,327.419,1215.392,327.578z M1207.767,332.948c-0.393-1.102-1.032-2.07-1.92-2.9
			c-0.102-0.073-0.272-0.182-0.511-0.326c-0.24-0.144-0.495-0.297-0.767-0.46c-0.275-0.163-0.54-0.316-0.795-0.463
			c-0.256-0.144-0.434-0.252-0.537-0.323c-0.102-0.073-0.147-0.272-0.128-0.597c0.016-0.326,0.032-0.661,0.051-1.003
			c0.016-0.345,0.016-0.652,0-0.923c-0.019-0.272-0.096-0.406-0.23-0.406c-0.172,0-0.307,0.198-0.409,0.597
			c-0.102,0.396-0.198,0.84-0.281,1.329c-0.086,0.486-0.182,0.93-0.284,1.326c-0.102,0.399-0.236,0.617-0.409,0.652
			c-0.716,0.109-1.322,0.217-1.818,0.326c-0.492,0.109-0.885,0.291-1.176,0.543c-0.291,0.252-0.479,0.632-0.562,1.137
			c-0.086,0.508-0.077,1.23,0.026,2.169c0.102,0.939,0.281,1.709,0.537,2.303c0.255,0.597,0.537,1.15,0.843,1.655
			c0.307,0.508,0.623,1.022,0.949,1.546c0.323,0.524,0.588,1.185,0.792,1.977c0.102,0.364,0.332,0.914,0.69,1.655
			c0.361,0.741,0.77,1.383,1.23,1.926c0.46,0.54,0.92,0.856,1.383,0.949c0.46,0.089,0.843-0.316,1.15-1.22
			c0.169-0.508,0.256-1.032,0.256-1.575c0-0.575,0.102-1.118,0.307-1.626c0.307-0.795,0.642-1.581,1-2.357s0.62-1.581,0.792-2.412
			C1208.217,335.216,1208.16,334.05,1207.767,332.948z"/>
		<path fill="#FFFFFF" d="M1251.832,338.803c-0.118,0.054-0.255,0.054-0.409,0c-0.153-0.054-0.3-0.128-0.434-0.217
			c-0.137-0.089-0.24-0.172-0.307-0.243c-0.275-0.326-0.486-0.687-0.642-1.086c-0.153-0.396-0.287-0.795-0.409-1.191
			c-0.118-0.399-0.24-0.795-0.358-1.195c-0.118-0.396-0.281-0.738-0.486-1.029c-0.684-0.939-1.409-1.843-2.175-2.712
			c-0.767-0.866-1.492-1.77-2.175-2.709c-3.07-0.578-5.469-0.77-7.19-0.572c-1.725,0.201-2.952,0.795-3.686,1.789
			c-0.735,0.997-1.067,2.396-0.997,4.204c0.067,1.808,0.339,4.012,0.818,6.615c0.102,0.648,0.428,1.003,0.974,1.057
			c0.543,0.054,1.14-0.045,1.789-0.3c0.648-0.252,1.281-0.578,1.894-0.974c0.617-0.399,1.077-0.706,1.383-0.923
			c0.236-0.179,0.434-0.668,0.588-1.463s0.323-1.6,0.511-2.412c0.188-0.815,0.428-1.482,0.719-2.006
			c0.287-0.524,0.671-0.607,1.15-0.246c0.511,0.361,0.802,0.923,0.872,1.68c0.067,0.76,0.051,1.575-0.051,2.44
			c-0.105,0.869-0.24,1.728-0.412,2.575c-0.169,0.85-0.271,1.546-0.307,2.089c0,0.613,0.035,1.211,0.102,1.789
			c0.07,0.578,0.147,1.156,0.23,1.734c0.086,0.578,0.153,1.175,0.204,1.789c0.051,0.616,0.061,1.249,0.026,1.897l-1.329,0.217
			c-0.172-0.109-0.46-0.351-0.872-0.732c-0.409-0.38-0.859-0.805-1.354-1.275c-0.495-0.47-0.955-0.92-1.383-1.354
			c-0.425-0.434-0.709-0.741-0.843-0.923h-1.383c-0.92-0.648-1.655-0.792-2.201-0.431c-0.546,0.361-0.93,1.038-1.15,2.032
			c-0.224,0.993-0.307,2.178-0.256,3.552c0.051,1.374,0.204,2.747,0.46,4.121c0.255,1.374,0.578,2.638,0.971,3.795
			c0.393,1.156,0.827,1.971,1.307,2.44c0.24,0.252,0.597,0.406,1.073,0.46c0.479,0.054,0.981,0.064,1.511,0.026
			c0.53-0.035,1.057-0.07,1.588-0.109c0.527-0.035,0.961-0.016,1.303,0.054c0.275-0.214,0.607-0.431,1-0.648
			c0.39-0.217,0.802-0.415,1.227-0.597c0.428-0.179,0.853-0.332,1.281-0.46c0.425-0.128,0.808-0.246,1.15-0.355
			c0.648-0.757,1.23-1.508,1.741-2.249c0.511-0.741,0.981-1.482,1.409-2.223c0.425-0.741,0.843-1.517,1.252-2.332
			c0.409-0.811,0.853-1.687,1.332-2.629c0.99-0.252,1.715-0.115,2.175,0.406c0.46,0.527,0.725,1.284,0.792,2.278
			c0.067,0.997-0.01,2.134-0.23,3.418c-0.224,1.281-0.485,2.53-0.792,3.741c-0.307,1.211-0.623,2.293-0.949,3.252
			c-0.323,0.958-0.553,1.616-0.69,1.98c-0.546,0.144-0.981,0.153-1.306,0.026c-0.323-0.128-0.597-0.297-0.818-0.514
			c-0.224-0.217-0.434-0.434-0.639-0.652c-0.204-0.217-0.46-0.342-0.77-0.38c-0.476-0.035-1.099-0.061-1.865-0.08
			c-0.77-0.019-1.562-0.026-2.38-0.026c-0.786,0-1.546,0.016-2.277,0.051c-0.735,0.038-1.322,0.093-1.766,0.163l-1.179-0.486
			c-0.546,0.431-1.322,0.703-2.329,0.811s-2.079,0.118-3.223,0.029c-1.144-0.089-2.246-0.227-3.303-0.409
			c-1.057-0.179-1.91-0.361-2.559-0.54c-0.374,0.326-0.971,0.604-1.789,0.84c-0.821,0.236-1.632,0.371-2.434,0.406
			c-0.802,0.035-1.501-0.089-2.095-0.38c-0.597-0.287-0.862-0.811-0.795-1.572c0.409-0.505,0.827-0.859,1.255-1.057
			c0.425-0.198,0.853-0.342,1.278-0.434c0.428-0.089,0.837-0.179,1.23-0.272c0.393-0.089,0.757-0.297,1.099-0.623
			c0.342-0.326,0.623-1.236,0.846-2.737c0.22-1.498,0.383-3.306,0.485-5.421c0.102-2.115,0.144-4.383,0.128-6.804
			c-0.019-2.421-0.112-4.718-0.281-6.887c-0.172-2.169-0.402-4.066-0.69-5.692c-0.291-1.626-0.642-2.693-1.051-3.201
			c-0.409-0.47-0.888-0.693-1.434-0.677c-0.546,0.019-1.057,0.029-1.533,0.029c-0.444,0-0.827-0.118-1.153-0.355
			c-0.323-0.233-0.486-0.875-0.486-1.923c0-0.613,0.246-1.092,0.741-1.437c0.495-0.342,1.128-0.597,1.894-0.76
			c0.77-0.163,1.62-0.262,2.559-0.297s1.853-0.054,2.741-0.054c0.885,0,1.706,0,2.456,0c0.747,0,1.329-0.035,1.738-0.109
			c0.786,0.543,1.578,0.914,2.38,1.112c0.802,0.198,1.604,0.291,2.405,0.272s1.623-0.128,2.46-0.326
			c0.834-0.198,1.696-0.425,2.584-0.677c0.374-0.109,0.732-0.128,1.073-0.054s0.683,0.182,1.025,0.326
			c0.339,0.144,0.68,0.281,1.022,0.406c0.342,0.128,0.684,0.192,1.022,0.192c0.616,0.035,1.144-0.038,1.588-0.217
			c0.444-0.182,0.878-0.326,1.306-0.434c0.425-0.109,0.869-0.089,1.329,0.054c0.463,0.144,1.016,0.543,1.664,1.191
			c0.067,0.109,0.153,0.479,0.255,1.112c0.102,0.632,0.188,1.418,0.255,2.361c0.07,0.939,0.128,1.952,0.179,3.035
			c0.051,1.083,0.096,2.105,0.128,3.063c0.035,0.958,0.045,1.789,0.026,2.495c-0.016,0.703-0.042,1.147-0.077,1.329
			C1252.046,338.63,1251.953,338.749,1251.832,338.803z"/>
		<path fill="#FFFFFF" d="M1296.948,361.601c-0.172,0.508-0.46,0.949-0.872,1.329c-0.409,0.38-0.862,0.671-1.354,0.869
			c-0.495,0.198-0.898,0.208-1.204,0.026c-0.409-0.252-0.792-0.351-1.15-0.297c-0.358,0.054-0.693,0.134-1,0.243
			s-0.613,0.198-0.92,0.272c-0.307,0.073-0.613,0.019-0.923-0.163l-6.293-0.974c-0.377,0-0.837,0.099-1.383,0.297
			c-0.546,0.198-1.099,0.38-1.664,0.543c-0.562,0.163-1.099,0.262-1.61,0.297c-0.514,0.035-0.904-0.109-1.179-0.434
			c-0.546-0.035-1.041-0.099-1.482-0.188c-0.444-0.089-0.923-0.192-1.434-0.3c-0.377-0.07-0.923-0.08-1.639-0.026
			c-0.715,0.054-1.482,0.128-2.303,0.217c-0.818,0.089-1.629,0.182-2.431,0.272c-0.802,0.089-1.476,0.134-2.022,0.134
			c-1.431,0-2.875,0.093-4.325,0.272c-1.45,0.182-2.926,0.307-4.427,0.38c-0.68,0.035-1.271-0.01-1.763-0.137
			c-0.495-0.125-0.846-0.297-1.051-0.514c-0.204-0.217-0.255-0.489-0.153-0.811c0.102-0.326,0.428-0.671,0.974-1.032
			c0.374-0.252,0.894-0.543,1.559-0.869c0.664-0.323,1.306-0.629,1.92-0.92c0.613-0.287,1.118-0.514,1.511-0.677
			c0.39-0.163,0.517-0.208,0.383-0.137c0.476-0.252,0.99-0.93,1.536-2.032c0.543-1.102,1.124-2.45,1.738-4.041
			c0.616-1.588,1.236-3.306,1.869-5.149c0.632-1.843,1.262-3.632,1.894-5.366c0.629-1.738,1.246-3.309,1.843-4.718
			c0.597-1.409,1.15-2.46,1.661-3.146c0.105-0.792,0.233-1.661,0.386-2.6s0.339-1.881,0.562-2.821
			c0.22-0.939,0.485-1.843,0.792-2.712c0.307-0.866,0.668-1.642,1.077-2.329c0.374-0.616,0.808-1.013,1.303-1.195
			c0.495-0.179,0.99-0.188,1.485-0.026s0.946,0.46,1.358,0.894c0.409,0.434,0.716,0.958,0.92,1.572
			c0.169,0.543,0.393,1.057,0.664,1.546c0.275,0.486,0.546,0.968,0.821,1.434c0.272,0.473,0.517,0.952,0.741,1.437
			c0.22,0.489,0.367,0.987,0.434,1.492c0.137,0.869,0.24,1.754,0.307,2.658c0.07,0.904,0.153,1.808,0.255,2.709
			c0.102,0.904,0.256,1.792,0.463,2.658c0.204,0.869,0.527,1.699,0.971,2.495c0.24,0.47,0.511,1.201,0.818,2.194
			c0.307,0.997,0.642,2.115,1,3.364c0.358,1.246,0.725,2.53,1.099,3.849c0.377,1.319,0.76,2.546,1.153,3.686
			c0.39,1.137,0.802,2.086,1.227,2.846c0.428,0.76,0.846,1.191,1.255,1.3c0.409,0.109,0.92,0.147,1.536,0.109
			c0.613-0.035,1.227-0.054,1.84-0.054c0.616,0,1.185,0.054,1.715,0.163c0.53,0.109,0.945,0.345,1.255,0.706
			C1297.031,360.626,1297.117,361.096,1296.948,361.601z M1280.571,352.791c-0.275-0.668-0.674-1.182-1.204-1.546
			c-0.53-0.361-1.169-0.585-1.92-0.677c-0.751-0.089-1.604-0.134-2.559-0.134c-0.444,0-0.741,0.125-0.894,0.38
			c-0.153,0.252-0.402,0.377-0.744,0.377c-0.24,0-0.444-0.054-0.613-0.163c-0.169-0.109-0.377-0.163-0.613-0.163
			c-0.715-0.035-1.367,0.182-1.945,0.652c-0.581,0.47-1.048,1.057-1.409,1.763c-0.358,0.703-0.578,1.463-0.664,2.278
			c-0.086,0.811-0.026,1.543,0.179,2.194c0.137,0.326,0.505,0.696,1.102,1.112c0.594,0.415,1.252,0.85,1.968,1.3
			c0.719,0.454,1.393,0.933,2.022,1.437c0.632,0.508,1.032,1.013,1.204,1.517c0.134,0.434,0.236,0.527,0.307,0.272
			c0.067-0.252,0.144-0.623,0.23-1.112c0.086-0.486,0.204-0.974,0.358-1.463c0.153-0.489,0.367-0.751,0.642-0.786
			c0.92-0.109,1.706-0.153,2.354-0.134c0.645,0.016,1.16-0.064,1.533-0.246c0.377-0.179,0.648-0.559,0.821-1.137
			c0.169-0.578,0.255-1.556,0.255-2.929C1280.98,354.391,1280.843,353.462,1280.571,352.791z M1276.859,344.278
			c0.118-0.594,0.102-1.227-0.051-1.897c-0.153-0.668-0.367-1.335-0.639-2.006c-0.275-0.668-0.444-1.31-0.514-1.923
			c-0.613-0.795-1.099-1.211-1.457-1.249c-0.358-0.035-0.668,0.118-0.923,0.463c-0.255,0.342-0.476,0.776-0.664,1.3
			s-0.418,0.949-0.69,1.275c0,0.035-0.035,0.233-0.102,0.594c-0.07,0.364-0.153,0.76-0.256,1.195s-0.224,1.013-0.361,1.734
			c-0.169,0.361-0.307,0.687-0.409,0.977c-0.102,0.287-0.144,0.54-0.128,0.757c0.016,0.217,0.128,0.406,0.332,0.569
			c0.204,0.163,0.546,0.3,1.025,0.409c0.102,0,0.339,0.035,0.716,0.109c0.377,0.07,0.597,0.109,0.664,0.109
			c0.31-0.038,0.693-0.147,1.153-0.326c0.46-0.182,0.827-0.361,1.099-0.543C1276.339,345.39,1276.738,344.875,1276.859,344.278z"/>
		<path fill="#FFFFFF" d="M1336.126,358.863c0.016,0.489-0.121,0.984-0.409,1.492c-0.291,0.505-0.648,0.993-1.077,1.463
			c-0.425,0.47-0.741,0.869-0.945,1.195c-1.093,0.323-1.945,0.594-2.559,0.811c-0.613,0.217-1.108,0.38-1.485,0.489
			c-0.377,0.109-0.674,0.153-0.894,0.134c-0.224-0.019-0.486-0.089-0.795-0.217c-0.307-0.125-0.716-0.307-1.227-0.54
			c-0.511-0.236-1.246-0.517-2.201-0.84c-0.613-0.834-1.092-1.792-1.434-2.875c-0.342-1.083-0.604-2.204-0.792-3.36
			c-0.188-1.156-0.316-2.313-0.383-3.472c-0.07-1.156-0.102-2.258-0.102-3.306c-0.035-1.3-0.24-2.233-0.617-2.792
			c-0.374-0.559-0.843-0.939-1.405-1.14c-0.562-0.198-1.204-0.297-1.92-0.297c-0.716,0-1.415-0.109-2.099-0.326
			c-0.377-0.109-0.802-0.208-1.278-0.297c-0.479-0.089-0.872-0.153-1.179-0.192c-0.307-0.035-0.479-0.051-0.511-0.051
			c-0.102,0.757-0.23,1.75-0.383,2.98s-0.275,2.514-0.361,3.849c-0.083,1.338-0.128,2.622-0.128,3.849
			c0,1.195,0.086,2.134,0.259,2.821c0.169,0.652,0.476,1.166,0.92,1.546c0.444,0.377,0.888,0.696,1.332,0.949
			c0.441,0.252,0.834,0.495,1.176,0.732c0.342,0.233,0.511,0.549,0.511,0.949l-0.818,1.191c-0.751,0.291-1.725,0.39-2.916,0.3
			c-1.195-0.093-2.415-0.192-3.661-0.3c-1.246-0.109-2.44-0.153-3.584-0.134c-1.144,0.019-2.054,0.281-2.738,0.786
			c-0.204,0.144-0.47,0.134-0.792-0.029c-0.326-0.163-0.658-0.387-1-0.677c-0.339-0.287-0.639-0.594-0.894-0.92
			c-0.255-0.326-0.402-0.597-0.434-0.815l0.409-1.029c0.648,0.035,1.281-0.083,1.894-0.355s1.169-0.648,1.664-1.137
			c0.492-0.489,0.901-1.057,1.227-1.709c0.326-0.648,0.485-1.319,0.485-2.006c0-0.974,0.026-2.175,0.077-3.606
			c0.051-1.425,0.086-2.955,0.102-4.581c0.019-1.626,0.019-3.297,0-5.015c-0.016-1.715-0.067-3.36-0.153-4.932
			c-0.083-1.575-0.22-3.019-0.409-4.338s-0.454-2.396-0.792-3.226c-0.307-0.795-0.664-1.374-1.077-1.734
			c-0.409-0.361-0.837-0.607-1.278-0.731c-0.444-0.128-0.878-0.201-1.306-0.217c-0.425-0.019-0.811-0.083-1.15-0.192
			c-0.342-0.109-0.632-0.307-0.872-0.594c-0.24-0.291-0.374-0.779-0.409-1.466c-0.035-0.396,0.255-0.712,0.872-0.949
			c0.613-0.233,1.39-0.406,2.329-0.514c0.936-0.109,1.977-0.173,3.121-0.188c1.144-0.019,2.233-0.01,3.274,0.026
			c1.041,0.035,1.971,0.099,2.792,0.188c0.818,0.093,1.364,0.172,1.635,0.246c0.275-0.182,0.642-0.307,1.102-0.38
			c0.46-0.07,0.843-0.019,1.15,0.163c0.514-0.252,1.006-0.387,1.485-0.406c0.476-0.019,0.955,0.026,1.434,0.134
			c0.476,0.109,0.961,0.252,1.457,0.434s1.032,0.326,1.613,0.434c0.648,0.144,1.22,0.297,1.715,0.46
			c0.492,0.163,0.981,0.345,1.457,0.543c0.479,0.198,0.974,0.396,1.485,0.594c0.511,0.201,1.073,0.409,1.69,0.626
			c0.476,0.179,0.92,0.307,1.329,0.377c0.409,0.073,0.821,0.201,1.23,0.38c0.578,0.217,1.067,0.779,1.457,1.68
			c0.393,0.904,0.674,1.897,0.846,2.983c0.169,1.083,0.211,2.14,0.128,3.172c-0.086,1.029-0.316,1.779-0.69,2.249
			c-0.172,0.217-0.648,0.671-1.434,1.358c-0.786,0.687-1.623,1.399-2.507,2.14c-0.888,0.741-1.68,1.428-2.38,2.06
			c-0.7,0.632-1.051,1.022-1.051,1.166l0.463,0.597c1.262,1.227,2.258,2.61,2.993,4.146c0.731,1.536,1.39,3.019,1.971,4.446
			c0.578,1.428,1.166,2.683,1.766,3.769c0.594,1.083,1.39,1.754,2.38,2.006l2.303-1.358
			C1335.775,357.934,1336.107,358.374,1336.126,358.863z M1323.253,337.934c0.514-1.029,0.802-2.067,0.872-3.118
			c0.067-1.048-0.121-2.067-0.565-3.063c-0.441-0.993-1.211-1.942-2.303-2.846c-0.307-0.252-0.648-0.46-1.022-0.623
			c-0.377-0.163-0.741-0.297-1.099-0.406c-0.361-0.109-0.719-0.217-1.077-0.326c-0.358-0.109-0.69-0.252-0.997-0.434
			c-0.275-0.179-0.54-0.326-0.795-0.434c-0.255-0.109-0.537-0.163-0.843-0.163c-0.581,0-1.076,0.211-1.485,0.626
			c-0.409,0.415-0.786,0.859-1.124,1.329c-0.786,1.048-1.255,1.913-1.409,2.6s-0.163,1.303-0.026,1.843
			c0.137,0.543,0.316,1.067,0.537,1.575c0.224,0.505,0.335,1.118,0.335,1.843c0,0.288-0.026,0.578-0.077,0.866
			c-0.054,0.291-0.08,0.578-0.08,0.869c0,0.252,0.061,0.559,0.182,0.92c0.118,0.364,0.246,0.732,0.383,1.112
			c0.134,0.38,0.256,0.731,0.358,1.057c0.102,0.326,0.134,0.543,0.102,0.652c0.546-0.035,1.073-0.045,1.588-0.029
			c0.511,0.019,1.089-0.006,1.738-0.08c0.479-0.035,0.923-0.109,1.332-0.217c0.409-0.109,0.802-0.217,1.175-0.326
			c0.377-0.109,0.751-0.188,1.128-0.243c0.374-0.054,0.767-0.064,1.176-0.029C1322.078,339.95,1322.742,338.966,1323.253,337.934z"
			/>
		<path fill="#FFFFFF" d="M1364.657,352.114c-0.24,1.083-0.562,2.134-0.971,3.143c-0.412,1.013-0.827,1.945-1.255,2.792
			c-0.428,0.85-0.674,1.511-0.741,1.98c-0.444,0.434-1.016,0.93-1.715,1.492c-0.699,0.559-1.46,1.083-2.277,1.572
			c-0.818,0.489-1.671,0.904-2.559,1.246c-0.888,0.345-1.757,0.524-2.61,0.543c-0.853,0.019-1.648-0.163-2.38-0.543
			c-0.735-0.377-1.358-1.057-1.869-2.032c-1.093-0.434-2.041-0.559-2.84-0.38c-0.802,0.182-1.505,0.47-2.099,0.869
			c-0.597,0.396-1.128,0.805-1.588,1.22c-0.46,0.412-0.878,0.623-1.255,0.623c-0.134,0-0.272-0.048-0.409-0.137
			c-0.137-0.089-0.22-0.208-0.255-0.351l-0.256-0.923c-0.102-0.323-0.179-0.949-0.23-1.869c-0.051-0.923-0.07-1.971-0.051-3.146
			c0.016-1.172,0.067-2.412,0.153-3.712c0.086-1.303,0.204-2.504,0.358-3.606s0.342-2.041,0.562-2.821
			c0.224-0.776,0.489-1.236,0.795-1.38c0.476-0.217,0.878-0.192,1.201,0.08c0.326,0.272,0.591,0.642,0.795,1.112
			c0.204,0.47,0.374,0.974,0.511,1.517c0.134,0.543,0.256,0.977,0.358,1.303c0.648,2.06,1.466,3.859,2.456,5.392
			c0.99,1.54,2.124,2.667,3.405,3.389c1.278,0.725,2.712,0.977,4.296,0.76c1.588-0.217,3.335-1.048,5.248-2.495
			c0.751-1.552,1.108-2.91,1.073-4.066c-0.035-1.156-0.332-2.159-0.894-3.009c-0.562-0.85-1.338-1.572-2.329-2.169
			s-2.067-1.118-3.226-1.572c-1.16-0.45-2.345-0.859-3.555-1.22c-1.211-0.361-2.348-0.722-3.405-1.083
			c-0.818,0.323-1.594,0.371-2.329,0.134c-0.732-0.233-1.415-0.652-2.048-1.246c-0.629-0.597-1.201-1.319-1.712-2.169
			c-0.514-0.85-0.939-1.734-1.281-2.658s-0.607-1.818-0.792-2.683c-0.188-0.869-0.265-1.626-0.23-2.278
			c0-0.073,0.077-0.342,0.23-0.815c0.153-0.47,0.323-0.984,0.511-1.543c0.188-0.562,0.358-1.086,0.511-1.575
			c0.153-0.486,0.265-0.821,0.332-1.003c0.31-0.939,0.99-1.833,2.047-2.683c1.057-0.85,2.236-1.562,3.533-2.14
			c1.297-0.578,2.61-0.984,3.942-1.22c1.329-0.236,2.405-0.208,3.223,0.08c0.272,0.109,0.486,0.291,0.639,0.543
			s0.3,0.524,0.434,0.815c0.137,0.287,0.284,0.569,0.438,0.84s0.383,0.46,0.69,0.569c0.648,0.252,1.236,0.307,1.766,0.163
			c0.527-0.144,1.032-0.361,1.508-0.652c0.479-0.287,0.949-0.578,1.409-0.866c0.46-0.291,0.965-0.434,1.511-0.434
			c0.307,0.252,0.527,0.795,0.664,1.626c0.134,0.831,0.214,1.798,0.23,2.9s-0.026,2.268-0.128,3.498s-0.265,2.351-0.485,3.36
			c-0.224,1.013-0.495,1.853-0.821,2.52c-0.323,0.671-0.674,1.003-1.048,1.003c-0.479,0-0.725-0.089-0.741-0.268
			c-0.019-0.182-0.061-0.47-0.128-0.869c-0.275-1.626-0.565-2.881-0.872-3.769c-0.307-0.885-0.699-1.626-1.175-2.223
			c-0.479-0.594-1.077-1.156-1.792-1.68c-0.716-0.524-1.623-1.255-2.712-2.194c-1.128,0-2.261,0.045-3.405,0.134
			c-1.144,0.093-2.115,0.374-2.916,0.84c-0.802,0.473-1.313,1.185-1.536,2.143c-0.22,0.958,0.061,2.268,0.846,3.929
			c0.272,0.652,0.562,1.067,0.869,1.249s0.623,0.281,0.946,0.297c0.326,0.019,0.648,0.019,0.974,0
			c0.323-0.016,0.674,0.064,1.048,0.246c0.342,0.179,0.581,0.431,0.719,0.757c0.134,0.326,0.339,0.597,0.613,0.815
			c0.169,0.144,0.393,0.252,0.664,0.326c0.275,0.07,0.572,0.144,0.898,0.217c0.323,0.07,0.645,0.144,0.971,0.214
			c0.323,0.073,0.607,0.182,0.843,0.326c0.581,0.326,1.118,0.533,1.613,0.623c0.495,0.093,0.946,0.137,1.358,0.137
			c0.441,0,0.818,0,1.124,0c0.342,0,0.632,0.073,0.872,0.217l3.734,3.686c0.137,0.939,0.428,1.808,0.872,2.603
			c0.441,0.795,0.799,1.645,1.073,2.546C1364.878,349.999,1364.897,351.027,1364.657,352.114z"/>
	</g>
	<path fill-rule="evenodd" clip-rule="evenodd" fill="#FFFFFF" d="M1184.622,82.416c-0.203,0.508-0.56,0.86-1.073,1.057
		c-0.372,0.923-1.424,1.183-1.797,2.113c-1.521,1.086-2.988,2.229-4.3,3.524c-3.136,2.204-6.349,4.337-9.683,6.343
		c-6.962,3.736-15.113,6.296-24.391,7.757c-19.18,2.181-39.711-2.348-58.76-0.002c-0.757,0.093-1.182-0.835-0.599-1.327
		c10.654-9.01,22.691-16.652,39.281-19.822c16.952-4.129,40.719-1.568,59.172-4.23h-163.665c-5.259,0.703-10.274,1.655-13.988,3.879
		c-4.41,1.542-8.109,3.782-11.474,6.348c-2.149,0.82-3.314,2.608-5.382,3.527c-1.415,1.545-3.196,2.725-4.658,4.225
		c-3.261,2.785-6.2,5.89-8.969,9.164c-2.779,3.147-4.983,6.856-7.533,10.227c-0.79,2.159-2.501,3.409-3.222,5.639
		c-1.712,1.37-2.209,3.947-3.947,5.285c-1.933,3.975-4.584,7.247-6.814,10.928c-1.188,1.777-2.196,3.712-3.584,5.285
		c-0.315,1.227-1.115,1.959-1.792,2.824c-0.188,0.521-0.534,0.891-0.719,1.412c0,0.513-1.516,1.115,0,1.058
		c15.03,0.302,123.425,0.666,146.416,0.701c1.714,0.003,13.425-0.173,7.023,9.796c-20.564,35.284-18.916,35.424-17.568,62.049
		c0.091,1.799,0.397,4.735,0.601,6.525c7.071,61.991-44.348,115.324-47.164,120.623c-1.905,2.207-10.718,16.601-9.592,16.545
		c24.968,0.322,94.874,1.691,107.591,0.602c1.294-0.111,2.297-1.175,2.351-2.472c5.408-130.94,34.366-36.883,28.073-245.335
		c-0.031-1.027,0.096-2.037,0.288-3.034c2.782-4.195,5.439-8.513,8.403-12.53c1.863-3.222,3.848-6.327,6.099-9.164
		c1.841-3.243,3.746-6.428,6.098-9.166C1185.356,82.106,1185.057,82.022,1184.622,82.416z M1080.588,296.815
		c46.29-47.741-5.523-95.826,41.943-134.963C1104,202.497,1163.443,232.917,1080.588,296.815z"/>
	<path fill-rule="evenodd" clip-rule="evenodd" fill="#FFFFFF" d="M1387.345,99.905c-0.18-0.506-0.516-0.865-0.698-1.371
		c-0.658-0.84-1.435-1.551-1.741-2.744c-1.349-1.528-2.328-3.409-3.482-5.135c-2.167-3.576-4.742-6.755-6.62-10.617
		c-1.688-1.3-2.172-3.804-3.835-5.135c-0.7-2.167-2.363-3.381-3.13-5.479c-2.478-3.276-4.619-6.879-7.319-9.936
		c-2.69-3.181-5.545-6.198-8.713-8.903c-1.42-1.458-3.151-2.604-4.526-4.105c-2.009-0.893-3.14-2.63-5.229-3.426
		c-3.27-2.493-6.863-4.67-11.148-6.167c-3.608-2.161-8.48-3.085-13.59-3.769h-144.689c17.928,2.586,41.019,0.099,57.489,4.11
		c15.696,2.999,27.197,10.118,37.347,18.572c0.811,0.676,0.224,1.967-0.826,1.852c-18.207-1.99-37.75,2.204-56.029,0.125
		c-9.014-1.419-16.933-3.907-23.698-7.537c-3.239-1.949-6.36-4.021-9.407-6.162c-1.275-1.258-2.7-2.369-4.178-3.424
		c-0.362-0.904-1.384-1.156-1.746-2.053c-0.499-0.192-0.846-0.534-1.043-1.027c-0.423-0.382-0.714-0.301-0.699,0.342
		c2.285,2.66,4.136,5.755,5.925,8.906c2.187,2.756,4.115,5.773,5.925,8.903c4.15,5.624,7.666,11.87,11.846,17.463
		c3.718,8.67,6.261,18.508,5.573,31.513c-0.193,1.707-0.556,3.245-0.83,4.872l-0.067,0.023c-2.024,15.071-6.887,29.222-1.336,43.051
		c0.626,1.56-1.243,2.987-2.572,1.958c-5.102-3.951-8.817-8.218-11.532-12.731c-0.67-1.114-2.38-0.55-2.308,0.748
		c0.853,15.243,1.82,28.536,2.435,35.255c0.93,10.171,3.525,8.171,5.67,7.875c143.798-19.824,122.103,32.754,118.251,39.798
		c-3.567,7.288-7.18,13.141-13.112,17.176c-12.465,8.249-23.423,11.227-37.224,8.718c-13.854-2.538-28.209-9.098-43.113-20.065
		c-15.548-11.017-28.266-23.793-39.149-35.863c-0.765-0.66-0.224,0.288-0.437,0.551c0.495,0.344,0.362,0.754,0.313,1.151
		c0.235,0.763,0.381,1.537,0.621,2.304c0.214,1.551,0.579,3.09,0.913,4.625c0.338,3.063,1.23,6.068,1.307,9.158
		c0.916,5.059,1.267,10.186,1.678,15.302c0.123,1.527,0.122,3.06,0.135,4.592c0.009,1.074,0.161,2.131,0.038,3.216
		c0.208,1.498-0.05,3.049,0.06,4.557c-0.004,2.638-0.297,5.303-0.36,7.945c-0.022,0.923-0.117,1.84-0.249,2.754
		c-0.388,2.689-0.353,5.336-1.127,8.061c0.039,1.581-0.326,3.194-0.756,4.813c-0.08,0.913-0.223,1.833-0.43,2.759
		c-0.267,1.194-0.04,2.464,0.787,3.366c24.797,27.07,74.441,34.626,87.646,35.057c108.123,3.522,140.083-130.699,51.996-159.498
		c-0.035-0.01-0.072-0.02-0.107-0.03c-18.573-4.37-21.409-6.215-55.376-5.686c-1.86,0.029-3.491-1.258-3.856-3.082
		c-1.177-5.878-2.496-12.556-3.256-18.599c-1.15-9.146,5.883-17.241,15.101-17.269c37.841-0.115,106.698-0.391,118.489-0.628
		C1388.818,100.988,1387.345,100.403,1387.345,99.905z M1325.562,225.661c0.916-1.502,1.128-2.935,1.99-4.435
		c-0.148-0.716,0.707-1.541,0.558-2.257c0.578-0.397,0.119-0.688,0.548-1.071c-0.204-0.471,0.747-0.981,0.148-0.187
		c-1.283,9.88-4.802,19.988-12.629,30.569c-0.1,0.126-0.207,0.26-0.307,0.385c-9.262,10.778-19.156,16.486-29.366,19.679
		c-1.854,0.848-3.977,1.351-5.693,1.789c-0.691,0.176-1.304,0.401-1.966,0.546c-1.23,0.273-2.591,0.358-3.827,0.578
		c-1.331,0.233-2.625,0.592-3.966,0.759c-5.308,0.451-10.62,0.814-16.016,0.524c-21.053-1.081-42.791-7.717-65.651-23.346
		c-0.859-0.588-1.507-1.487-1.765-2.496c-1.27-4.958-2.06-9.966-3.32-14.928c-0.443-2.764-1.207-5.498-1.705-8.265
		c-0.409-1.36-0.491-2.758-1.012-4.113c0.288-0.705-0.408-1.306-0.253-2c-0.188-0.318-0.229-0.653-0.125-1.001
		c-0.519-0.186-0.465-1.196,0.108-0.523c6.012,6.239,12.993,12.363,20.23,18.458c12.564,9.65,24.808,16.795,36.785,21.695
		c0.083,0.031,0.165,0.062,0.248,0.093c5.903,2.027,11.802,4.018,17.578,4.989c2.914,0.679,5.759,0.835,8.635,1.24
		c0.094,0.013,0.19,0.024,0.285,0.031c0.487,0.037,0.973,0.064,1.457,0.082c5.838,0.222,11.708-0.067,17.427-1.26
		c7.689-1.604,15.208-4.591,22.399-10.177C1314.188,245.463,1322.354,234.091,1325.562,225.661z"/>
</g>
</svg>
