<svg xmlns="http://www.w3.org/2000/svg" width="73.459" height="62.965" viewBox="0 0 73.459 62.965"><g transform="translate(-266.816 -384.817)"><path d="M302.923,447.62a1.235,1.235,0,0,0,.619.162,1.219,1.219,0,0,0,.655-.19l27.287-15.729a18.186,18.186,0,0,0,0-31.144l-27.325-15.742h0a1.252,1.252,0,0,0-.612-.161,1.27,1.27,0,0,0-.63.175L275.606,400.72a18.193,18.193,0,0,0,0,31.153l27.319,15.735Z" transform="translate(0 0)" fill="#07447a"/><g transform="translate(283.778 395.885)"><path d="M280.829,427.37a.284.284,0,0,1,.011-.516,58.047,58.047,0,0,1,21.2-3.773,59.519,59.519,0,0,1,19.066,2.991l.007.008a.3.3,0,0,1,.187.291.3.3,0,0,1-.142.27h.007s-5.56,3.195-5.652,3.243a.645.645,0,0,1-.528.007,46.514,46.514,0,0,0-19.738-4.008,55.438,55.438,0,0,0-13.545,1.629.829.829,0,0,1-.528,0c-.1-.032-.343-.143-.343-.143" transform="translate(-280.67 -390.245)" fill="#ffeb4e"/><path d="M282.459,396.765a.3.3,0,0,1-.175-.287.32.32,0,0,1,.131-.267s4.324-2.522,4.543-2.656a.8.8,0,0,1,.778-.034,39.246,39.246,0,0,0,16.714,3.459,53.254,53.254,0,0,0,12.386-1.28.514.514,0,0,1,.346.014c.1.042.1.051.3.128a.242.242,0,0,1,.127.224.249.249,0,0,1-.134.223,44.888,44.888,0,0,1-17.5,3.6,48.025,48.025,0,0,1-17.512-3.124" transform="translate(-280.496 -393.436)" fill="#ffeb4e"/></g><g transform="translate(276.24 406.71)"><path d="M285.543,417.417c.465-.443.809-1.435.8-3.085l.019-.439a.281.281,0,0,1,.122-.234l0-.01,2.673-1.479a.454.454,0,0,1,.233-.073.439.439,0,0,1,.431.426l0,.02v7.577a.539.539,0,0,1-.123.38.616.616,0,0,1-.336.138c-1.131.147-3.653.515-5.014.543-.311.009-.647.019-1.023.019-3.611,0-8.012-.936-8.012-6.079v-5.736c0-5.509,4.127-6.212,8.092-6.212a43.4,43.4,0,0,1,4.895.315.527.527,0,0,1,.331.142.471.471,0,0,1,.126.375l-.3,1.683a.614.614,0,0,1-.119.3.414.414,0,0,1-.337.148c-1.966-.134-3.484-.157-5.028-.124s-3.993.069-4.071,2.863c-.076,2.758-.121,4.263-.064,5.658.082,2.016.56,2.784,1.708,3.331a5.555,5.555,0,0,0,3.4.281A2.717,2.717,0,0,0,285.543,417.417Z" transform="translate(-275.324 -403.175)" fill="#fff"/><path d="M311.8,419.871a9.8,9.8,0,0,0,5.682,1.369,4.565,4.565,0,0,0,1.739-.288c.42-.187,2.983-1.815,3.193-1.957a.517.517,0,0,0,.267-.556c-.022-.2-.189-.281-.419-.259l-.166.012c-1.1.089-2.554.2-4.126.2l-.019,0a7.717,7.717,0,0,1-3.5-.517c-.8-.456-1.187-1.148-1.273-2.933-.081-1.669-.061-3.583-.043-5.073a4.033,4.033,0,0,1,.84-2.727,3.759,3.759,0,0,1,2.286-.985,5.493,5.493,0,0,1,3.213.5c.679.455,1.164,1.256,1.165,2.848v.146a.38.38,0,0,0,.4.4.473.473,0,0,0,.276-.1l2.168-1.187.041-.032a.433.433,0,0,0,.126-.311l0-4.236a.5.5,0,0,0-.124-.372.539.539,0,0,0-.336-.139c-1.094-.146-3.136-.433-4.536-.463-.311-.011-.65-.014-1.029-.014a15.657,15.657,0,0,0-2.527.2,7.028,7.028,0,0,0-3.992,1.764,5.765,5.765,0,0,0-1.491,4.27v5.514a5.61,5.61,0,0,0,2.2,4.925" transform="translate(-268.506 -403.172)" fill="#fff"/><path d="M303.525,417.582a.166.166,0,0,1-.145.168s-2.3.057-4.157.064c-1.785.007-3.383-.524-3.579-2.7-.2-2.275,1.235-2.788,2.582-2.926,1.391-.143,2.893-.136,5.138-.184a.16.16,0,0,1,.161.16Zm-9.279-12.012a.394.394,0,0,0-.178.324.377.377,0,0,0,.378.378.656.656,0,0,0,.065-.006,37.016,37.016,0,0,1,5.682-.12c1.3.148,3.219.739,3.259,3.119,0,0-3.646.012-5.949.194-2.352.185-5.671,1.293-5.671,5.225,0,4.4,3.239,6.481,7.779,6.24,3.736-.2,6.859-.5,6.859-.5l.136-.014a.493.493,0,0,0,.432-.491V409.14a5.373,5.373,0,0,0-4.5-5.56,14.822,14.822,0,0,0-3.13-.339c-.42,0-.886.007-1.08.017a.772.772,0,0,0-.373.105Z" transform="translate(-271.993 -403.168)" fill="#fff"/></g></g></svg>