<?xml version="1.0" encoding="utf-8"?>
<!-- Generator: Adobe Illustrator 25.1.0, SVG Export Plug-In . SVG Version: 6.00 Build 0)  -->
<svg version="1.1" id="Layer_1" xmlns="http://www.w3.org/2000/svg" xmlns:xlink="http://www.w3.org/1999/xlink" x="0px" y="0px"
	 width="150px" height="75px" viewBox="0 0 150 75" enable-background="new 0 0 150 75" xml:space="preserve">
<g>
	<path fill="#003764" d="M91.991,47.45h0.103c0.085,0,0.154-0.069,0.154-0.154V27.704c0-0.085-0.069-0.154-0.154-0.154h-0.103
		c-0.085,0-0.154,0.069-0.154,0.154v19.591C91.837,47.381,91.906,47.45,91.991,47.45z"/>
	<path fill-rule="evenodd" clip-rule="evenodd" fill="#003764" d="M29.595,41.762c0.049,0.04-0.07,0.178-0.127,0.218
		c-0.008,0.117-0.119,0.132-0.127,0.249c-0.139,0.113-0.186,0.315-0.316,0.435c-0.185,0.326-0.405,0.619-0.601,0.933
		c-0.206,0.306-0.412,0.611-0.601,0.934c-0.118,0.133-0.2,0.301-0.317,0.435c-0.097,0.154-0.236,0.265-0.316,0.435
		c-1.006,1.033-2.066,2.013-3.766,2.364c-2.988-0.007-5.904-0.086-8.863-0.125c-0.121,0.006-0.011-0.025-0.031-0.093
		c0.039-0.013,0.065-0.04,0.063-0.093c0.073-0.043,0.074-0.155,0.158-0.186c0.063-0.156,0.154-0.285,0.253-0.405
		c0.173-0.276,0.33-0.568,0.538-0.809c0.308-0.579,0.715-1.06,1.013-1.649c0.216-0.234,0.339-0.559,0.538-0.809
		c0.142-0.306,0.351-0.547,0.475-0.87c0.362-0.526,0.61-1.164,0.918-1.743c0.52-1.263,0.942-2.621,1.139-4.2
		c0.215-1.551,0.196-3.332,0.19-5.102c0.132-1.747,0.813-2.955,1.551-4.107c0.126-0.115,0.199-0.282,0.316-0.405
		c0.078-0.152,0.218-0.243,0.285-0.405c0.229-0.242,0.44-0.501,0.633-0.778c0.235-0.235,0.431-0.51,0.633-0.778
		c0.181-0.289,0.421-0.519,0.411-0.995c-0.073-0.354-0.378-0.478-0.664-0.622c-0.332-0.089-0.669-0.172-1.013-0.249
		c-1.413,0-2.792-0.034-4.178-0.062c-0.134,0.005,0-0.048,0-0.093c0.016-0.046,0.047-0.079,0.063-0.125
		c0.06-0.076,0.13-0.141,0.158-0.249c0.123-0.139,0.211-0.31,0.316-0.466c0.197-0.325,0.431-0.614,0.601-0.965
		c0.153-0.118,0.197-0.345,0.348-0.466c0.064-0.197,0.215-0.307,0.284-0.498c0.225-0.298,0.42-0.625,0.665-0.903
		c0.244-0.289,0.504-0.563,0.791-0.809c0.129-0.132,0.286-0.237,0.411-0.373c0.183-0.081,0.285-0.239,0.475-0.311
		c0.297-0.227,0.623-0.424,1.013-0.56c0.328-0.196,0.77-0.28,1.235-0.342h8.388c-1.629,0.235-3.726,0.009-5.222,0.373
		c-1.555,0.297-2.657,1.039-3.64,1.898c1.744-0.276,3.643,0.17,5.412-0.031c0.819-0.129,1.538-0.355,2.153-0.685
		c0.294-0.177,0.578-0.365,0.855-0.56c0.116-0.114,0.245-0.215,0.38-0.311c0.033-0.082,0.126-0.105,0.159-0.186
		c0.045-0.018,0.077-0.049,0.095-0.093c0.038-0.035,0.065-0.027,0.063,0.031c-0.208,0.242-0.376,0.523-0.538,0.809
		c-0.199,0.25-0.374,0.524-0.538,0.809c-0.377,0.511-0.696,1.078-1.076,1.586c-0.338,0.788-0.569,1.681-0.506,2.863
		c0.148,1.316,0.567,2.366,1.139,3.267c0.251,0.48,0.543,0.918,0.886,1.307c0.125,0.24,0.312,0.419,0.475,0.621
		c0.154,0.212,0.376,0.357,0.601,0.498c0.115,0.012,0.211,0.042,0.285,0.094c0.236-0.006,0.506,0.02,0.696-0.031
		c0.125-0.043,0.237-0.099,0.348-0.155c0.331-0.153,0.484-0.479,0.76-0.685c0.195-0.274,0.462-0.479,0.664-0.746
		c0.479-0.473,0.921-0.983,1.392-1.462c0.464-0.488,0.902-1.001,1.392-1.463c0.195-0.275,0.456-0.486,0.664-0.747
		c0.134-0.106,0.23-0.251,0.349-0.373c0.127-0.102,0.237-0.223,0.316-0.373c-2.147-0.006-4.245-0.057-6.361-0.093
		c0.351-0.63,0.775-1.188,1.139-1.805c0.405-0.566,0.744-1.197,1.171-1.742c0.869-1.085,1.927-1.985,3.386-2.489
		c0.238-0.057,0.495-0.093,0.76-0.125h8.575c-1.63,0.274-3.788,0.031-5.349,0.373c-1.621,0.283-2.771,1.028-3.763,1.929
		c1.336-0.211,2.865-0.009,4.238,0.031c1.136-0.024,2.133-0.186,2.912-0.56c0.388-0.189,0.777-0.378,1.076-0.654
		c0.205-0.089,0.335-0.251,0.507-0.373c0.057-0.089,0.179-0.114,0.221-0.217c0.065-0.009,0.062-0.084,0.127-0.093
		c-0.016-0.065,0.123-0.066,0.031-0.031c-0.102,0.262-0.282,0.448-0.379,0.715c-0.152,0.204-0.229,0.481-0.38,0.684
		c-0.078,0.276-0.218,0.492-0.317,0.747c-0.089,0.266-0.209,0.5-0.285,0.778c-0.388,1.03-0.668,2.165-0.887,3.361
		c-0.452,2.376-0.592,5.059-0.854,7.622c0.025,0.057,0.034-0.019,0.032-0.062c0.029-0.023,0.048-0.057,0.063-0.093
		c0.029-0.066,0.097-0.092,0.096-0.187c0.099-0.099,0.121-0.274,0.221-0.373c0.132-0.265,0.291-0.5,0.442-0.747
		c0.3-0.483,0.631-0.936,0.982-1.369c0.702-0.875,1.488-1.668,2.374-2.364c1.731-1.43,3.832-2.497,6.203-3.298
		c0.262,0.054,0.366,0.262,0.601,0.342c0.142,0.162,0.368,0.239,0.507,0.404c0.209,0.095,0.335,0.272,0.538,0.373
		c0.061,0.095,0.172,0.141,0.253,0.218c0.097,0.05,0.127,0.165,0.253,0.187c0.628,0.586,1.269,1.159,1.836,1.805
		c1.146,1.29,2.095,2.773,2.849,4.449c-1.619,0.068-3.12,0.252-4.494,0.56c-0.65,0.191-1.321,0.362-1.931,0.591
		c-0.641,0.2-1.199,0.481-1.804,0.716c-0.795-1.749-1.749-3.341-3.703-3.951c-0.453,0.799-0.799,1.704-0.982,2.769
		c-0.229,1.047-0.125,2.424,0.158,3.329c0.613,1.877,1.848,3.14,3.483,4.014c1.642,0.874,3.666,1.374,6.109,1.462
		c2.513,0.136,4.878-0.142,6.995-0.498c0.133-0.006,0,0.048,0,0.093c-0.08-0.005-0.099,0.048-0.127,0.093
		c-0.087,0.06-0.166,0.128-0.253,0.188c-0.149,0.143-0.314,0.272-0.474,0.404c-0.286,0.289-0.625,0.527-0.887,0.841
		c-0.612,0.538-1.148,1.153-1.708,1.742c-0.1,0.194-0.268,0.318-0.38,0.498c-0.144,0.138-0.245,0.32-0.38,0.467
		c-0.254,0.321-0.469,0.679-0.727,0.996c-0.191,0.382-0.465,0.684-0.633,1.088c-0.134,0.16-0.229,0.357-0.317,0.56
		c-0.112,0.17-0.208,0.357-0.285,0.56c-2.828,0.283-5.998,0.096-8.261-0.56c-0.601-0.155-1.171-0.343-1.709-0.56
		c-0.537-0.208-1.068-0.423-1.52-0.715c-0.516-0.24-0.969-0.541-1.393-0.871c-0.463-0.28-0.822-0.664-1.234-0.996
		c-0.63,0.927-1.2,1.911-2.058,2.614c-0.817,0.731-1.721,1.377-3.036,1.618c-2.978-0.007-5.881-0.088-8.829-0.125
		c-0.104,0.023-0.049-0.062,0-0.062c-0.023-0.085,0.063-0.063,0.063-0.125c0.034-0.081,0.115-0.116,0.127-0.218
		c0.108-0.122,0.188-0.271,0.285-0.404c0.198-0.272,0.36-0.579,0.57-0.841c0.176-0.293,0.354-0.586,0.569-0.84
		c0.054-0.176,0.176-0.285,0.254-0.436c0.104-0.126,0.167-0.292,0.285-0.405c0.017-0.089,0.079-0.172,0.127-0.248
		c0.022-0.035,0.037-0.086,0.063-0.125c0.008-0.011,0.059-0.021,0.063-0.031c0.008-0.016-0.009-0.047,0-0.063
		c0.022-0.035,0.074-0.057,0.096-0.093c0.023-0.04,0.007-0.083,0.031-0.124c0.021-0.036,0.074-0.057,0.095-0.094
		c0.022-0.04,0.007-0.083,0.031-0.125c0.024-0.04,0.071-0.047,0.095-0.092c0.022-0.042,0.008-0.083,0.032-0.125
		c0.017-0.029,0.078-0.06,0.095-0.093c0.086-0.165,0.181-0.372,0.285-0.56c0.342-0.587,0.607-1.249,0.886-1.897
		c0.237-0.701,0.431-1.444,0.57-2.241c0.089-0.859,0.071-1.784-0.063-2.582c-0.146-0.779-0.37-1.482-0.633-2.147
		c-0.138-0.331-0.304-0.635-0.444-0.965c-0.184-0.275-0.293-0.624-0.696-0.684c-0.241,0.022-0.36,0.165-0.476,0.311
		c-0.158,0.104-0.17,0.351-0.316,0.467c-0.155,0.356-0.338,0.683-0.539,0.996c-0.336,0.685-0.712,1.332-1.076,1.991
		c-0.724,1.332-1.439,2.672-2.184,3.982c0.004,0.077-0.039,0.053-0.031,0c0.39-0.736,0.732-1.521,1.012-2.365
		c0.326-0.8,0.575-1.674,0.728-2.644c0.034-1.133-0.341-1.863-0.665-2.645c-0.355-0.75-0.744-1.467-1.139-2.177
		c-0.743-1.46-1.585-2.819-1.931-4.667c-0.04-0.076-0.092,0.093-0.158,0.093c-0.021,0.083-0.091,0.118-0.127,0.187
		c-0.111,0.098-0.174,0.244-0.285,0.342c-0.146,0.261-0.331,0.484-0.443,0.778c-0.283,0.531-0.459,1.167-0.475,1.96
		c0.039,1.591,0.615,2.652,1.076,3.827c0.549,1.089,1.072,2.202,1.519,3.39c0.434,1.155,0.755,2.57,0.601,4.2
		c-0.247-0.483-0.387-1.071-0.633-1.556c-0.167-0.551-0.428-1.01-0.601-1.556c-0.258-0.462-0.426-1.012-0.696-1.462
		c-0.193-0.526-0.48-0.959-0.696-1.462c-1.023-1.857-2.109-3.652-3.672-4.978c0.414,1.16,0.802,2.343,1.076,3.64
		c0.248,1.26,0.302,3.095-0.095,4.231c-0.354,1.218-0.967,2.18-1.772,2.956c-0.142,0.255-0.404,0.391-0.601,0.591
		c-0.196,0.191-0.429,0.345-0.633,0.529c-0.254,0.144-0.449,0.346-0.727,0.467c-0.194,0.194-0.489,0.287-0.696,0.467
		c0.994-0.434,2.173-0.685,3.576-0.716c1.469-0.043,2.7,0.147,4.052,0.218c-0.266,0.154-0.856-0.012-1.171,0.094
		c-0.394,0.017-0.861-0.037-1.202,0.031c-0.833,0-1.537,0.127-2.216,0.28c-1.284,0.377-2.312,1.005-3.165,1.805
		c1.707-0.261,3.57,0.187,5.318-0.032C27.54,43.413,28.66,42.679,29.595,41.762 M45.797,21.914c-0.235,0.09-0.38,0.269-0.601,0.373
		c-0.183,0.141-0.377,0.272-0.57,0.405c-0.076,0.051-0.144,0.12-0.189,0.155c-0.027,0.02-0.066,0.01-0.095,0.031
		c-0.089,0.065-0.157,0.189-0.285,0.217c-0.158,0.167-0.357,0.293-0.538,0.436c-0.177,0.148-0.337,0.313-0.539,0.435
		c-0.332,0.327-0.672,0.646-1.012,0.965c-1.237,1.376-2.399,2.825-2.466,5.352c0.036,1.8,0.556,3.124,0.791,4.728
		c0.376,1.62,0.036,3.506-0.664,4.542c-0.023,0.103,0.063,0.048,0.063,0c0.047-0.016,0.08-0.046,0.127-0.062
		c0.052-0.084,0.161-0.112,0.221-0.187c0.165-0.097,0.289-0.235,0.443-0.343c0.274-0.249,0.542-0.503,0.791-0.778
		c0.486-0.569,0.91-1.198,1.201-1.96c0.637-1.458,0.601-3.617,0.506-5.631c-0.128-2.071,0.04-4.105,0.665-5.538
		c0.329-0.724,0.704-1.405,1.203-1.961c0.203-0.319,0.484-0.561,0.729-0.84c0.155-0.106,0.255-0.267,0.411-0.373
		c0.081-0.054,0.136-0.135,0.221-0.186c0.021-0.075,0.231-0.123,0.159-0.187C46.214,21.681,45.95,21.742,45.797,21.914
		 M56.369,24.869c0.124,0.169,0.228,0.357,0.349,0.529c0.217,0.368,0.447,0.722,0.633,1.12c0.408,0.759,0.747,1.588,0.886,2.613
		c0.03,0.374-0.029,0.715,0,1.027c0.567-0.221,1.289-0.29,2.026-0.342c0.23,0.054,0.555,0.014,0.791,0.062
		c0.252,0.001,0.522,0.15,0.728,0.093c-0.676-1.212-1.405-2.373-2.374-3.298c-0.929-0.974-2.048-1.762-3.386-2.334
		C56.119,24.534,56.259,24.687,56.369,24.869 M60.737,41.483c-2.099-0.033-3.957-0.3-5.602-0.779
		c-0.784-0.277-1.564-0.556-2.247-0.933c-0.364-0.172-0.675-0.394-1.013-0.591c-0.32-0.214-0.601-0.467-0.918-0.685
		c-1.095-1.018-2.024-2.201-2.437-3.889c-0.354-1.218-0.266-3.065,0.094-4.2c0.029-0.231,0.124-0.396,0.158-0.622
		c0.074-0.062,0.053-0.217,0.127-0.279c-0.027-0.089,0.044-0.081,0.031-0.156c0.06-0.032,0.003-0.163,0-0.031
		c-0.682,1.135-1.15,2.479-1.203,4.232c0.069,1.892,0.626,3.305,1.425,4.48c0.122,0.24,0.301,0.466,0.442,0.652
		c0.057,0.075,0.102,0.149,0.159,0.218c0.105,0.129,0.239,0.25,0.349,0.374c0.119,0.133,0.223,0.277,0.348,0.404
		c0.512,0.482,1.032,0.956,1.614,1.369c2.312,1.648,5.171,2.757,8.926,2.987c0.607-0.44,1.146-0.947,1.741-1.4
		c0.273-0.25,0.576-0.47,0.855-0.715c0.154-0.107,0.277-0.245,0.442-0.343c0.028-0.097,0.149-0.102,0.19-0.186
		c0.046-0.018,0.077-0.049,0.095-0.093c0.069,0.023,0.146-0.086,0.032-0.063C63.211,41.385,61.986,41.446,60.737,41.483
		 M43.329,39.181c-0.175,0.326-0.433,0.571-0.634,0.871c-0.258,0.244-0.481,0.523-0.759,0.747c-0.091,0.16-0.283,0.219-0.379,0.373
		c-0.081,0.043-0.146,0.105-0.222,0.155c-0.003,0.059-0.104,0.021-0.094,0.093c-0.049,0.001-0.105,0.085,0,0.063
		c1.21-0.021,2.508,0.041,3.669-0.031c-0.277-0.412-0.467-0.91-0.633-1.431c-0.187-0.511-0.291-1.104-0.348-1.743
		c-0.002-0.018-0.005-0.037-0.032-0.031C43.734,38.583,43.546,38.896,43.329,39.181 M45.576,42.478
		c-0.098-0.07-0.139-0.196-0.223-0.28c-0.081-0.096-0.101-0.253-0.317-0.218c-0.04,0.002-0.043,0.041-0.095,0.032h-1.108
		c-1.342,0.04-2.583,0.177-3.575,0.56c-0.466,0.216-0.941,0.422-1.328,0.715c-0.219,0.127-0.43,0.261-0.602,0.436
		c-0.128,0.04-0.19,0.144-0.284,0.217c-0.074,0.01-0.059,0.108-0.158,0.093c-0.007,0.035-0.035,0.049-0.064,0.062
		c-0.007,0.04-0.049,0.064,0.031,0.062c1.326-0.218,2.873-0.003,4.238,0.032c1.672-0.016,2.912-0.456,3.893-1.152
		C45.879,42.823,45.682,42.697,45.576,42.478"/>
	<polygon fill="#003764" points="0,57.767 0,51.503 1.893,51.503 3.03,55.776 4.154,51.503 6.051,51.503 6.051,57.767 4.876,57.767 
		4.876,52.836 3.632,57.767 2.415,57.767 1.175,52.836 1.175,57.767 	"/>
	<path fill="#003764" d="M11.256,54.571l-1.183,0.214c-0.04-0.237-0.131-0.414-0.271-0.534c-0.141-0.12-0.324-0.18-0.549-0.18
		c-0.299,0-0.538,0.104-0.715,0.31c-0.178,0.206-0.267,0.552-0.267,1.036c0,0.538,0.09,0.919,0.271,1.141
		c0.181,0.222,0.424,0.333,0.729,0.333c0.228,0,0.415-0.065,0.56-0.195c0.145-0.13,0.248-0.352,0.307-0.669l1.179,0.2
		c-0.122,0.542-0.357,0.95-0.705,1.227c-0.348,0.276-0.814,0.414-1.398,0.414c-0.664,0-1.193-0.21-1.588-0.628
		c-0.395-0.419-0.592-0.998-0.592-1.739c0-0.749,0.198-1.333,0.594-1.75c0.396-0.417,0.931-0.625,1.607-0.625
		c0.553,0,0.992,0.119,1.319,0.355C10.879,53.721,11.114,54.083,11.256,54.571"/>
	<polygon fill="#003764" points="12.209,57.767 12.209,51.553 13.474,51.553 13.474,56.712 16.619,56.712 16.619,57.767 	"/>
	<path fill="#003764" d="M23.17,57.767h-1.376l-0.547-1.423h-2.505l-0.516,1.423h-1.342l2.44-6.264h1.338L23.17,57.767z
		 M20.841,55.289l-0.863-2.325l-0.846,2.325H20.841z"/>
	<path fill="#003764" d="M23.846,57.767v-6.264h2.662c0.669,0,1.156,0.056,1.459,0.168c0.303,0.113,0.547,0.313,0.729,0.601
		c0.183,0.288,0.274,0.617,0.274,0.988c0,0.47-0.138,0.858-0.414,1.164c-0.276,0.306-0.69,0.499-1.239,0.579
		c0.273,0.16,0.499,0.335,0.678,0.526c0.177,0.191,0.418,0.53,0.72,1.017l0.765,1.222h-1.513l-0.914-1.363
		c-0.325-0.487-0.547-0.794-0.667-0.921c-0.12-0.127-0.247-0.213-0.381-0.261c-0.134-0.047-0.346-0.07-0.637-0.07h-0.256v2.615
		L23.846,57.767L23.846,57.767z M25.111,54.152h0.936c0.607,0,0.985-0.026,1.137-0.077c0.151-0.052,0.269-0.139,0.355-0.265
		c0.085-0.125,0.128-0.282,0.128-0.469c0-0.211-0.057-0.381-0.169-0.511c-0.113-0.129-0.271-0.211-0.477-0.245
		c-0.103-0.014-0.41-0.022-0.923-0.022h-0.987L25.111,54.152L25.111,54.152z"/>
	<polygon fill="#003764" points="30.161,57.767 30.161,51.503 34.807,51.503 34.807,52.562 31.427,52.562 31.427,53.951 
		34.572,53.951 34.572,55.007 31.427,55.007 31.427,56.712 34.926,56.712 34.926,57.767 	"/>
	<polygon fill="#003764" points="36.012,57.767 36.012,51.503 37.243,51.503 39.806,55.686 39.806,51.503 40.981,51.503 
		40.981,57.767 39.712,57.767 37.188,53.682 37.188,57.767 	"/>
	<path fill="#003764" d="M41.996,55.729l1.23-0.12c0.074,0.413,0.224,0.717,0.451,0.91c0.226,0.194,0.531,0.291,0.917,0.291
		c0.407,0,0.714-0.086,0.921-0.259c0.206-0.172,0.309-0.373,0.309-0.605c0-0.149-0.043-0.274-0.13-0.378
		c-0.087-0.104-0.238-0.194-0.456-0.271c-0.148-0.051-0.485-0.143-1.013-0.273c-0.679-0.169-1.154-0.375-1.428-0.62
		c-0.385-0.344-0.577-0.765-0.577-1.26c0-0.319,0.09-0.618,0.271-0.896c0.181-0.277,0.441-0.489,0.782-0.634
		c0.34-0.145,0.752-0.218,1.233-0.218c0.786,0,1.379,0.172,1.776,0.517c0.397,0.345,0.606,0.805,0.627,1.381l-1.265,0.055
		c-0.054-0.322-0.17-0.553-0.349-0.694c-0.177-0.141-0.445-0.212-0.801-0.212c-0.368,0-0.656,0.076-0.863,0.227
		c-0.134,0.097-0.202,0.227-0.202,0.389c0,0.148,0.063,0.275,0.189,0.38c0.16,0.134,0.547,0.274,1.162,0.418
		c0.616,0.146,1.07,0.296,1.366,0.451c0.295,0.155,0.526,0.368,0.692,0.637c0.167,0.269,0.25,0.601,0.25,0.998
		c0,0.359-0.1,0.695-0.299,1.008c-0.2,0.314-0.482,0.547-0.847,0.699c-0.365,0.153-0.819,0.229-1.363,0.229
		c-0.792,0-1.4-0.183-1.825-0.549C42.332,56.964,42.078,56.43,41.996,55.729"/>
	<path fill="#003764" d="M53.499,55.464v-1.056h2.727v2.495c-0.265,0.257-0.648,0.483-1.151,0.678
		c-0.503,0.195-1.013,0.292-1.528,0.292c-0.656,0-1.227-0.137-1.715-0.412c-0.487-0.274-0.852-0.668-1.098-1.179
		c-0.246-0.511-0.367-1.068-0.367-1.668c0-0.653,0.137-1.232,0.41-1.74c0.274-0.507,0.674-0.896,1.202-1.167
		c0.401-0.207,0.902-0.311,1.5-0.311c0.777,0,1.385,0.163,1.822,0.489c0.437,0.326,0.719,0.777,0.844,1.353l-1.256,0.235
		c-0.088-0.308-0.254-0.551-0.497-0.728c-0.245-0.178-0.549-0.268-0.913-0.268c-0.554,0-0.992,0.175-1.319,0.525
		c-0.326,0.351-0.489,0.871-0.489,1.561c0,0.744,0.165,1.301,0.496,1.673c0.331,0.372,0.763,0.558,1.299,0.558
		c0.265,0,0.531-0.052,0.796-0.156c0.267-0.104,0.495-0.23,0.686-0.378v-0.795L53.499,55.464L53.499,55.464z"/>
	<path fill="#003764" d="M57.397,57.767v-6.264h2.663c0.669,0,1.156,0.056,1.459,0.168c0.303,0.113,0.547,0.313,0.728,0.601
		c0.183,0.288,0.274,0.617,0.274,0.988c0,0.47-0.138,0.858-0.415,1.164c-0.276,0.306-0.688,0.499-1.239,0.579
		c0.274,0.16,0.5,0.335,0.677,0.526c0.178,0.191,0.418,0.53,0.72,1.017l0.765,1.222h-1.513l-0.915-1.363
		c-0.324-0.487-0.547-0.794-0.666-0.921c-0.12-0.127-0.246-0.213-0.381-0.261c-0.134-0.047-0.346-0.07-0.636-0.07h-0.257v2.615
		L57.397,57.767L57.397,57.767z M58.662,54.152h0.937c0.606,0,0.985-0.026,1.136-0.077c0.152-0.052,0.27-0.139,0.355-0.265
		c0.085-0.125,0.127-0.282,0.127-0.469c0-0.211-0.056-0.381-0.168-0.511c-0.113-0.129-0.272-0.211-0.476-0.245
		c-0.103-0.014-0.411-0.022-0.924-0.022h-0.987V54.152z"/>
	<path fill="#003764" d="M63.457,54.674c0-0.638,0.096-1.174,0.286-1.607c0.143-0.319,0.338-0.606,0.583-0.859
		c0.247-0.253,0.517-0.441,0.81-0.564c0.39-0.165,0.841-0.248,1.351-0.248c0.923,0,1.661,0.286,2.215,0.859
		c0.554,0.572,0.831,1.369,0.831,2.389c0,1.012-0.274,1.802-0.824,2.374c-0.55,0.572-1.286,0.857-2.205,0.857
		c-0.931,0-1.673-0.284-2.222-0.853C63.732,56.453,63.457,55.671,63.457,54.674 M64.76,54.631c0,0.709,0.164,1.247,0.491,1.613
		c0.328,0.366,0.744,0.549,1.249,0.549c0.504,0,0.918-0.182,1.241-0.545c0.324-0.363,0.485-0.908,0.485-1.634
		c0-0.719-0.157-1.254-0.472-1.607c-0.315-0.353-0.733-0.53-1.254-0.53c-0.522,0-0.942,0.179-1.26,0.536
		C64.92,53.371,64.76,53.91,64.76,54.631"/>
	<path fill="#003764" d="M70.512,51.503h1.266v3.393c0,0.539,0.015,0.888,0.046,1.047c0.054,0.257,0.183,0.462,0.386,0.617
		c0.204,0.155,0.482,0.233,0.835,0.233c0.36,0,0.63-0.073,0.812-0.22c0.182-0.146,0.293-0.326,0.33-0.541
		c0.036-0.213,0.055-0.568,0.055-1.064v-3.465h1.265v3.29c0,0.753-0.034,1.284-0.102,1.594c-0.069,0.311-0.195,0.573-0.379,0.786
		c-0.184,0.214-0.429,0.383-0.737,0.511c-0.308,0.126-0.709,0.19-1.205,0.19c-0.598,0-1.052-0.069-1.361-0.207
		c-0.309-0.138-0.554-0.318-0.732-0.538c-0.18-0.221-0.298-0.452-0.355-0.695c-0.083-0.359-0.124-0.888-0.124-1.589V51.503z"/>
	<path fill="#003764" d="M76.841,57.767v-6.264h2.03c0.769,0,1.27,0.03,1.504,0.094c0.36,0.093,0.66,0.298,0.902,0.613
		c0.242,0.315,0.363,0.721,0.363,1.22c0,0.385-0.069,0.708-0.209,0.97c-0.139,0.262-0.318,0.468-0.531,0.618
		c-0.216,0.149-0.435,0.248-0.657,0.297c-0.302,0.06-0.74,0.089-1.312,0.089h-0.825v2.363L76.841,57.767L76.841,57.767z
		 M78.106,52.562v1.777h0.693c0.499,0,0.832-0.032,1-0.098c0.168-0.065,0.3-0.167,0.396-0.307c0.095-0.139,0.143-0.302,0.143-0.487
		c0-0.228-0.067-0.416-0.2-0.564c-0.134-0.148-0.303-0.241-0.509-0.278c-0.151-0.029-0.454-0.043-0.91-0.043L78.106,52.562
		L78.106,52.562z"/>
	<g>
		<g>
			<path fill="#003764" d="M131.346,51.395c-0.061,0.018-0.121,0.034-0.182,0.05c-0.061,0.016-0.116,0.033-0.166,0.053
				c-0.05,0.019-0.086,0.053-0.108,0.099c-0.022,0.047-0.039,0.12-0.053,0.22c-0.013,0.099-0.025,0.203-0.036,0.31
				c-0.011,0.107-0.024,0.209-0.039,0.305c-0.015,0.096-0.035,0.163-0.061,0.202c-0.111,0.172-0.206,0.362-0.285,0.571
				c-0.079,0.209-0.13,0.422-0.152,0.639c-0.022,0.217-0.012,0.43,0.03,0.639c0.042,0.209,0.13,0.399,0.263,0.571l0.16,0.065
				l-0.033,0.17c-0.045,0.016-0.079,0.022-0.105,0.021c-0.026-0.002-0.049-0.008-0.069-0.018c-0.02-0.01-0.041-0.019-0.061-0.027
				c-0.02-0.008-0.043-0.01-0.069-0.006c-0.04,0.008-0.076,0.023-0.108,0.044c-0.031,0.021-0.067,0.032-0.108,0.032
				c-0.07-0.074-0.149-0.114-0.235-0.12c-0.087-0.006-0.175,0.004-0.265,0.029c-0.09,0.026-0.179,0.056-0.266,0.091
				c-0.087,0.035-0.165,0.057-0.235,0.065c-0.07,0.008-0.128-0.007-0.174-0.044c-0.046-0.037-0.073-0.116-0.08-0.237
				c-0.003-0.059,0.008-0.1,0.036-0.123c0.028-0.023,0.062-0.041,0.105-0.053s0.086-0.022,0.13-0.032
				c0.044-0.01,0.081-0.03,0.11-0.061c0.074-0.074,0.116-0.171,0.127-0.29c0.011-0.119,0.017-0.227,0.017-0.325
				c-0.004-0.137-0.013-0.271-0.028-0.404c-0.014-0.133-0.031-0.265-0.05-0.398c-0.003-0.031-0.026-0.096-0.066-0.193
				c-0.041-0.098-0.09-0.21-0.149-0.337c-0.059-0.127-0.123-0.261-0.191-0.401c-0.068-0.14-0.135-0.271-0.199-0.393
				c-0.065-0.121-0.123-0.225-0.174-0.311c-0.052-0.086-0.087-0.137-0.105-0.152c-0.052-0.043-0.1-0.061-0.144-0.056
				c-0.044,0.006-0.092,0.011-0.144,0.014c-0.052,0.004-0.109-0.01-0.172-0.041c-0.063-0.031-0.138-0.107-0.227-0.229
				c-0.044-0.058-0.055-0.101-0.03-0.129c0.024-0.027,0.064-0.047,0.119-0.059s0.117-0.02,0.185-0.026
				c0.068-0.006,0.125-0.017,0.169-0.032c0.096-0.035,0.185-0.056,0.268-0.061c0.083-0.006,0.164-0.005,0.243,0.003
				c0.079,0.008,0.162,0.018,0.249,0.032s0.18,0.022,0.279,0.026c0.125,0.004,0.236,0.011,0.332,0.021
				c0.096,0.01,0.197,0.011,0.304,0.003c0.092-0.004,0.186-0.02,0.282-0.05c0.096-0.029,0.192-0.055,0.288-0.076
				c0.096-0.021,0.19-0.03,0.282-0.026c0.092,0.004,0.183,0.037,0.271,0.1c0.033-0.012,0.08-0.015,0.141-0.009
				c0.061,0.006,0.118,0.02,0.171,0.044c0.053,0.023,0.098,0.054,0.133,0.091c0.035,0.037,0.045,0.081,0.03,0.132
				C131.46,51.352,131.407,51.378,131.346,51.395z M130.522,51.976c-0.042-0.119-0.112-0.224-0.207-0.313
				c-0.011-0.008-0.029-0.02-0.055-0.035c-0.026-0.016-0.053-0.032-0.083-0.05c-0.03-0.018-0.058-0.034-0.086-0.05
				c-0.028-0.016-0.047-0.027-0.058-0.035c-0.011-0.008-0.016-0.029-0.014-0.065c0.002-0.035,0.003-0.071,0.006-0.108
				c0.002-0.037,0.002-0.07,0-0.1c-0.002-0.029-0.01-0.044-0.025-0.044c-0.019,0-0.033,0.021-0.044,0.065
				c-0.011,0.043-0.021,0.091-0.03,0.144c-0.009,0.053-0.02,0.101-0.031,0.143c-0.011,0.043-0.025,0.067-0.044,0.07
				c-0.077,0.012-0.143,0.023-0.196,0.035c-0.053,0.012-0.096,0.031-0.127,0.059c-0.031,0.027-0.052,0.068-0.061,0.123
				c-0.009,0.055-0.008,0.133,0.003,0.234c0.011,0.101,0.03,0.185,0.058,0.249c0.028,0.065,0.058,0.124,0.091,0.179
				c0.033,0.055,0.067,0.11,0.103,0.167c0.035,0.057,0.064,0.128,0.086,0.214c0.011,0.039,0.036,0.099,0.075,0.179
				c0.039,0.08,0.083,0.149,0.133,0.208c0.05,0.058,0.099,0.093,0.149,0.103c0.05,0.01,0.091-0.034,0.124-0.132
				c0.018-0.055,0.028-0.112,0.028-0.17c0-0.062,0.011-0.121,0.033-0.176c0.033-0.086,0.069-0.171,0.108-0.255
				c0.039-0.084,0.067-0.171,0.086-0.261C130.571,52.221,130.565,52.095,130.522,51.976z"/>
			<path fill="#003764" d="M135.284,52.608c-0.013,0.006-0.028,0.006-0.044,0c-0.017-0.006-0.032-0.014-0.047-0.023
				c-0.015-0.01-0.026-0.019-0.033-0.026c-0.03-0.035-0.053-0.074-0.069-0.117c-0.017-0.043-0.031-0.086-0.044-0.129
				c-0.013-0.043-0.026-0.086-0.039-0.129c-0.013-0.043-0.03-0.08-0.053-0.111c-0.074-0.101-0.152-0.199-0.235-0.293
				c-0.083-0.094-0.161-0.191-0.235-0.293c-0.332-0.062-0.591-0.083-0.777-0.062c-0.186,0.022-0.319,0.086-0.398,0.193
				c-0.079,0.108-0.115,0.259-0.108,0.454c0.007,0.195,0.037,0.434,0.088,0.715c0.011,0.07,0.046,0.108,0.105,0.114
				c0.059,0.006,0.123-0.005,0.193-0.032c0.07-0.027,0.138-0.062,0.205-0.105c0.067-0.043,0.116-0.076,0.149-0.1
				c0.026-0.019,0.047-0.072,0.064-0.158c0.017-0.086,0.035-0.173,0.055-0.261c0.02-0.088,0.046-0.16,0.078-0.217
				c0.031-0.057,0.073-0.066,0.124-0.027c0.055,0.039,0.087,0.1,0.094,0.182c0.007,0.082,0.006,0.17-0.006,0.264
				c-0.011,0.094-0.026,0.187-0.045,0.278c-0.018,0.092-0.029,0.167-0.033,0.226c0,0.066,0.004,0.131,0.011,0.193
				c0.008,0.062,0.016,0.125,0.025,0.187c0.009,0.062,0.017,0.127,0.022,0.193c0.006,0.067,0.007,0.135,0.003,0.205l-0.144,0.023
				c-0.019-0.012-0.05-0.038-0.094-0.079c-0.044-0.041-0.093-0.087-0.146-0.138s-0.103-0.099-0.149-0.146
				c-0.046-0.047-0.077-0.08-0.091-0.1h-0.149c-0.099-0.07-0.179-0.086-0.238-0.047c-0.059,0.039-0.101,0.112-0.124,0.22
				c-0.024,0.107-0.033,0.235-0.028,0.384c0.006,0.148,0.022,0.297,0.05,0.445c0.028,0.148,0.062,0.285,0.105,0.41
				c0.042,0.125,0.089,0.213,0.141,0.264c0.026,0.027,0.065,0.044,0.116,0.05c0.052,0.006,0.106,0.007,0.163,0.003
				c0.057-0.004,0.114-0.008,0.172-0.012c0.057-0.004,0.104-0.002,0.141,0.006c0.03-0.023,0.066-0.047,0.108-0.07
				c0.042-0.023,0.087-0.045,0.133-0.065c0.046-0.019,0.092-0.036,0.138-0.05c0.046-0.014,0.087-0.027,0.124-0.038
				c0.07-0.082,0.133-0.163,0.188-0.243c0.055-0.08,0.106-0.16,0.152-0.24c0.046-0.08,0.091-0.164,0.135-0.252
				c0.044-0.088,0.092-0.182,0.144-0.284c0.107-0.027,0.185-0.012,0.235,0.044c0.05,0.057,0.078,0.139,0.086,0.246
				c0.007,0.108-0.001,0.231-0.025,0.369c-0.024,0.138-0.052,0.273-0.086,0.404s-0.067,0.248-0.103,0.351
				c-0.035,0.104-0.06,0.175-0.075,0.214c-0.059,0.016-0.106,0.017-0.141,0.003c-0.035-0.014-0.065-0.032-0.088-0.056
				c-0.024-0.023-0.047-0.047-0.069-0.07c-0.022-0.023-0.05-0.037-0.083-0.041c-0.051-0.004-0.119-0.007-0.202-0.009
				c-0.083-0.002-0.169-0.003-0.257-0.003c-0.085,0-0.167,0.002-0.246,0.006c-0.079,0.004-0.143,0.01-0.191,0.018l-0.127-0.053
				c-0.059,0.047-0.143,0.076-0.252,0.088s-0.225,0.013-0.348,0.003c-0.124-0.01-0.243-0.025-0.357-0.044
				c-0.114-0.019-0.206-0.039-0.277-0.058c-0.04,0.035-0.105,0.065-0.193,0.091c-0.089,0.026-0.176,0.04-0.263,0.044
				c-0.087,0.004-0.162-0.01-0.226-0.041c-0.065-0.031-0.093-0.088-0.086-0.17c0.044-0.055,0.089-0.093,0.136-0.114
				c0.046-0.021,0.092-0.037,0.138-0.047c0.046-0.01,0.09-0.019,0.133-0.029c0.042-0.01,0.082-0.032,0.119-0.067
				c0.037-0.035,0.067-0.134,0.091-0.296c0.024-0.162,0.041-0.357,0.052-0.586s0.016-0.474,0.014-0.735
				c-0.002-0.262-0.012-0.51-0.03-0.744c-0.019-0.234-0.043-0.439-0.075-0.615c-0.031-0.176-0.069-0.291-0.114-0.346
				c-0.044-0.051-0.096-0.075-0.155-0.073c-0.059,0.002-0.114,0.003-0.166,0.003c-0.048,0-0.089-0.013-0.125-0.038
				c-0.035-0.025-0.053-0.095-0.053-0.208c0-0.066,0.027-0.118,0.08-0.155c0.053-0.037,0.122-0.065,0.205-0.082
				c0.083-0.018,0.175-0.028,0.277-0.032c0.101-0.004,0.2-0.006,0.296-0.006c0.096,0,0.184,0,0.265,0
				c0.081,0,0.144-0.004,0.188-0.012c0.085,0.059,0.171,0.099,0.257,0.12s0.173,0.031,0.26,0.029s0.175-0.014,0.266-0.035
				c0.09-0.021,0.183-0.046,0.279-0.073c0.04-0.012,0.079-0.014,0.116-0.006c0.037,0.008,0.074,0.02,0.111,0.035
				c0.037,0.016,0.074,0.03,0.11,0.044c0.037,0.014,0.074,0.021,0.11,0.021c0.067,0.004,0.124-0.004,0.172-0.023
				c0.048-0.02,0.095-0.035,0.141-0.047c0.046-0.012,0.094-0.01,0.144,0.006c0.05,0.016,0.11,0.059,0.18,0.129
				c0.007,0.012,0.017,0.052,0.028,0.12c0.011,0.068,0.02,0.153,0.028,0.255c0.008,0.101,0.014,0.211,0.019,0.328
				s0.01,0.227,0.014,0.331c0.004,0.104,0.005,0.193,0.003,0.27c-0.002,0.076-0.005,0.124-0.008,0.144
				C135.308,52.59,135.297,52.603,135.284,52.608z"/>
			<path fill="#003764" d="M140.16,55.072c-0.019,0.055-0.05,0.103-0.094,0.144c-0.044,0.041-0.093,0.073-0.146,0.094
				c-0.053,0.021-0.097,0.022-0.13,0.003c-0.044-0.027-0.086-0.038-0.124-0.032c-0.039,0.006-0.075,0.014-0.108,0.026
				s-0.066,0.021-0.099,0.029c-0.033,0.008-0.066,0.002-0.1-0.018l-0.68-0.105c-0.041,0-0.09,0.011-0.149,0.032
				c-0.059,0.021-0.119,0.041-0.18,0.059c-0.061,0.018-0.119,0.028-0.174,0.032c-0.056,0.004-0.098-0.012-0.127-0.047
				c-0.059-0.004-0.113-0.011-0.16-0.02c-0.048-0.01-0.1-0.021-0.155-0.032c-0.041-0.008-0.1-0.009-0.177-0.003
				c-0.077,0.006-0.16,0.014-0.249,0.023c-0.088,0.01-0.176,0.02-0.263,0.029c-0.087,0.01-0.16,0.014-0.219,0.014
				c-0.155,0-0.311,0.01-0.467,0.029c-0.157,0.02-0.316,0.033-0.478,0.041c-0.074,0.004-0.137-0.001-0.191-0.015
				c-0.053-0.014-0.091-0.032-0.114-0.056c-0.022-0.023-0.028-0.053-0.017-0.088c0.011-0.035,0.046-0.073,0.105-0.112
				c0.04-0.027,0.097-0.059,0.168-0.094c0.072-0.035,0.141-0.068,0.208-0.099c0.066-0.031,0.121-0.056,0.163-0.073
				c0.042-0.018,0.056-0.022,0.041-0.015c0.051-0.027,0.107-0.101,0.166-0.22c0.059-0.119,0.121-0.265,0.188-0.437
				c0.067-0.172,0.134-0.357,0.202-0.556c0.068-0.199,0.136-0.393,0.205-0.58c0.068-0.188,0.135-0.358,0.199-0.51
				c0.065-0.152,0.124-0.266,0.18-0.34c0.011-0.086,0.025-0.18,0.042-0.281c0.017-0.101,0.037-0.203,0.061-0.305
				c0.024-0.101,0.052-0.199,0.086-0.293c0.033-0.094,0.072-0.177,0.116-0.252c0.04-0.067,0.087-0.109,0.141-0.129
				c0.053-0.019,0.107-0.02,0.16-0.003c0.053,0.018,0.102,0.05,0.147,0.097c0.044,0.047,0.077,0.104,0.099,0.17
				c0.018,0.059,0.042,0.114,0.072,0.167c0.03,0.053,0.059,0.105,0.089,0.155c0.029,0.051,0.056,0.103,0.08,0.155
				c0.024,0.053,0.04,0.107,0.047,0.161c0.015,0.094,0.026,0.19,0.033,0.287c0.008,0.098,0.017,0.195,0.028,0.293
				c0.011,0.098,0.028,0.194,0.05,0.287c0.022,0.094,0.057,0.184,0.105,0.27c0.026,0.051,0.055,0.13,0.088,0.237
				c0.033,0.108,0.069,0.229,0.108,0.364c0.039,0.135,0.078,0.273,0.119,0.416c0.041,0.143,0.082,0.275,0.125,0.398
				c0.042,0.123,0.087,0.225,0.133,0.308c0.046,0.082,0.091,0.129,0.136,0.14s0.099,0.016,0.166,0.012
				c0.066-0.004,0.133-0.006,0.199-0.006c0.067,0,0.128,0.006,0.185,0.018c0.057,0.012,0.102,0.037,0.136,0.076
				C140.169,54.967,140.178,55.018,140.16,55.072z M138.39,54.12c-0.03-0.072-0.073-0.128-0.13-0.167
				c-0.057-0.039-0.126-0.063-0.207-0.073c-0.081-0.01-0.173-0.014-0.277-0.014c-0.048,0-0.08,0.014-0.097,0.041
				c-0.017,0.027-0.043,0.041-0.08,0.041c-0.026,0-0.048-0.006-0.066-0.018c-0.018-0.012-0.041-0.018-0.066-0.018
				c-0.077-0.004-0.148,0.02-0.21,0.07c-0.063,0.051-0.113,0.114-0.152,0.191c-0.039,0.076-0.062,0.158-0.072,0.246
				c-0.009,0.088-0.003,0.167,0.019,0.237c0.015,0.035,0.055,0.075,0.119,0.12c0.064,0.045,0.135,0.092,0.213,0.14
				c0.078,0.049,0.151,0.101,0.219,0.155c0.068,0.055,0.112,0.109,0.13,0.164c0.014,0.047,0.025,0.057,0.033,0.029
				c0.007-0.027,0.016-0.067,0.025-0.12c0.009-0.053,0.022-0.105,0.039-0.158c0.017-0.053,0.04-0.081,0.069-0.085
				c0.099-0.012,0.184-0.017,0.254-0.014c0.07,0.002,0.125-0.007,0.166-0.027c0.041-0.019,0.07-0.06,0.089-0.123
				c0.018-0.062,0.028-0.168,0.028-0.317C138.434,54.293,138.42,54.193,138.39,54.12z M137.989,53.2
				c0.013-0.064,0.011-0.133-0.006-0.205c-0.017-0.072-0.04-0.144-0.069-0.217c-0.03-0.072-0.048-0.142-0.056-0.208
				c-0.066-0.086-0.119-0.131-0.157-0.135c-0.039-0.004-0.072,0.013-0.1,0.05c-0.028,0.037-0.051,0.084-0.072,0.14
				c-0.02,0.057-0.045,0.103-0.075,0.138c0,0.004-0.004,0.025-0.011,0.064c-0.008,0.039-0.017,0.082-0.028,0.129
				c-0.011,0.047-0.024,0.109-0.039,0.187c-0.018,0.039-0.033,0.074-0.044,0.106c-0.011,0.031-0.016,0.058-0.014,0.082
				c0.002,0.023,0.014,0.044,0.036,0.061c0.022,0.018,0.059,0.032,0.111,0.044c0.011,0,0.037,0.004,0.077,0.012
				c0.041,0.008,0.065,0.012,0.072,0.012c0.034-0.004,0.075-0.016,0.125-0.035c0.05-0.02,0.089-0.039,0.119-0.059
				C137.933,53.32,137.976,53.265,137.989,53.2z"/>
			<path fill="#003764" d="M144.394,54.776c0.002,0.053-0.013,0.106-0.044,0.161c-0.031,0.055-0.07,0.107-0.116,0.158
				c-0.046,0.051-0.08,0.094-0.102,0.129c-0.118,0.035-0.21,0.064-0.277,0.088c-0.066,0.023-0.12,0.041-0.16,0.053
				s-0.073,0.017-0.097,0.014c-0.024-0.002-0.053-0.01-0.086-0.023c-0.033-0.014-0.077-0.033-0.133-0.058
				c-0.055-0.026-0.135-0.056-0.238-0.091c-0.066-0.09-0.118-0.194-0.155-0.311c-0.037-0.117-0.065-0.238-0.086-0.363
				c-0.02-0.125-0.034-0.25-0.041-0.375c-0.008-0.125-0.011-0.244-0.011-0.357c-0.004-0.14-0.026-0.241-0.067-0.302
				c-0.04-0.06-0.091-0.101-0.152-0.123c-0.061-0.021-0.13-0.032-0.208-0.032c-0.077,0-0.153-0.012-0.227-0.035
				c-0.041-0.012-0.087-0.022-0.138-0.032c-0.052-0.01-0.094-0.017-0.127-0.021c-0.033-0.004-0.052-0.006-0.055-0.006
				c-0.011,0.082-0.025,0.189-0.041,0.322s-0.03,0.272-0.039,0.416c-0.009,0.145-0.014,0.283-0.014,0.416
				c0,0.129,0.009,0.231,0.028,0.305c0.018,0.07,0.051,0.126,0.099,0.167c0.048,0.041,0.096,0.075,0.144,0.103
				c0.048,0.027,0.09,0.053,0.127,0.079c0.037,0.025,0.055,0.059,0.055,0.103l-0.088,0.129c-0.081,0.031-0.186,0.042-0.315,0.032
				c-0.129-0.01-0.261-0.021-0.396-0.032c-0.135-0.012-0.264-0.017-0.387-0.014c-0.124,0.002-0.222,0.03-0.296,0.085
				c-0.022,0.016-0.051,0.014-0.086-0.003c-0.035-0.018-0.071-0.042-0.108-0.073c-0.037-0.031-0.069-0.064-0.097-0.099
				c-0.028-0.035-0.043-0.065-0.047-0.088l0.044-0.111c0.07,0.004,0.138-0.009,0.205-0.038c0.066-0.029,0.126-0.07,0.18-0.123
				c0.053-0.053,0.097-0.114,0.133-0.185c0.035-0.07,0.052-0.143,0.052-0.217c0-0.105,0.003-0.235,0.008-0.39
				c0.006-0.154,0.009-0.319,0.011-0.495c0.002-0.176,0.002-0.356,0-0.542c-0.002-0.185-0.007-0.363-0.017-0.533
				c-0.009-0.17-0.024-0.326-0.044-0.469c-0.02-0.143-0.049-0.259-0.086-0.349c-0.033-0.086-0.072-0.148-0.116-0.187
				c-0.044-0.039-0.09-0.066-0.138-0.079c-0.048-0.014-0.095-0.022-0.141-0.023c-0.046-0.002-0.088-0.009-0.124-0.021
				c-0.037-0.012-0.068-0.033-0.094-0.064c-0.026-0.031-0.04-0.084-0.044-0.158c-0.004-0.043,0.028-0.077,0.094-0.103
				c0.066-0.025,0.15-0.044,0.252-0.056c0.101-0.012,0.214-0.019,0.337-0.02c0.124-0.002,0.241-0.001,0.354,0.003
				c0.113,0.004,0.213,0.011,0.302,0.02c0.088,0.01,0.147,0.019,0.177,0.027c0.03-0.02,0.069-0.033,0.119-0.041
				c0.05-0.008,0.091-0.002,0.124,0.018c0.056-0.027,0.109-0.042,0.16-0.044c0.051-0.002,0.103,0.003,0.155,0.014
				c0.051,0.012,0.104,0.027,0.157,0.047c0.054,0.02,0.112,0.035,0.174,0.047c0.07,0.016,0.132,0.032,0.185,0.05
				c0.053,0.018,0.106,0.037,0.157,0.059c0.052,0.021,0.105,0.043,0.16,0.064c0.055,0.022,0.116,0.044,0.183,0.068
				c0.051,0.019,0.099,0.033,0.144,0.041c0.044,0.008,0.089,0.022,0.133,0.041c0.062,0.023,0.115,0.084,0.157,0.182
				c0.042,0.098,0.073,0.205,0.091,0.322c0.018,0.117,0.023,0.231,0.014,0.343c-0.009,0.111-0.034,0.192-0.075,0.243
				c-0.019,0.023-0.07,0.073-0.155,0.147s-0.175,0.151-0.271,0.231c-0.096,0.08-0.182,0.154-0.257,0.223
				c-0.076,0.068-0.114,0.11-0.114,0.126l0.05,0.065c0.136,0.133,0.244,0.282,0.323,0.448c0.079,0.166,0.15,0.326,0.213,0.48
				c0.062,0.154,0.126,0.29,0.191,0.407c0.064,0.117,0.15,0.19,0.257,0.217l0.249-0.147
				C144.356,54.676,144.392,54.723,144.394,54.776z M143.003,52.515c0.056-0.111,0.087-0.223,0.094-0.337
				c0.007-0.113-0.013-0.223-0.061-0.331c-0.048-0.107-0.131-0.21-0.249-0.308c-0.033-0.027-0.07-0.05-0.11-0.067
				c-0.041-0.018-0.08-0.032-0.119-0.044c-0.039-0.012-0.078-0.023-0.116-0.035s-0.075-0.027-0.108-0.047
				c-0.03-0.019-0.058-0.035-0.086-0.047c-0.028-0.012-0.058-0.018-0.091-0.018c-0.063,0-0.116,0.023-0.16,0.068
				c-0.044,0.045-0.085,0.093-0.121,0.144c-0.085,0.113-0.136,0.207-0.152,0.281c-0.017,0.074-0.018,0.141-0.003,0.199
				c0.015,0.059,0.034,0.115,0.058,0.17c0.024,0.055,0.036,0.121,0.036,0.199c0,0.031-0.003,0.062-0.008,0.094
				c-0.006,0.031-0.009,0.062-0.009,0.094c0,0.027,0.007,0.06,0.02,0.099c0.013,0.039,0.027,0.079,0.041,0.12
				c0.014,0.041,0.028,0.079,0.039,0.114c0.011,0.035,0.014,0.059,0.011,0.07c0.059-0.004,0.116-0.005,0.172-0.003
				c0.055,0.002,0.118-0.001,0.188-0.009c0.052-0.004,0.1-0.012,0.144-0.023c0.044-0.012,0.087-0.023,0.127-0.035
				c0.041-0.012,0.081-0.02,0.122-0.026c0.04-0.006,0.083-0.007,0.127-0.003C142.876,52.732,142.948,52.626,143.003,52.515z"/>
			<path fill="#003764" d="M147.477,54.047c-0.026,0.117-0.061,0.231-0.105,0.34c-0.045,0.109-0.089,0.21-0.136,0.302
				c-0.046,0.092-0.073,0.163-0.08,0.214c-0.048,0.047-0.11,0.101-0.185,0.161c-0.076,0.06-0.158,0.117-0.246,0.17
				c-0.088,0.053-0.181,0.098-0.277,0.135c-0.096,0.037-0.19,0.057-0.282,0.059c-0.092,0.002-0.178-0.018-0.257-0.059
				c-0.079-0.041-0.147-0.114-0.202-0.22c-0.118-0.047-0.221-0.06-0.307-0.041c-0.087,0.02-0.163,0.051-0.227,0.094
				c-0.065,0.043-0.122,0.087-0.172,0.132c-0.05,0.045-0.095,0.067-0.136,0.067c-0.014,0-0.029-0.005-0.044-0.015
				c-0.015-0.01-0.024-0.022-0.028-0.038l-0.028-0.1c-0.011-0.035-0.019-0.103-0.025-0.202c-0.006-0.1-0.008-0.213-0.006-0.34
				c0.002-0.127,0.007-0.261,0.017-0.401c0.009-0.141,0.022-0.271,0.039-0.39s0.037-0.221,0.061-0.305
				c0.024-0.084,0.053-0.134,0.086-0.149c0.051-0.023,0.095-0.021,0.13,0.009c0.035,0.029,0.064,0.069,0.086,0.12
				s0.04,0.105,0.055,0.164c0.014,0.059,0.028,0.106,0.039,0.141c0.07,0.223,0.158,0.417,0.265,0.583
				c0.107,0.166,0.23,0.288,0.368,0.366c0.138,0.078,0.293,0.106,0.464,0.082c0.172-0.023,0.36-0.113,0.567-0.27
				c0.081-0.168,0.12-0.314,0.116-0.439c-0.004-0.125-0.036-0.233-0.097-0.325c-0.061-0.092-0.145-0.17-0.252-0.234
				c-0.107-0.065-0.223-0.121-0.349-0.17c-0.125-0.049-0.253-0.093-0.384-0.132c-0.131-0.039-0.254-0.078-0.368-0.117
				c-0.088,0.035-0.172,0.04-0.252,0.014c-0.079-0.025-0.153-0.07-0.221-0.135c-0.068-0.065-0.13-0.143-0.185-0.234
				c-0.056-0.092-0.101-0.187-0.138-0.287c-0.037-0.1-0.066-0.196-0.086-0.29c-0.02-0.094-0.029-0.176-0.025-0.246
				c0-0.008,0.008-0.037,0.025-0.088c0.017-0.051,0.035-0.106,0.055-0.167c0.02-0.061,0.039-0.117,0.055-0.17
				c0.017-0.053,0.029-0.089,0.036-0.108c0.034-0.101,0.107-0.198,0.221-0.29c0.114-0.092,0.242-0.169,0.382-0.231
				c0.14-0.062,0.282-0.106,0.426-0.132c0.144-0.026,0.26-0.022,0.348,0.009c0.029,0.012,0.053,0.031,0.069,0.059
				c0.017,0.027,0.032,0.057,0.047,0.088c0.015,0.031,0.031,0.061,0.047,0.091c0.017,0.029,0.041,0.05,0.075,0.061
				c0.07,0.027,0.134,0.033,0.191,0.018c0.057-0.016,0.112-0.039,0.163-0.07c0.052-0.031,0.103-0.062,0.152-0.094
				c0.05-0.031,0.104-0.047,0.163-0.047c0.033,0.027,0.057,0.086,0.072,0.176c0.014,0.09,0.023,0.194,0.025,0.313
				c0.002,0.119-0.003,0.245-0.014,0.378c-0.011,0.133-0.029,0.254-0.052,0.363c-0.024,0.109-0.053,0.2-0.089,0.272
				c-0.035,0.073-0.073,0.108-0.113,0.108c-0.052,0-0.078-0.01-0.08-0.029c-0.002-0.02-0.007-0.051-0.014-0.094
				c-0.03-0.176-0.061-0.311-0.094-0.407c-0.033-0.096-0.076-0.176-0.127-0.24c-0.052-0.064-0.116-0.125-0.194-0.182
				c-0.077-0.057-0.175-0.136-0.293-0.237c-0.122,0-0.244,0.005-0.368,0.014c-0.124,0.01-0.229,0.04-0.315,0.091
				c-0.087,0.051-0.142,0.128-0.166,0.232c-0.024,0.104,0.007,0.245,0.091,0.425c0.029,0.07,0.061,0.115,0.094,0.135
				c0.033,0.02,0.067,0.03,0.102,0.032c0.035,0.002,0.07,0.002,0.105,0c0.035-0.002,0.073,0.007,0.113,0.027
				c0.037,0.019,0.063,0.047,0.078,0.082c0.014,0.035,0.037,0.065,0.066,0.088c0.018,0.016,0.042,0.027,0.072,0.035
				c0.03,0.008,0.062,0.016,0.097,0.023c0.035,0.008,0.07,0.016,0.105,0.023c0.035,0.008,0.066,0.02,0.091,0.035
				c0.063,0.035,0.121,0.058,0.174,0.067c0.053,0.01,0.102,0.015,0.147,0.015c0.048,0,0.088,0,0.121,0
				c0.037,0,0.068,0.008,0.094,0.023l0.404,0.398c0.015,0.101,0.046,0.195,0.094,0.281c0.048,0.086,0.086,0.178,0.116,0.275
				C147.501,53.818,147.503,53.929,147.477,54.047z"/>
		</g>
		<path fill-rule="evenodd" clip-rule="evenodd" fill="#003764" d="M128.021,24.901c-0.022,0.055-0.061,0.093-0.116,0.114
			c-0.04,0.1-0.154,0.128-0.194,0.228c-0.164,0.117-0.323,0.241-0.465,0.381c-0.339,0.238-0.686,0.469-1.046,0.685
			c-0.752,0.404-1.633,0.68-2.636,0.838c-2.073,0.236-4.292-0.254-6.35,0c-0.082,0.01-0.128-0.09-0.065-0.143
			c1.151-0.974,2.452-1.8,4.245-2.142c1.832-0.446,4.4-0.169,6.395-0.457h-17.687c-0.568,0.076-1.11,0.179-1.512,0.419
			c-0.477,0.167-0.876,0.409-1.24,0.686c-0.232,0.089-0.358,0.282-0.582,0.381c-0.153,0.167-0.345,0.294-0.503,0.457
			c-0.352,0.301-0.67,0.637-0.969,0.99c-0.3,0.34-0.539,0.741-0.814,1.105c-0.085,0.233-0.27,0.368-0.348,0.609
			c-0.185,0.148-0.239,0.427-0.427,0.571c-0.209,0.43-0.495,0.783-0.736,1.181c-0.128,0.192-0.237,0.401-0.387,0.571
			c-0.034,0.133-0.12,0.212-0.194,0.305c-0.02,0.056-0.058,0.096-0.078,0.153c0,0.055-0.164,0.12,0,0.114
			c1.624,0.033,13.338,0.072,15.823,0.076c0.185,0,1.451-0.019,0.759,1.059c-2.222,3.813-2.044,3.828-1.899,6.706
			c0.01,0.194,0.043,0.512,0.065,0.705c0.764,6.699-4.793,12.463-5.097,13.036c-0.206,0.239-1.158,1.794-1.037,1.788
			c2.698,0.035,10.253,0.183,11.627,0.065c0.14-0.012,0.248-0.127,0.254-0.267c0.584-14.151,3.714-3.986,3.034-26.513
			c-0.003-0.111,0.01-0.22,0.031-0.328c0.301-0.453,0.588-0.92,0.908-1.354c0.201-0.348,0.416-0.684,0.659-0.99
			c0.199-0.35,0.405-0.695,0.659-0.991C128.1,24.867,128.068,24.858,128.021,24.901z M116.778,48.071
			c5.003-5.159-0.597-10.356,4.533-14.585C119.308,37.878,125.732,41.165,116.778,48.071z"/>
		<path fill-rule="evenodd" clip-rule="evenodd" fill="#003764" d="M149.929,26.791c-0.019-0.055-0.056-0.093-0.075-0.148
			c-0.071-0.091-0.155-0.168-0.188-0.297c-0.146-0.165-0.252-0.368-0.376-0.555c-0.234-0.386-0.512-0.73-0.715-1.147
			c-0.182-0.14-0.235-0.411-0.414-0.555c-0.076-0.234-0.255-0.365-0.338-0.592c-0.268-0.354-0.499-0.743-0.791-1.074
			c-0.291-0.344-0.599-0.67-0.942-0.962c-0.153-0.158-0.341-0.281-0.489-0.444c-0.217-0.097-0.339-0.284-0.565-0.37
			c-0.353-0.269-0.742-0.505-1.205-0.666c-0.39-0.234-0.916-0.333-1.469-0.407h-15.636c1.937,0.279,4.433,0.011,6.213,0.444
			c1.696,0.324,2.939,1.093,4.036,2.007c0.088,0.073,0.024,0.213-0.089,0.2c-1.968-0.215-4.08,0.238-6.055,0.014
			c-0.974-0.153-1.83-0.422-2.561-0.815c-0.35-0.211-0.687-0.435-1.017-0.666c-0.138-0.136-0.292-0.256-0.452-0.37
			c-0.039-0.098-0.15-0.125-0.189-0.222c-0.054-0.021-0.091-0.058-0.113-0.111c-0.046-0.041-0.077-0.033-0.076,0.037
			c0.247,0.287,0.447,0.622,0.64,0.962c0.236,0.298,0.445,0.624,0.64,0.962c0.448,0.608,0.828,1.283,1.28,1.887
			c0.402,0.937,0.677,2,0.602,3.406c-0.021,0.184-0.06,0.351-0.09,0.527l-0.007,0.002c-0.219,1.629-0.744,3.158-0.144,4.652
			c0.068,0.169-0.134,0.323-0.278,0.212c-0.551-0.427-0.953-0.888-1.246-1.376c-0.072-0.12-0.257-0.059-0.249,0.081
			c0.092,1.647,0.197,3.084,0.263,3.81c0.101,1.099,0.381,0.883,0.613,0.851c15.54-2.142,13.196,3.54,12.779,4.301
			c-0.385,0.788-0.776,1.42-1.417,1.856c-1.347,0.891-2.531,1.213-4.023,0.942c-1.497-0.274-3.049-0.983-4.659-2.168
			c-1.68-1.191-3.055-2.571-4.231-3.876c-0.083-0.071-0.024,0.031-0.047,0.06c0.053,0.037,0.039,0.081,0.034,0.124
			c0.025,0.082,0.041,0.166,0.067,0.249c0.023,0.168,0.063,0.334,0.099,0.5c0.037,0.331,0.133,0.656,0.141,0.99
			c0.099,0.547,0.137,1.101,0.181,1.654c0.013,0.165,0.013,0.331,0.015,0.496c0.001,0.116,0.017,0.23,0.004,0.348
			c0.022,0.162-0.005,0.33,0.006,0.492c0,0.285-0.032,0.573-0.039,0.859c-0.002,0.1-0.013,0.199-0.027,0.298
			c-0.042,0.291-0.038,0.577-0.122,0.871c0.004,0.171-0.035,0.345-0.082,0.52c-0.009,0.099-0.024,0.198-0.046,0.298
			c-0.029,0.129-0.004,0.266,0.085,0.364c2.68,2.925,8.045,3.742,9.472,3.789c11.685,0.381,15.139-14.125,5.619-17.237
			c-0.004-0.001-0.008-0.002-0.012-0.003c-2.007-0.472-2.314-0.672-5.984-0.614c-0.201,0.003-0.377-0.136-0.417-0.333
			c-0.127-0.635-0.27-1.357-0.352-2.01c-0.124-0.988,0.636-1.863,1.632-1.866c4.089-0.012,11.531-0.042,12.805-0.068
			C150.088,26.908,149.929,26.845,149.929,26.791z M143.252,40.381c0.099-0.162,0.122-0.317,0.215-0.479
			c-0.016-0.077,0.076-0.167,0.06-0.244c0.062-0.043,0.013-0.074,0.059-0.116c-0.022-0.051,0.081-0.106,0.016-0.02
			c-0.139,1.068-0.519,2.16-1.365,3.304c-0.011,0.014-0.022,0.028-0.033,0.042c-1.001,1.165-2.07,1.782-3.174,2.127
			c-0.2,0.092-0.43,0.146-0.615,0.193c-0.075,0.019-0.141,0.043-0.212,0.059c-0.133,0.03-0.28,0.039-0.414,0.062
			c-0.144,0.025-0.284,0.064-0.429,0.082c-0.574,0.049-1.148,0.088-1.731,0.057c-2.275-0.117-4.624-0.834-7.095-2.523
			c-0.093-0.064-0.163-0.161-0.191-0.27c-0.137-0.536-0.223-1.077-0.359-1.613c-0.048-0.299-0.13-0.594-0.184-0.893
			c-0.044-0.147-0.053-0.298-0.109-0.444c0.031-0.076-0.044-0.141-0.027-0.216c-0.02-0.034-0.025-0.071-0.014-0.108
			c-0.056-0.02-0.05-0.129,0.012-0.057c0.65,0.674,1.404,1.336,2.186,1.995c1.358,1.043,2.681,1.815,3.975,2.345
			c0.009,0.003,0.018,0.007,0.027,0.01c0.638,0.219,1.275,0.434,1.9,0.539c0.315,0.073,0.622,0.09,0.933,0.134
			c0.01,0.001,0.021,0.003,0.031,0.003c0.053,0.004,0.105,0.007,0.157,0.009c0.631,0.024,1.265-0.007,1.883-0.136
			c0.831-0.173,1.644-0.496,2.421-1.1C142.023,42.521,142.906,41.292,143.252,40.381z"/>
	</g>
</g>
</svg>
